<svg width="424" height="54" viewBox="0 0 424 54" fill="none" xmlns="http://www.w3.org/2000/svg">
<rect width="424" height="54" rx="4" fill="#5F0080"/>
<path d="M174.031 22.8125V22.6562H176.969V21.25H169.297V22.6562H172.281V22.8281C172.281 24.7031 171.086 26.5391 168.812 27.2812L169.688 28.6562C171.391 28.0859 172.578 26.9062 173.203 25.4219C173.82 26.6953 174.945 27.7031 176.531 28.2031L177.359 26.8438C175.148 26.1641 174.031 24.5391 174.031 22.8125ZM170.734 31.6719C170.734 33.375 172.562 34.375 175.516 34.375C178.445 34.375 180.242 33.375 180.25 31.6719C180.242 29.9844 178.445 29 175.516 29C172.562 29 170.734 29.9844 170.734 31.6719ZM172.469 31.6719C172.469 30.8125 173.578 30.3594 175.516 30.3594C177.445 30.3594 178.531 30.8125 178.531 31.6719C178.531 32.5469 177.445 33.0078 175.516 33.0156C173.578 33.0078 172.469 32.5469 172.469 31.6719ZM178.375 28.6875H180.109V25.0781H182.078V23.6562H180.109V20.2656H178.375V28.6875ZM193.859 20.2656H192.125V34.3906H193.859V27.1094H196.031V25.6406H193.859V20.2656ZM183.297 31.0781H190.078V21.4219H188.344V24.9531H185.016V21.4219H183.297V31.0781ZM185.016 29.6562V26.3125H188.344V29.6562H185.016ZM207.922 21.125H198.141V22.5312H206.188C206.188 23.7891 206.172 25.2344 205.781 27.1562H196.625V28.5625H202.141V34.4062H203.891V28.5625H209.5V27.1562H207.547C207.914 25.1562 207.914 23.7109 207.922 22.3906V21.125ZM222.234 20.2656H220.516V34.3906H222.234V20.2656ZM211.266 30.8438H212.484C214.68 30.8516 216.984 30.6875 219.469 30.1719L219.25 28.7188C217.07 29.1562 214.961 29.3281 212.984 29.3594V21.6406H211.266V30.8438ZM239.219 20.2656H237.484V28.2188H239.219V24.9844H241.188V23.5469H239.219V20.2656ZM228.672 27.5938H229.812C232.898 27.5938 234.539 27.5312 236.391 27.125L236.203 25.75C234.523 26.0859 233.047 26.1797 230.391 26.1875V22.5781H234.953V21.1719H228.672V27.5938ZM230.094 34.2031H239.219V28.8594H230.094V34.2031ZM231.812 32.8281V30.25H237.5V32.8281H231.812ZM253.703 20.2656H251.953V34.3906H253.703V20.2656ZM242 30.5L242.906 31.8906C247.852 29.5391 249.484 25.9688 249.484 21.7656H242.719V23.1406H247.719C247.406 26.3516 245.703 28.7422 242 30.5Z" fill="white"/>
</svg>
