<svg width="155" height="44" viewBox="0 0 155 44" fill="none" xmlns="http://www.w3.org/2000/svg">
<rect width="155" height="44" rx="4" fill="#5F0080"/>
<path d="M62.8594 22.3281H49.9531V23.7188H55.6875V26.3125H57.4062V23.7188H62.8594V22.3281ZM51.5156 29.1094H61.4375V27.7031H53.25V25.0156H51.5156V29.1094ZM51.5938 21.0156H61.2031V15.9062H51.5938V21.0156ZM53.2812 19.6562V17.2656H59.4844V19.6562H53.2812ZM68.375 16.25C66.1562 16.2422 64.4922 17.6562 64.5 19.6562C64.4922 21.6641 66.1562 23.0703 68.375 23.0781C70.6172 23.0703 72.25 21.6641 72.2656 19.6562C72.25 17.6562 70.6172 16.2422 68.375 16.25ZM63.8594 25.0312L64.0781 26.4531C66.5703 26.4531 69.9609 26.4297 73.125 25.8281L72.9844 24.5625C69.9297 25 66.4062 25.0312 63.8594 25.0312ZM66.2188 19.6562C66.2109 18.4844 67.1406 17.75 68.375 17.75C69.6328 17.75 70.5547 18.4844 70.5625 19.6562C70.5547 20.8359 69.625 21.5625 68.375 21.5625C67.1406 21.5625 66.2109 20.8359 66.2188 19.6562ZM73.8281 29.4062H75.5625V15.2656H73.8281V29.4062ZM88.6875 15.2656H86.9688V29.3906H88.6875V22.3281H90.8594V20.8906H88.6875V15.2656ZM77.5469 18.8281H85.875V17.4375H82.625V15.4688H80.8906V17.4375H77.5469V18.8281ZM78.2031 23.0781C78.1875 25.0234 79.7031 26.3906 81.7656 26.3906C83.7969 26.3906 85.3047 25.0234 85.3125 23.0781C85.3047 21.125 83.7969 19.7422 81.7656 19.75C79.7031 19.7422 78.1875 21.125 78.2031 23.0781ZM79.8594 23.0781C79.8516 21.9297 80.6562 21.1719 81.7656 21.1719C82.8516 21.1719 83.6406 21.9297 83.6562 23.0781C83.6406 24.2266 82.8516 24.9609 81.7656 24.9531C80.6562 24.9609 79.8516 24.2266 79.8594 23.0781ZM103.25 15.2656H101.5V29.3906H103.25V15.2656ZM91.5469 25.5L92.4531 26.8906C97.3984 24.5391 99.0312 20.9688 99.0312 16.7656H92.2656V18.1406H97.2656C96.9531 21.3516 95.25 23.7422 91.5469 25.5Z" fill="white"/>
</svg>
