<svg width="560" height="480" viewBox="0 0 560 480" fill="none" xmlns="http://www.w3.org/2000/svg">
<mask id="path-1-inside-1_45_1097" fill="white">
<path d="M0 0H560V90H0V0Z"/>
</mask>
<path d="M0 1H560V-1H0V1ZM560 89H0V91H560V89Z" fill="#E1E1E1" mask="url(#path-1-inside-1_45_1097)"/>
<path d="M5.91063 24.4197H4.67986V31.4762H8.84105V24.4197H7.63372V26.8696H5.91063V24.4197ZM5.91063 30.4212V27.9011H7.63372V30.4212H5.91063ZM9.88428 33.5275H11.1151V28.6161H12.2403V34.0432H13.4946V23.4468H12.2403V27.5377H11.1151V23.6344H9.88428V33.5275ZM20.1876 27.186H18.8983V28.5692H14.7253V29.6124H24.384V28.5692H20.1876V27.186ZM15.2528 26.7641L15.7217 27.7839C17.4682 27.5201 18.8514 26.7289 19.5312 25.6212C20.2052 26.7348 21.5942 27.5201 23.3291 27.7839L23.8331 26.7641C21.6235 26.4886 20.1994 25.3164 20.1994 24.0212V23.6227H18.8748V24.0212C18.8748 25.2871 17.4389 26.4886 15.2528 26.7641ZM15.8506 32.1678C15.8506 33.3692 17.2279 34.0315 19.5429 34.0315C21.8404 34.0315 23.206 33.3692 23.2118 32.1678C23.206 30.978 21.8404 30.2982 19.5429 30.304C17.2279 30.2982 15.8506 30.978 15.8506 32.1678ZM17.1752 32.1678C17.1693 31.5875 17.984 31.3004 19.5429 31.3004C21.0726 31.3004 21.899 31.5875 21.9107 32.1678C21.899 32.748 21.0726 33.0469 19.5429 33.0469C17.984 33.0469 17.1693 32.748 17.1752 32.1678Z" fill="#6B6B6B"/>
<path d="M137.413 19.4586H136.17V22.0725H135.115V19.6578H133.896V25.6593H135.115V23.1392H136.17V26.6322H137.413V19.4586ZM128.258 24.5692L128.961 25.5655C129.975 25.1377 130.667 24.323 131.053 23.3677C131.434 24.1883 132.097 24.8564 133.029 25.2256L133.72 24.2293C132.331 23.6842 131.663 22.5414 131.657 21.4161V20.0915H130.403V21.4161C130.397 22.6175 129.717 23.9304 128.258 24.5692ZM129.723 28.9766L130.192 29.9846C131.88 29.7443 133.193 28.9883 133.855 27.9392C134.506 28.9883 135.818 29.7443 137.506 29.9846L137.987 28.9766C135.848 28.6952 134.506 27.5465 134.506 26.3392V26.093H133.204V26.3392C133.204 27.5465 131.845 28.6952 129.723 28.9766ZM147.599 19.4468H146.298V20.8534H144.164V19.9157H142.875V21.252H140.507V19.9157H139.206V24.5809H144.164V23.7721H146.298V24.9209H147.599V19.4468ZM140.507 23.5494V22.2483H142.875V23.5494H140.507ZM140.613 26.3743H146.298V27.1128H140.624V29.9143H147.939V28.8828H141.925V28.074H147.599V25.3546H140.613V26.3743ZM144.164 22.7758V21.8381H146.298V22.7758H144.164ZM150.658 20.4197H149.427V27.4762H153.588V20.4197H152.381V22.8696H150.658V20.4197ZM150.658 26.4212V23.9011H152.381V26.4212H150.658ZM154.632 29.5275H155.862V24.6161H156.988V30.0432H158.242V19.4468H156.988V23.5377H155.862V19.6344H154.632V29.5275ZM164.935 23.186H163.646V24.5692H159.473V25.6124H169.131V24.5692H164.935V23.186ZM160 22.7641L160.469 23.7839C162.216 23.5201 163.599 22.7289 164.279 21.6212C164.953 22.7348 166.342 23.5201 168.076 23.7839L168.58 22.7641C166.371 22.4886 164.947 21.3164 164.947 20.0212V19.6227H163.622V20.0212C163.622 21.2871 162.186 22.4886 160 22.7641ZM160.598 28.1678C160.598 29.3692 161.975 30.0315 164.29 30.0315C166.588 30.0315 167.953 29.3692 167.959 28.1678C167.953 26.978 166.588 26.2982 164.29 26.304C161.975 26.2982 160.598 26.978 160.598 28.1678ZM161.923 28.1678C161.917 27.5875 162.731 27.3004 164.29 27.3004C165.82 27.3004 166.646 27.5875 166.658 28.1678C166.646 28.748 165.82 29.0469 164.29 29.0469C162.731 29.0469 161.917 28.748 161.923 28.1678Z" fill="#6B6B6B"/>
<path d="M128.703 51H134.599V49.7223H130.825V49.6637L132.337 48.1634C134.007 46.5868 134.465 45.8132 134.47 44.8578C134.465 43.4337 133.298 42.3963 131.563 42.3963C129.87 42.3963 128.662 43.4395 128.668 45.0454H130.122C130.116 44.1838 130.678 43.6388 131.552 43.6388C132.378 43.6388 133.005 44.137 133.005 44.9282C133.005 45.6432 132.56 46.1472 131.704 47.0029L128.703 49.8982V51ZM139.018 51.1172C140.853 51.1172 142.195 50.0798 142.183 48.6439C142.195 47.5773 141.515 46.8095 140.319 46.6513V46.5809C141.245 46.3875 141.878 45.7018 141.867 44.7523C141.878 43.4512 140.765 42.3963 139.042 42.3963C137.383 42.3963 136.088 43.375 136.053 44.7992H137.518C137.547 44.0842 138.233 43.6388 139.03 43.6388C139.856 43.6388 140.396 44.1194 140.39 44.8344C140.396 45.5729 139.769 46.0769 138.866 46.0769H138.104V47.2491H138.866C139.968 47.2549 140.624 47.8 140.624 48.5619C140.624 49.3179 139.95 49.8337 139.018 49.8278C138.133 49.8337 137.454 49.3824 137.413 48.7026H135.877C135.912 50.1326 137.207 51.1172 139.018 51.1172ZM147.177 43.9904V42.3025H145.852V43.9904C145.846 46.0359 144.815 48.0579 143.051 48.8198L143.848 49.9099C145.131 49.3062 146.046 48.0872 146.532 46.5985C147.024 47.9817 147.915 49.1011 149.134 49.6637L149.908 48.6205C148.191 47.882 147.165 45.9362 147.177 43.9904ZM150.67 52.055H151.983V41.4468H150.67V52.055ZM165.263 41.4586H163.962V44.26H162.087V45.315H163.962V49.1949H165.263V41.4586ZM156.366 46.9091L157.035 47.9641C158.289 47.5304 159.174 46.6395 159.637 45.526C160.1 46.5282 160.938 47.337 162.122 47.7414L162.778 46.6981C161.137 46.1589 160.282 44.8403 160.282 43.5685V43.2754H162.473V42.2205H156.753V43.2754H158.957V43.5567C158.957 44.9692 158.054 46.3524 156.366 46.9091ZM158.312 51.8322H165.533V50.7773H159.613V48.515H158.312V51.8322ZM179.271 47.3546H169.612V48.4095H173.773V52.0315H175.063V48.4095H179.271V47.3546ZM170.116 45.6197L170.608 46.6395C172.396 46.3817 173.791 45.5553 174.441 44.4124C175.086 45.5553 176.493 46.3817 178.298 46.6395L178.767 45.6197C176.668 45.356 175.285 44.2366 175.197 43.0761H178.38V42.0446H170.503V43.0761H173.685C173.591 44.2366 172.197 45.356 170.116 45.6197ZM189.656 46.745H179.974V47.7883H184.276V49.7341H185.565V47.7883H189.656V46.745ZM181.146 51.8322H188.589V50.7773H182.447V48.7612H181.146V51.8322ZM181.205 45.7604H188.414V41.9274H181.205V45.7604ZM182.471 44.7406V42.9472H187.124V44.7406H182.471ZM197.217 43.9904V42.3025H195.892V43.9904C195.886 46.0359 194.855 48.0579 193.09 48.8198L193.888 49.9099C195.171 49.3062 196.085 48.0872 196.572 46.5985C197.064 47.9817 197.955 49.1011 199.174 49.6637L199.948 48.6205C198.23 47.882 197.205 45.9362 197.217 43.9904ZM200.71 52.055H202.022V41.4468H200.71V52.055ZM215.526 41.4468H214.272V45.6197H213.099V41.6461H211.88V51.504H213.099V46.6864H214.272V52.0432H215.526V41.4468ZM206.887 49.4059H207.59C208.71 49.4059 209.923 49.3297 211.353 49.0776L211.224 47.9406C210.11 48.1575 209.114 48.2395 208.2 48.2571V42.6659H206.887V49.4059ZM219.804 41.7868C218.187 41.7926 216.991 42.7831 216.991 44.178C216.991 45.5787 218.187 46.5633 219.804 46.5692C221.41 46.5633 222.606 45.5787 222.617 44.178C222.606 42.7831 221.41 41.7926 219.804 41.7868ZM218.257 44.178C218.257 43.375 218.913 42.8593 219.804 42.8652C220.695 42.8593 221.346 43.375 221.351 44.178C221.346 44.9985 220.695 45.5143 219.804 45.5143C218.913 45.5143 218.257 44.9985 218.257 44.178ZM218.597 48.2806H224.329V49.0659H218.62V51.9143H225.946V50.8828H219.898V50.0271H225.63V47.2608H218.597V48.2806ZM224.317 46.8036H225.63V41.4468H224.317V46.8036ZM232.874 42.2205C231.262 42.2205 230.113 43.674 230.119 45.9597C230.113 48.263 231.262 49.7106 232.874 49.7106C234.468 49.7106 235.617 48.263 235.628 45.9597C235.617 43.674 234.468 42.2205 232.874 42.2205ZM231.373 45.9597C231.368 44.3421 231.983 43.3926 232.874 43.3926C233.771 43.3926 234.368 44.3421 234.374 45.9597C234.368 47.589 233.771 48.5326 232.874 48.5384C231.983 48.5326 231.368 47.589 231.373 45.9597ZM237.023 52.0432H238.324V46.6161H239.954V45.5143H238.324V41.4468H237.023V52.0432ZM246.682 42.5721H244.431V41.4117H243.119V42.5721H240.856V43.6036H243.119C243.113 44.8696 242.21 46.0945 240.54 46.6044L241.149 47.6007C242.415 47.2256 243.318 46.4227 243.798 45.397C244.297 46.3348 245.193 47.0615 246.436 47.4014L247.045 46.3817C245.352 45.9304 244.426 44.7816 244.42 43.6036H246.682V42.5721ZM242.193 51.9143H249.226V48.1634H242.193V51.9143ZM243.482 50.8593V49.2066H247.948V50.8593H243.482ZM247.913 47.6828H249.226V41.4586H247.913V47.6828ZM254.289 51H255.872L259.552 43.8146V42.5135H253.703V43.7912H257.97V43.8498L254.289 51ZM264.44 43.9904V42.3025H263.116V43.9904C263.11 46.0359 262.078 48.0579 260.314 48.8198L261.111 49.9099C262.395 49.3062 263.309 48.0872 263.796 46.5985C264.288 47.9817 265.179 49.1011 266.398 49.6637L267.172 48.6205C265.454 47.882 264.429 45.9362 264.44 43.9904ZM267.933 52.055H269.246V41.4468H267.933V52.055ZM282.527 41.4586H281.226V44.26H279.35V45.315H281.226V49.1949H282.527V41.4586ZM273.63 46.9091L274.298 47.9641C275.553 47.5304 276.437 46.6395 276.9 45.526C277.364 46.5282 278.202 47.337 279.385 47.7414L280.042 46.6981C278.401 46.1589 277.545 44.8403 277.545 43.5685V43.2754H279.737V42.2205H274.017V43.2754H276.221V43.5567C276.221 44.9692 275.318 46.3524 273.63 46.9091ZM275.576 51.8322H282.797V50.7773H276.877V48.515H275.576V51.8322ZM295.479 46.2644H289.349V43.2754H295.397V42.2322H288.048V47.2959H291.049V49.7223H286.876V50.789H296.558V49.7223H292.338V47.2959H295.479V46.2644ZM301.059 43.7443V43.6622H303.274V42.6307H301.071V41.4117H299.758V42.6307H297.542V43.6622H299.758V43.7443C299.758 45.0102 298.873 46.241 297.202 46.7216L297.835 47.7414C299.078 47.3663 299.957 46.5692 300.42 45.5553C300.901 46.4813 301.768 47.2139 302.981 47.5655L303.591 46.5223C301.915 46.0652 301.053 44.9047 301.059 43.7443ZM298.55 49.4527H304.306V52.055H305.607V48.4095H298.55V49.4527ZM304.306 47.9289H305.607V45.2329H307.084V44.1311H305.607V41.4468H304.306V47.9289ZM128.985 65.7648C128.985 67.9744 129.641 69.8088 130.743 71.3912H132.149C131.341 70.2191 130.532 67.863 130.532 65.7648C130.532 63.6666 131.341 61.3164 132.149 60.1501H130.743C129.641 61.7208 128.985 63.5611 128.985 65.7648ZM141.961 59.4468H140.718V63.5963H139.522V59.6461H138.327V69.504H139.522V64.6395H140.718V70.0432H141.961V59.4468ZM133.169 67.57H133.884C135.361 67.5582 136.469 67.5231 137.752 67.2652L137.659 66.1985C136.58 66.3978 135.631 66.4564 134.482 66.4681V61.756H137.131V60.7011H133.169V67.57ZM151.69 60.0915H144.352V61.1465H150.388C150.388 62.0901 150.377 63.1743 150.084 64.6161H143.215V65.671H147.352V70.055H148.665V65.671H152.873V64.6161H151.408C151.684 63.1157 151.684 62.0315 151.69 61.041V60.0915ZM166.107 65.6124H156.425V66.6439H160.598V70.0432H161.887V66.6439H166.107V65.6124ZM157.597 64.5106H164.935V59.8688H163.622V61.1699H158.887V59.8688H157.597V64.5106ZM158.887 63.4556V62.2014H163.622V63.4556H158.887ZM170.608 61.3223V60.1032H169.295V61.3106C169.295 62.8168 168.422 64.2351 166.682 64.8036L167.408 65.8351C168.645 65.4014 169.518 64.5223 169.987 63.397C170.45 64.4168 171.288 65.2139 172.46 65.6124L173.14 64.5809C171.476 64.0417 170.597 62.7113 170.608 61.3223ZM168.381 69.8322H175.59V68.7773H169.717V66.4681H168.381V69.8322ZM173.867 67.23H175.168V63.6784H176.645V62.5765H175.168V59.4468H173.867V67.23ZM184.85 59.5523C182.441 59.5582 181.029 60.2029 181.029 61.3692C181.029 62.5531 182.441 63.1919 184.85 63.1978C187.265 63.1919 188.666 62.5531 188.671 61.3692C188.666 60.2029 187.265 59.5582 184.85 59.5523ZM180.033 64.7685H184.194V65.5773H181.17V66.5384H187.206V67.2417H181.181V69.9495H188.777V68.9531H182.459V68.1678H188.484V65.5773H185.495V64.7685H189.691V63.7487H180.033V64.7685ZM182.4 61.3692C182.394 60.8241 183.238 60.5311 184.85 60.5252C186.485 60.5311 187.323 60.8241 187.323 61.3692C187.323 61.9553 186.485 62.2249 184.85 62.2366C183.238 62.2249 182.394 61.9553 182.4 61.3692ZM194.204 61.3223V60.1032H192.891V61.3106C192.891 62.8168 192.018 64.2351 190.277 64.8036L191.004 65.8351C192.241 65.4014 193.114 64.5223 193.583 63.397C194.046 64.4168 194.884 65.2139 196.056 65.6124L196.736 64.5809C195.071 64.0417 194.192 62.7113 194.204 61.3223ZM191.977 69.8322H199.186V68.7773H193.313V66.4681H191.977V69.8322ZM197.463 67.23H198.764V63.6784H200.241V62.5765H198.764V59.4468H197.463V67.23ZM212.689 59.4586H211.447V62.0725H210.392V59.6578H209.173V65.6593H210.392V63.1392H211.447V66.6322H212.689V59.4586ZM203.535 64.5692L204.238 65.5655C205.252 65.1377 205.943 64.323 206.33 63.3677C206.711 64.1883 207.373 64.8564 208.305 65.2256L208.997 64.2293C207.608 63.6842 206.94 62.5414 206.934 61.4161V60.0915H205.68V61.4161C205.674 62.6175 204.994 63.9304 203.535 64.5692ZM205 68.9766L205.469 69.9846C207.157 69.7443 208.469 68.9883 209.132 67.9392C209.782 68.9883 211.095 69.7443 212.783 69.9846L213.263 68.9766C211.124 68.6952 209.782 67.5465 209.782 66.3392V66.093H208.481V66.3392C208.481 67.5465 207.121 68.6952 205 68.9766ZM222.875 59.4468H221.574V60.8534H219.441V59.9157H218.151V61.252H215.784V59.9157H214.483V64.5809H219.441V63.7721H221.574V64.9209H222.875V59.4468ZM215.784 63.5494V62.2483H218.151V63.5494H215.784ZM215.889 66.3743H221.574V67.1128H215.901V69.9143H223.215V68.8828H217.202V68.074H222.875V65.3546H215.889V66.3743ZM219.441 62.7758V61.8381H221.574V62.7758H219.441ZM225.935 60.4197H224.704V67.4762H228.865V60.4197H227.658V62.8696H225.935V60.4197ZM225.935 66.4212V63.9011H227.658V66.4212H225.935ZM229.908 69.5275H231.139V64.6161H232.264V70.0432H233.519V59.4468H232.264V63.5377H231.139V59.6344H229.908V69.5275ZM240.212 63.186H238.922V64.5692H234.749V65.6124H244.408V64.5692H240.212V63.186ZM235.277 62.7641L235.746 63.7839C237.492 63.5201 238.875 62.7289 239.555 61.6212C240.229 62.7348 241.618 63.5201 243.353 63.7839L243.857 62.7641C241.648 62.4886 240.223 61.3164 240.223 60.0212V59.6227H238.899V60.0212C238.899 61.2871 237.463 62.4886 235.277 62.7641ZM235.875 68.1678C235.875 69.3692 237.252 70.0315 239.567 70.0315C241.864 70.0315 243.23 69.3692 243.236 68.1678C243.23 66.978 241.864 66.2982 239.567 66.304C237.252 66.2982 235.875 66.978 235.875 68.1678ZM237.199 68.1678C237.193 67.5875 238.008 67.3004 239.567 67.3004C241.097 67.3004 241.923 67.5875 241.935 68.1678C241.923 68.748 241.097 69.0469 239.567 69.0469C238.008 69.0469 237.193 68.748 237.199 68.1678ZM257.642 64.6864H247.96V65.7297H252.226V67.6755H253.551V65.7297H257.642V64.6864ZM248.991 61.8498C248.985 63.186 250.509 64.0124 252.789 64.0066C255.081 64.0124 256.587 63.186 256.587 61.8498C256.587 60.5194 255.081 59.6813 252.789 59.6813C250.509 59.6813 248.985 60.5194 248.991 61.8498ZM249.144 69.8322H256.575V68.7656H250.456V66.6908H249.144V69.8322ZM250.398 61.8498C250.386 61.123 251.336 60.7128 252.789 60.7128C254.254 60.7128 255.198 61.123 255.192 61.8498C255.198 62.5531 254.254 62.9633 252.789 62.9633C251.336 62.9633 250.386 62.5531 250.398 61.8498ZM261.287 60.0446C259.687 60.0388 258.486 61.1113 258.486 62.6117C258.486 64.1003 259.687 65.1729 261.287 65.167C262.137 65.1729 262.876 64.8564 263.38 64.3348H265.917V65.6828H267.218V59.4468H265.917V60.8886H263.385C262.887 60.3553 262.143 60.0388 261.287 60.0446ZM259.728 62.6117C259.728 61.715 260.379 61.1582 261.287 61.1582C262.166 61.1582 262.817 61.715 262.823 62.6117C262.817 63.4791 262.166 64.0652 261.287 64.0652C260.379 64.0652 259.728 63.4791 259.728 62.6117ZM260.033 67.9685C260.021 69.2696 261.41 70.0315 263.632 70.0315C265.859 70.0315 267.248 69.2696 267.254 67.9685C267.248 66.6615 265.859 65.8996 263.632 65.9055C261.41 65.8996 260.021 66.6615 260.033 67.9685ZM261.311 67.9685C261.299 67.2769 262.16 66.9077 263.632 66.9018C265.132 66.9077 265.976 67.2769 265.976 67.9685C265.976 68.6425 265.132 69.0059 263.632 69.0117C262.16 69.0059 261.299 68.6425 261.311 67.9685ZM263.971 61.9318H265.917V63.2798H263.977C264.03 63.0688 264.065 62.8461 264.065 62.6117C264.065 62.3714 264.03 62.1487 263.971 61.9318ZM272.728 61.9904V60.3025H271.403V61.9904C271.397 64.0359 270.366 66.0579 268.602 66.8198L269.399 67.9099C270.682 67.3062 271.596 66.0872 272.083 64.5985C272.575 65.9817 273.466 67.1011 274.685 67.6637L275.459 66.6205C273.742 65.882 272.716 63.9362 272.728 61.9904ZM276.221 70.055H277.533V59.4468H276.221V70.055ZM281.155 68.1678H279.667L279.057 71.4498H280.171L281.155 68.1678ZM279.479 63.6197C279.473 64.1238 279.89 64.534 280.394 64.534C280.88 64.534 281.296 64.1238 281.296 63.6197C281.296 63.1274 280.88 62.723 280.394 62.7172C279.89 62.723 279.473 63.1274 279.479 63.6197ZM290.72 59.4468H289.396V67.0894H290.72V63.5846H292.197V62.4945H290.72V59.4468ZM282.328 64.956L282.867 65.9875C286.002 65.0791 287.843 63.0688 287.837 60.2556H282.773V61.3223H286.413C286.19 62.934 284.754 64.2527 282.328 64.956ZM283.91 69.8322H291.119V68.7773H285.235V66.304H283.91V69.8322ZM304.458 59.4468H303.157V60.8534H301.024V59.9157H299.734V61.252H297.367V59.9157H296.065V64.5809H301.024V63.7721H303.157V64.9209H304.458V59.4468ZM297.367 63.5494V62.2483H299.734V63.5494H297.367ZM297.472 66.3743H303.157V67.1128H297.484V69.9143H304.798V68.8828H298.785V68.074H304.458V65.3546H297.472V66.3743ZM301.024 62.7758V61.8381H303.157V62.7758H301.024ZM314.562 64.2644H308.432V61.2754H314.48V60.2322H307.131V65.2959H310.131V67.7223H305.959V68.789H315.641V67.7223H311.421V65.2959H314.562V64.2644ZM327.573 59.4586H326.272V66.6205H327.573V63.6197H329.003V62.5414H327.573V59.4586ZM319.087 65.3546L319.227 66.3743C321.091 66.3743 323.57 66.3509 325.827 65.9524L325.721 65.0498C324.871 65.1611 323.963 65.2315 323.06 65.2784V64.6688C324.221 64.5165 324.948 63.9538 324.948 63.1274C324.948 62.1487 323.934 61.5509 322.392 61.5567C320.857 61.5509 319.831 62.1487 319.837 63.1274C319.831 63.9597 320.581 64.5282 321.759 64.6747V65.3253C320.804 65.3487 319.884 65.3546 319.087 65.3546ZM319.356 61.252H325.44V60.2908H323.06V59.3648H321.759V60.2908H319.356V61.252ZM320.423 68.0974H326.272V70.0432H327.573V67.0776H320.423V68.0974ZM321.091 63.1274C321.08 62.6644 321.572 62.43 322.392 62.4359C323.213 62.43 323.705 62.6644 323.705 63.1274C323.705 63.567 323.213 63.8425 322.392 63.8307C321.572 63.8425 321.08 63.567 321.091 63.1274ZM338.381 59.4586H337.068V67.1128H338.381V59.4586ZM329.742 62.7992C329.742 64.3641 330.99 65.4601 332.602 65.4601C334.214 65.4601 335.456 64.3641 335.45 62.7992C335.456 61.2578 334.214 60.156 332.602 60.1501C330.99 60.156 329.742 61.2578 329.742 62.7992ZM331.019 62.7992C331.014 61.8849 331.693 61.2871 332.602 61.2871C333.487 61.2871 334.173 61.8849 334.173 62.7992C334.173 63.737 333.487 64.323 332.602 64.323C331.693 64.323 331.014 63.737 331.019 62.7992ZM331.371 69.8322H338.674V68.7773H332.684V66.3392H331.371V69.8322ZM343.081 65.7648C343.081 63.5611 342.425 61.7208 341.323 60.1501H339.916C340.725 61.3164 341.534 63.6666 341.534 65.7648C341.534 67.863 340.725 70.2191 339.916 71.3912H341.323C342.425 69.8088 343.081 67.9744 343.081 65.7648Z" fill="#898989"/>
<mask id="path-6-inside-2_45_1097" fill="white">
<path d="M0 90H560V148H0V90Z"/>
</mask>
<path d="M560 147H0V149H560V147Z" fill="#E1E1E1" mask="url(#path-6-inside-2_45_1097)"/>
<path d="M10.318 114.373H4.60953V115.416H5.54726V118.71C5.11942 118.716 4.70916 118.722 4.32821 118.722L4.46887 119.777C6.26228 119.777 8.70039 119.736 10.8337 119.378L10.74 118.417C10.3063 118.47 9.85498 118.511 9.39197 118.552V115.416H10.318V114.373ZM5.92236 123.832H13.1312V122.777H7.22346V120.515H5.92236V123.832ZM6.80148 118.681V115.416H8.12603V118.628C7.68061 118.651 7.23518 118.669 6.80148 118.681ZM11.4081 121.253H12.7092V117.608H14.1861V116.518H12.7092V113.459H11.4081V121.253ZM23.8682 113.447H22.614V117.538H21.4887V113.634H20.258V123.527H21.4887V118.616H22.614V124.043H23.8682V113.447ZM15.0535 121.312H19.2147V114.596H15.0535V121.312ZM16.2726 120.281V115.627H17.9957V120.281H16.2726ZM28.8968 116.459V115.568H31.1122V114.49H25.2866V115.568H27.5957V116.459C27.5899 118.223 26.5642 120.204 24.8763 121.007L25.6382 122.027C26.8573 121.441 27.7833 120.199 28.2639 118.745C28.7386 120.07 29.6236 121.207 30.8192 121.769L31.5459 120.738C29.8756 119.958 28.891 118.094 28.8968 116.459ZM32.0969 124.043H33.398V118.663H35.0273V117.573H33.398V113.447H32.0969V124.043Z" fill="#6B6B6B"/>
<path d="M133.814 109.892H128.996V110.912H132.407C132.378 111.182 132.314 111.44 132.214 111.686L128.457 111.815L128.645 112.846L131.61 112.623C130.971 113.315 129.946 113.866 128.457 114.229L128.949 115.249C132.196 114.434 133.814 112.629 133.814 109.892ZM129.782 116.363H135.396V117.125H129.793V119.914H137.037V118.895H131.095V118.062H136.709V115.343H129.782V116.363ZM135.408 114.921H136.709V112.776H138.186V111.709H136.709V109.447H135.408V114.921ZM147.552 109.447H146.262V120.055H147.552V109.447ZM139.3 111.428H142.969V113.315H139.311V117.547H140.237C142.142 117.552 143.725 117.482 145.524 117.171L145.407 116.105C143.754 116.38 142.318 116.468 140.648 116.48V114.346H144.293V110.373H139.3V111.428Z" fill="#6B6B6B"/>
<mask id="path-10-inside-3_45_1097" fill="white">
<path d="M0 148H560V220H0V148Z"/>
</mask>
<path d="M560 219H0V221H560V219Z" fill="#E1E1E1" mask="url(#path-10-inside-3_45_1097)"/>
<path d="M14.0338 179.722H9.80223V177.636H13.1546V176.604H11.6425V173.44H13.1898V172.385H5.14872V173.44H6.67254V176.604H5.18389V177.636H8.51285V179.722H4.35165V180.812H14.0338V179.722ZM7.97365 176.604V173.44H10.3532V176.604H7.97365ZM18.5232 173.357V173.24H20.7268V172.185H14.9715V173.24H17.2103V173.369C17.2103 174.776 16.3136 176.153 14.6081 176.71L15.2645 177.741C16.5422 177.314 17.433 176.429 17.9019 175.315C18.3649 176.27 19.2089 177.026 20.3986 177.401L21.0199 176.382C19.3613 175.872 18.5232 174.653 18.5232 173.357ZM16.0499 180.004C16.0499 181.281 17.4213 182.032 19.6367 182.032C21.8345 182.032 23.1825 181.281 23.1884 180.004C23.1825 178.738 21.8345 177.999 19.6367 177.999C17.4213 177.999 16.0499 178.738 16.0499 180.004ZM17.351 180.004C17.351 179.359 18.1832 179.019 19.6367 179.019C21.0843 179.019 21.899 179.359 21.899 180.004C21.899 180.66 21.0843 181.006 19.6367 181.012C18.1832 181.006 17.351 180.66 17.351 180.004ZM21.7818 177.765H23.0829V175.057H24.5598V173.99H23.0829V171.447H21.7818V177.765ZM30.5379 172.361H25.5327V179.582H26.4119C28.3049 179.582 29.7349 179.529 31.3584 179.265L31.2412 178.21C29.7643 178.451 28.4866 178.521 26.8573 178.527V176.346H30.3503V175.315H26.8573V173.428H30.5379V172.361ZM32.0969 182.043H33.398V176.64H35.0273V175.549H33.398V171.447H32.0969V182.043ZM44.2991 171.447H42.9863V177.132H44.2991V171.447ZM35.6603 174.401C35.6603 175.848 36.8793 176.868 38.5203 176.862C40.1555 176.868 41.3746 175.848 41.3687 174.401C41.3746 172.93 40.1555 171.91 38.5203 171.916C36.8793 171.91 35.6603 172.93 35.6603 174.401ZM36.9379 174.401C36.9321 173.551 37.5943 173 38.5203 173.006C39.4288 173 40.0911 173.551 40.0911 174.401C40.0911 175.251 39.4288 175.79 38.5203 175.796C37.5943 175.79 36.9321 175.251 36.9379 174.401ZM37.2896 181.914H44.2991V177.624H42.998V178.714H38.579V177.624H37.2896V181.914ZM38.579 180.859V179.734H42.998V180.859H38.579Z" fill="#6B6B6B"/>
<path d="M132.103 169.135V168.009H130.801V169.018C130.796 170.53 129.94 171.942 128.234 172.534L128.938 173.554C130.157 173.126 131.012 172.241 131.47 171.116C131.933 172.1 132.753 172.874 133.896 173.261L134.599 172.241C132.964 171.725 132.103 170.465 132.103 169.135ZM129.676 176.015C129.676 177.299 131.053 178.032 133.263 178.032C135.455 178.032 136.809 177.299 136.815 176.015C136.809 174.761 135.455 174.017 133.263 174.023C131.053 174.017 129.676 174.761 129.676 176.015ZM130.977 176.015C130.977 175.394 131.81 175.042 133.263 175.042C134.711 175.042 135.525 175.394 135.525 176.015C135.525 176.672 134.711 177 133.263 177C131.81 177 130.977 176.672 130.977 176.015ZM135.408 173.788H136.709V171.104H138.186V170.026H136.709V167.447H135.408V173.788ZM148.384 172.968H144.199V172.03C146.133 171.889 147.358 171.116 147.364 169.885C147.358 168.555 145.852 167.74 143.543 167.74C141.228 167.74 139.722 168.555 139.722 169.885C139.722 171.116 140.947 171.889 142.887 172.03V172.968H138.725V174.023H148.384V172.968ZM139.921 177.832H147.294V176.777H141.222V174.749H139.921V177.832ZM141.081 169.885C141.07 169.188 142.002 168.777 143.543 168.771C145.09 168.777 146.016 169.188 146.016 169.885C146.016 170.618 145.09 171.004 143.543 170.998C142.002 171.004 141.07 170.618 141.081 169.885ZM152.58 173.765C152.58 175.974 153.237 177.809 154.339 179.391H155.745C154.936 178.219 154.128 175.863 154.128 173.765C154.128 171.667 154.936 169.316 155.745 168.15H154.339C153.237 169.721 152.58 171.561 152.58 173.765ZM161.899 171.233H160.61V172.581H156.437V173.636H166.095V172.581H161.899V171.233ZM156.894 170.788L157.351 171.807C159.273 171.608 160.68 170.858 161.254 169.791C161.829 170.858 163.247 171.608 165.169 171.807L165.638 170.788C163.663 170.594 162.391 169.82 162.175 168.959H165.228V167.916H157.316V168.959H160.34C160.123 169.826 158.851 170.594 156.894 170.788ZM157.562 176.168C157.562 177.369 158.939 178.032 161.254 178.032C163.552 178.032 164.917 177.369 164.923 176.168C164.917 174.978 163.552 174.316 161.254 174.316C158.939 174.316 157.562 174.978 157.562 176.168ZM158.887 176.168C158.881 175.605 159.695 175.318 161.254 175.312C162.784 175.318 163.61 175.605 163.622 176.168C163.61 176.748 162.784 177.047 161.254 177.047C159.695 177.047 158.881 176.748 158.887 176.168ZM175.625 167.447H174.312V178.055H175.625V167.447ZM167.15 171.96C167.145 174.263 168.311 175.711 169.917 175.711C171.505 175.711 172.677 174.263 172.683 171.96C172.677 169.674 171.505 168.22 169.917 168.22C168.311 168.22 167.145 169.674 167.15 171.96ZM168.405 171.96C168.405 170.342 169.02 169.393 169.917 169.393C170.808 169.393 171.417 170.342 171.417 171.96C171.417 173.589 170.808 174.533 169.917 174.538C169.02 174.533 168.405 173.589 168.405 171.96ZM186.866 175.722H182.635V173.636H185.987V172.604H184.475V169.44H186.022V168.385H177.981V169.44H179.505V172.604H178.016V173.636H181.345V175.722H177.184V176.812H186.866V175.722ZM180.806 172.604V169.44H183.186V172.604H180.806ZM191.356 169.357V169.24H193.559V168.185H187.804V169.24H190.043V169.369C190.043 170.776 189.146 172.153 187.441 172.71L188.097 173.741C189.375 173.314 190.266 172.429 190.734 171.315C191.197 172.27 192.041 173.026 193.231 173.401L193.852 172.382C192.194 171.872 191.356 170.653 191.356 169.357ZM188.882 176.004C188.882 177.281 190.254 178.032 192.469 178.032C194.667 178.032 196.015 177.281 196.021 176.004C196.015 174.738 194.667 173.999 192.469 173.999C190.254 173.999 188.882 174.738 188.882 176.004ZM190.184 176.004C190.184 175.359 191.016 175.019 192.469 175.019C193.917 175.019 194.732 175.359 194.732 176.004C194.732 176.66 193.917 177.006 192.469 177.012C191.016 177.006 190.184 176.66 190.184 176.004ZM194.614 173.765H195.915V171.057H197.392V169.99H195.915V167.447H194.614V173.765ZM201.085 173.765C201.085 171.561 200.428 169.721 199.326 168.15H197.92C198.729 169.316 199.537 171.667 199.537 173.765C199.537 175.863 198.729 178.219 197.92 179.391H199.326C200.428 177.809 201.085 175.974 201.085 173.765Z" fill="#6B6B6B"/>
<path d="M132.911 190.185H128.75V195.437H129.453C131.1 195.442 132.12 195.401 133.369 195.167L133.228 194.112C132.196 194.305 131.294 194.358 130.004 194.37V193.256H132.806V192.26H130.004V191.229H132.911V190.185ZM130.157 197.429H136.111V200.043H137.413V196.374H130.157V197.429ZM133.849 195.823H135.068V193.151H136.17V195.905H137.413V189.459H136.17V192.108H135.068V189.658H133.849V195.823ZM140.284 190.42H139.054V197.476H143.215V190.42H142.007V192.87H140.284V190.42ZM140.284 196.421V193.901H142.007V196.421H140.284ZM144.258 199.527H145.489V194.616H146.614V200.043H147.868V189.447H146.614V193.538H145.489V189.634H144.258V199.527ZM150.658 190.42H149.427V197.476H153.588V190.42H152.381V192.87H150.658V190.42ZM150.658 196.421V193.901H152.381V196.421H150.658ZM154.632 199.527H155.862V194.616H156.988V200.043H158.242V189.447H156.988V193.538H155.862V189.634H154.632V199.527ZM164.935 193.186H163.646V194.569H159.473V195.612H169.131V194.569H164.935V193.186ZM160 192.764L160.469 193.784C162.216 193.52 163.599 192.729 164.279 191.621C164.953 192.735 166.342 193.52 168.076 193.784L168.58 192.764C166.371 192.489 164.947 191.316 164.947 190.021V189.623H163.622V190.021C163.622 191.287 162.186 192.489 160 192.764ZM160.598 198.168C160.598 199.369 161.975 200.032 164.29 200.032C166.588 200.032 167.953 199.369 167.959 198.168C167.953 196.978 166.588 196.298 164.29 196.304C161.975 196.298 160.598 196.978 160.598 198.168ZM161.923 198.168C161.917 197.588 162.731 197.3 164.29 197.3C165.82 197.3 166.646 197.588 166.658 198.168C166.646 198.748 165.82 199.047 164.29 199.047C162.731 199.047 161.917 198.748 161.923 198.168ZM179.505 194.921H169.846V195.964H179.505V194.921ZM170.843 191.932C170.843 193.28 172.349 194.1 174.664 194.1C176.973 194.1 178.479 193.28 178.485 191.932C178.479 190.59 176.973 189.781 174.664 189.787C172.349 189.781 170.843 190.59 170.843 191.932ZM171.042 199.832H178.415V198.777H172.343V196.749H171.042V199.832ZM172.202 191.932C172.191 191.234 173.123 190.83 174.664 190.83C176.211 190.83 177.137 191.234 177.137 191.932C177.137 192.653 176.211 193.04 174.664 193.034C173.123 193.04 172.191 192.653 172.202 191.932ZM192.211 189.447H190.957V200.043H192.211V189.447ZM183.174 194.03C183.174 196.368 184.077 197.822 185.46 197.816C186.773 197.822 187.657 196.556 187.781 194.487H188.789V199.527H190.031V189.634H188.789V193.432H187.769C187.616 191.451 186.743 190.25 185.46 190.256C184.077 190.25 183.174 191.697 183.174 194.03ZM184.381 194.03C184.375 192.377 184.786 191.481 185.46 191.486C186.163 191.481 186.579 192.377 186.585 194.03C186.579 195.689 186.163 196.579 185.46 196.574C184.786 196.579 184.375 195.689 184.381 194.03ZM202.058 190.385H194.567V191.44H200.78C200.78 191.897 200.774 192.389 200.751 192.94L194.239 193.174L194.427 194.288L200.674 193.936C200.61 194.61 200.499 195.366 200.311 196.222L201.589 196.351C202.069 194.112 202.052 192.629 202.058 191.346V190.385ZM193.442 198.742H203.101V197.664H198.295V195.05H197.006V197.664H193.442V198.742ZM216.346 197.722H212.115V195.636H215.467V194.604H213.955V191.44H215.502V190.385H207.461V191.44H208.985V194.604H207.496V195.636H210.825V197.722H206.664V198.812H216.346V197.722ZM210.286 194.604V191.44H212.666V194.604H210.286ZM220.836 191.357V191.24H223.039V190.185H217.284V191.24H219.523V191.369C219.523 192.776 218.626 194.153 216.921 194.71L217.577 195.741C218.855 195.314 219.746 194.429 220.214 193.315C220.677 194.27 221.521 195.026 222.711 195.401L223.332 194.382C221.674 193.872 220.836 192.653 220.836 191.357ZM218.362 198.004C218.362 199.281 219.734 200.032 221.949 200.032C224.147 200.032 225.495 199.281 225.501 198.004C225.495 196.738 224.147 195.999 221.949 195.999C219.734 195.999 218.362 196.738 218.362 198.004ZM219.664 198.004C219.664 197.359 220.496 197.019 221.949 197.019C223.397 197.019 224.212 197.359 224.212 198.004C224.212 198.66 223.397 199.006 221.949 199.012C220.496 199.006 219.664 198.66 219.664 198.004ZM224.094 195.765H225.395V193.057H226.872V191.99H225.395V189.447H224.094V195.765ZM236.226 189.447H234.913V200.055H236.226V189.447ZM227.752 193.96C227.746 196.263 228.912 197.711 230.518 197.711C232.106 197.711 233.278 196.263 233.284 193.96C233.278 191.674 232.106 190.22 230.518 190.22C228.912 190.22 227.746 191.674 227.752 193.96ZM229.006 193.96C229.006 192.342 229.621 191.393 230.518 191.393C231.409 191.393 232.018 192.342 232.018 193.96C232.018 195.589 231.409 196.533 230.518 196.538C229.621 196.533 229.006 195.589 229.006 193.96ZM246.108 190.9V190.115H244.724V190.9C244.719 192.53 243.113 194.171 240.927 194.569L241.501 195.659C243.271 195.284 244.724 194.2 245.422 192.788C246.114 194.212 247.567 195.29 249.343 195.659L249.929 194.569C247.708 194.182 246.108 192.535 246.108 190.9ZM240.634 198.695H250.316V197.617H240.634V198.695ZM256.927 190.361H251.617V197.582H252.508C254.459 197.582 255.948 197.529 257.618 197.265L257.489 196.21C255.966 196.456 254.641 196.521 252.906 196.527V194.346H256.505V193.315H252.906V191.428H256.927V190.361ZM258.544 200.043H259.857V189.447H258.544V200.043ZM271.063 197.734H266.843V196.011H270.161V194.944H263.831V193.573H269.914V190.174H262.506V191.229H268.625V192.541H262.53V196.011H265.554V197.734H261.381V198.812H271.063V197.734ZM281.413 194.651H277.217V193.678H280.464V192.623H279.069V190.807H280.522V189.763H272.622V190.807H274.076V192.623H272.681V193.678H275.916V194.651H271.755V195.683H281.413V194.651ZM272.892 199.914H280.241V196.515H272.892V199.914ZM274.181 198.859V197.535H278.975V198.859H274.181ZM275.377 192.623V190.807H277.756V192.623H275.377ZM286.946 190.045C284.725 190.045 283.013 191.234 283.019 193.034C283.013 194.856 284.725 196.046 286.946 196.046C289.179 196.046 290.902 194.856 290.896 193.034C290.902 191.234 289.179 190.045 286.946 190.045ZM282.128 198.707H291.81V197.64H282.128V198.707ZM284.273 193.034C284.268 191.861 285.405 191.088 286.946 191.1C288.493 191.088 289.619 191.861 289.619 193.034C289.619 194.235 288.493 194.974 286.946 194.979C285.405 194.974 284.268 194.235 284.273 193.034ZM302.184 197.734H297.964V196.011H301.282V194.944H294.952V193.573H301.035V190.174H293.627V191.229H299.746V192.541H293.651V196.011H296.675V197.734H292.502V198.812H302.184V197.734ZM314.844 189.447H313.601V193.596H312.405V189.646H311.21V199.504H312.405V194.64H313.601V200.043H314.844V189.447ZM306.052 197.57H306.767C308.244 197.558 309.352 197.523 310.636 197.265L310.542 196.199C309.463 196.398 308.514 196.456 307.365 196.468V191.756H310.014V190.701H306.052V197.57ZM319.333 192.682V192.354H321.103V191.299H319.333V189.822H318.102V191.299H316.297V192.354H318.102V192.682C318.096 194.358 317.434 196.128 315.934 196.996L316.696 197.98C317.686 197.4 318.354 196.368 318.729 195.167C319.11 196.281 319.778 197.212 320.763 197.734L321.49 196.773C320.007 195.976 319.333 194.323 319.333 192.682ZM320.447 194.593H321.83V199.527H323.06V189.646H321.83V193.514H320.447V194.593ZM323.975 200.043H325.217V189.447H323.975V200.043ZM335.321 189.459H334.009V195.566H335.321V189.459ZM326.495 194.37L326.671 195.413C328.558 195.39 331.072 195.36 333.34 194.968L333.27 194.065C332.432 194.171 331.535 194.241 330.644 194.288V193.397H332.59V192.377H328.722V190.994H332.508V189.951H327.409V193.397H329.343V194.335C328.324 194.364 327.345 194.37 326.495 194.37ZM328.183 199.914H335.321V196.011H334.032V196.937H329.484V196.011H328.183V199.914ZM329.484 198.859V197.91H334.032V198.859H329.484ZM345.683 189.447H344.394V200.043H345.683V189.447ZM337.455 197.382H338.369C340.016 197.388 341.745 197.265 343.609 196.878L343.444 195.788C341.809 196.116 340.227 196.245 338.744 196.269V190.478H337.455V197.382ZM355.518 189.447H354.217V200.055H355.518V194.534H357.147V193.467H355.518V189.447ZM347.653 197.464H348.532C350.442 197.464 351.866 197.418 353.513 197.136L353.361 196.034C351.908 196.286 350.601 196.368 348.954 196.374V191.51H352.611V190.455H347.653V197.464ZM358.882 199.094C359.368 199.094 359.784 198.684 359.784 198.179C359.784 197.687 359.368 197.283 358.882 197.277C358.378 197.283 357.962 197.687 357.968 198.179C357.962 198.684 358.378 199.094 358.882 199.094Z" fill="#898989"/>
<mask id="path-15-inside-4_45_1097" fill="white">
<path d="M0 220H560V278H0V220Z"/>
</mask>
<path d="M560 277H0V279H560V277Z" fill="#E1E1E1" mask="url(#path-15-inside-4_45_1097)"/>
<path d="M10.318 244.373H4.60953V245.416H5.54726V248.71C5.11942 248.716 4.70916 248.722 4.32821 248.722L4.46887 249.777C6.26228 249.777 8.70039 249.736 10.8337 249.378L10.74 248.417C10.3063 248.47 9.85498 248.511 9.39197 248.552V245.416H10.318V244.373ZM5.92236 253.832H13.1312V252.777H7.22346V250.515H5.92236V253.832ZM6.80148 248.681V245.416H8.12603V248.628C7.68061 248.651 7.23518 248.669 6.80148 248.681ZM11.4081 251.253H12.7092V247.608H14.1861V246.518H12.7092V243.459H11.4081V251.253ZM23.8682 243.447H22.614V247.538H21.4887V243.634H20.258V253.527H21.4887V248.616H22.614V254.043H23.8682V243.447ZM15.0535 251.312H19.2147V244.596H15.0535V251.312ZM16.2726 250.281V245.627H17.9957V250.281H16.2726ZM33.4566 243.447H32.1555V251.113H33.4566V247.503H34.9452V246.424H33.4566V243.447ZM25.5444 249.319H26.4001C28.7152 249.319 29.9459 249.255 31.335 248.979L31.1943 247.925C29.9342 248.188 28.8265 248.253 26.8338 248.253V245.369H30.2917V244.326H25.5444V249.319ZM26.6697 253.832H33.8786V252.777H27.9708V250.304H26.6697V253.832ZM38.9306 243.916C37.3365 243.91 36.176 244.812 36.176 246.143C36.176 247.45 37.3365 248.364 38.9306 248.358C40.5423 248.364 41.7086 247.45 41.7086 246.143C41.7086 244.812 40.5423 243.91 38.9306 243.916ZM35.4844 249.085L35.6485 250.163C36.4456 250.157 37.3658 250.146 38.3445 250.105V253.715H39.6573V250.029C40.5834 249.958 41.5328 249.847 42.4471 249.671L42.3533 248.71C40.0735 249.05 37.3951 249.085 35.4844 249.085ZM37.442 246.143C37.4361 245.41 38.0632 244.959 38.9306 244.971C39.8332 244.959 40.4661 245.41 40.4661 246.143C40.4661 246.852 39.8332 247.297 38.9306 247.292C38.0632 247.297 37.4361 246.852 37.442 246.143ZM43.0449 254.032H44.3343V243.459H43.0449V254.032Z" fill="#6B6B6B"/>
<path d="M132.149 240.514H130.684L128.586 241.873V243.268L130.567 242.002H130.614V249H132.149V240.514ZM143.52 244.628H139.335V243.702H142.265V239.74H140.976V240.748H136.404V239.74H135.115V243.702H138.022V244.628H133.861V245.683H143.52V244.628ZM134.998 248.156C134.998 249.369 136.358 250.032 138.678 250.032C140.964 250.032 142.347 249.369 142.359 248.156C142.347 246.949 140.964 246.275 138.678 246.269C136.358 246.275 134.998 246.949 134.998 248.156ZM136.299 248.156C136.299 247.564 137.137 247.271 138.678 247.265C140.196 247.271 141.029 247.564 141.035 248.156C141.029 248.736 140.196 249.041 138.678 249.035C137.137 249.041 136.299 248.736 136.299 248.156ZM136.404 242.682V241.744H140.976V242.682H136.404Z" fill="#6B6B6B"/>
<mask id="path-19-inside-5_45_1097" fill="white">
<path d="M0 278H560V336H0V278Z"/>
</mask>
<path d="M560 335H0V337H560V335Z" fill="#E1E1E1" mask="url(#path-19-inside-5_45_1097)"/>
<path d="M14.0103 306.311H4.35165V307.366H8.52457V308.251C6.60221 308.374 5.47693 309.037 5.47693 310.133C5.47693 311.352 6.85423 312.032 9.16926 312.032C11.4491 312.032 12.8323 311.352 12.8381 310.133C12.8323 309.037 11.707 308.38 9.81395 308.257V307.366H14.0103V306.311ZM4.82052 304.799L5.26594 305.831C7.1883 305.631 8.5949 304.864 9.16926 303.791C9.74362 304.864 11.1678 305.631 13.096 305.831L13.5532 304.799C11.5605 304.618 10.3004 303.832 10.0894 302.959H13.1429V301.916H5.23078V302.959H8.25497C8.03812 303.826 6.76632 304.618 4.82052 304.799ZM6.80148 310.133C6.79562 309.547 7.62786 309.236 9.16926 309.23C10.6872 309.236 11.5253 309.547 11.537 310.133C11.5253 310.719 10.6872 311.041 9.16926 311.035C7.62786 311.041 6.79562 310.719 6.80148 310.133ZM24.5715 302.959H23.0829V301.459H21.7818V307.859H23.0829V306.276H24.5715V305.186H23.0829V304.037H24.5715V302.959ZM15.1239 303.135H18.6873V304.166H15.1356V307.331H16.003C18.0953 307.337 19.4785 307.278 21.055 306.991L20.9144 305.948C19.4726 306.188 18.2301 306.253 16.4367 306.264V305.151H19.9649V302.103H15.1239V303.135ZM16.0382 310.062C16.0323 311.305 17.4037 312.02 19.625 312.02C21.8111 312.02 23.1825 311.305 23.1884 310.062C23.1825 308.814 21.8111 308.064 19.625 308.058C17.4037 308.064 16.0323 308.814 16.0382 310.062ZM17.3158 310.062C17.31 309.423 18.1422 309.078 19.625 309.078C21.0843 309.078 21.899 309.423 21.899 310.062C21.899 310.695 21.0843 311.041 19.625 311.035C18.1422 311.041 17.31 310.695 17.3158 310.062ZM28.9203 302.115H27.6192L24.8763 312.278H26.1891L28.9203 302.115ZM39.0595 306.546H36.7738V305.204C37.5768 304.87 38.0339 304.336 38.0398 303.639C38.0339 302.367 36.5511 301.623 34.2185 301.623C31.88 301.623 30.3972 302.367 30.3972 303.639C30.3972 304.33 30.8485 304.864 31.6514 305.204V306.546H29.4009V307.589H39.0595V306.546ZM30.5262 310.121C30.5262 311.352 31.9035 312.02 34.2185 312.02C36.4984 312.02 37.8815 311.352 37.8874 310.121C37.8815 308.902 36.4984 308.222 34.2185 308.234C31.9035 308.222 30.5262 308.902 30.5262 310.121ZM31.7569 303.639C31.7452 302.988 32.6536 302.625 34.2185 302.631C35.7775 302.625 36.6918 302.988 36.6918 303.639C36.6918 304.283 35.7775 304.629 34.2185 304.623C32.6536 304.629 31.7452 304.283 31.7569 303.639ZM31.8507 310.121C31.8449 309.529 32.6771 309.224 34.2185 309.218C35.7364 309.224 36.5745 309.529 36.5863 310.121C36.5745 310.719 35.7364 311.041 34.2185 311.035C32.6771 311.041 31.8449 310.719 31.8507 310.121ZM32.9643 306.546V305.538C33.3452 305.59 33.7672 305.62 34.2185 305.62C34.6698 305.62 35.0918 305.59 35.4727 305.538V306.546H32.9643ZM49.6208 302.959H48.1321V301.459H46.831V307.859H48.1321V306.276H49.6208V305.186H48.1321V304.037H49.6208V302.959ZM40.1731 303.135H43.7365V304.166H40.1848V307.331H41.0522C43.1445 307.337 44.5277 307.278 46.1043 306.991L45.9636 305.948C44.5218 306.188 43.2793 306.253 41.4859 306.264V305.151H45.0142V302.103H40.1731V303.135ZM41.0874 310.062C41.0815 311.305 42.453 312.02 44.6742 312.02C46.8603 312.02 48.2318 311.305 48.2376 310.062C48.2318 308.814 46.8603 308.064 44.6742 308.058C42.453 308.064 41.0815 308.814 41.0874 310.062ZM42.3651 310.062C42.3592 309.423 43.1914 309.078 44.6742 309.078C46.1336 309.078 46.9482 309.423 46.9482 310.062C46.9482 310.695 46.1336 311.041 44.6742 311.035C43.1914 311.041 42.3592 310.695 42.3651 310.062Z" fill="#6B6B6B"/>
<path d="M132.149 298.514H130.684L128.586 299.873V301.268L130.567 300.002H130.614V307H132.149V298.514ZM134.212 307H140.108V305.722H136.334V305.664L137.846 304.163C139.517 302.587 139.974 301.813 139.98 300.858C139.974 299.434 138.807 298.396 137.073 298.396C135.379 298.396 134.171 299.44 134.177 301.045H135.631C135.625 300.184 136.188 299.639 137.061 299.639C137.887 299.639 138.514 300.137 138.514 300.928C138.514 301.643 138.069 302.147 137.213 303.003L134.212 305.898V307ZM144.528 307.117C146.362 307.117 147.704 306.08 147.692 304.644C147.704 303.577 147.024 302.809 145.829 302.651V302.581C146.755 302.388 147.388 301.702 147.376 300.752C147.388 299.451 146.274 298.396 144.551 298.396C142.892 298.396 141.597 299.375 141.562 300.799H143.027C143.056 300.084 143.742 299.639 144.539 299.639C145.366 299.639 145.905 300.119 145.899 300.834C145.905 301.573 145.278 302.077 144.375 302.077H143.613V303.249H144.375C145.477 303.255 146.133 303.8 146.133 304.562C146.133 305.318 145.459 305.834 144.528 305.828C143.643 305.834 142.963 305.382 142.922 304.703H141.386C141.421 306.133 142.717 307.117 144.528 307.117ZM151.818 309.52C153.536 309.52 154.796 308.735 154.796 307.105V300.635H153.319V301.678H153.248C153.014 301.227 152.539 300.553 151.42 300.553C149.943 300.553 148.783 301.672 148.783 303.765C148.783 305.84 149.937 306.906 151.408 306.906C152.504 306.906 153.014 306.32 153.248 305.851H153.319V307.07C153.319 308.002 152.739 308.389 151.842 308.395C151.074 308.389 150.553 308.131 150.447 307.574H148.958C149.058 308.77 150.131 309.52 151.818 309.52ZM150.306 303.788C150.306 302.628 150.822 301.778 151.818 301.772C152.791 301.778 153.331 302.575 153.331 303.788C153.331 305.007 152.785 305.734 151.818 305.734C150.834 305.734 150.306 304.96 150.306 303.788ZM159.109 303.284L159.016 301.596L160.434 302.522L160.926 301.667L159.426 300.905L160.926 300.131L160.434 299.275L159.016 300.201L159.109 298.514H158.113L158.207 300.201L156.788 299.275L156.284 300.131L157.797 300.905L156.284 301.667L156.788 302.522L158.207 301.596L158.113 303.284H159.109ZM161.723 305.418H165.838V307H167.291V305.418H168.405V304.163H167.291V298.514H165.392L161.723 304.199V305.418ZM163.282 304.163V304.105L165.767 300.248H165.861V304.163H163.282ZM178.931 302.628H174.746V301.702H177.676V297.74H176.387V298.748H171.816V297.74H170.526V301.702H173.433V302.628H169.272V303.683H178.931V302.628ZM170.409 306.156C170.409 307.369 171.769 308.032 174.09 308.032C176.375 308.032 177.759 307.369 177.77 306.156C177.759 304.949 176.375 304.275 174.09 304.269C171.769 304.275 170.409 304.949 170.409 306.156ZM171.71 306.156C171.71 305.564 172.548 305.271 174.09 305.265C175.608 305.271 176.44 305.564 176.446 306.156C176.44 306.736 175.608 307.041 174.09 307.035C172.548 307.041 171.71 306.736 171.71 306.156ZM171.816 300.682V299.744H176.387V300.682H171.816Z" fill="#6B6B6B"/>
<mask id="path-23-inside-6_45_1097" fill="white">
<path d="M0 336H560V394H0V336Z"/>
</mask>
<path d="M560 393H0V395H560V393Z" fill="#E1E1E1" mask="url(#path-23-inside-6_45_1097)"/>
<path d="M13.2367 359.459H11.9239V365.636H9.84912V366.55H11.9239V367.476H13.2367V359.459ZM4.30476 364.218L4.46887 365.261C5.30111 365.261 6.2447 365.255 7.23518 365.214V367.183H8.53629V365.144C9.433 365.079 10.3356 364.985 11.2088 364.839L11.1385 363.901C8.88794 364.188 6.25642 364.206 4.30476 364.218ZM5.11356 361.721C5.11356 362.858 6.19195 363.579 7.76266 363.585C9.30406 363.579 10.3883 362.858 10.4 361.721C10.3883 360.601 9.30406 359.84 7.76266 359.845C6.19195 359.84 5.11356 360.601 5.11356 361.721ZM5.71137 369.832H13.4828V368.777H7.01247V366.703H5.71137V369.832ZM6.34434 361.721C6.34434 361.146 6.91284 360.801 7.76266 360.807C8.57146 360.801 9.15168 361.146 9.15754 361.721C9.15168 362.295 8.57146 362.629 7.76266 362.635C6.91284 362.629 6.34434 362.295 6.34434 361.721ZM18.5232 361.322V360.103H17.2103V361.311C17.2103 362.817 16.3371 364.235 14.5964 364.804L15.3231 365.835C16.5598 365.401 17.433 364.522 17.9019 363.397C18.3649 364.417 19.203 365.214 20.3752 365.612L21.055 364.581C19.3906 364.042 18.5114 362.711 18.5232 361.322ZM16.296 369.832H23.5049V368.777H17.6323V366.468H16.296V369.832ZM21.7818 367.23H23.0829V363.678H24.5598V362.577H23.0829V359.447H21.7818V367.23ZM29.0961 362.459V361.568H31.417V360.49H25.439V361.568H27.7716V362.459C27.7657 364.259 26.7225 366.234 25.0521 367.007L25.8023 368.027C27.039 367.441 27.9708 366.222 28.4573 364.768C28.9437 366.116 29.858 367.224 31.1122 367.769L31.8273 366.738C30.1159 366.023 29.0961 364.194 29.0961 362.459ZM32.6009 370.043H33.9137V359.447H32.6009V370.043Z" fill="#6B6B6B"/>
<path d="M132.103 357.135V356.009H130.801V357.018C130.796 358.53 129.94 359.942 128.234 360.534L128.938 361.554C130.157 361.126 131.012 360.241 131.47 359.116C131.933 360.1 132.753 360.874 133.896 361.261L134.599 360.241C132.964 359.725 132.103 358.465 132.103 357.135ZM129.676 364.015C129.676 365.299 131.053 366.032 133.263 366.032C135.455 366.032 136.809 365.299 136.815 364.015C136.809 362.761 135.455 362.017 133.263 362.023C131.053 362.017 129.676 362.761 129.676 364.015ZM130.977 364.015C130.977 363.394 131.81 363.042 133.263 363.042C134.711 363.042 135.525 363.394 135.525 364.015C135.525 364.672 134.711 365 133.263 365C131.81 365 130.977 364.672 130.977 364.015ZM135.408 361.788H136.709V359.104H138.186V358.026H136.709V355.447H135.408V361.788ZM142.031 358.225V356.385H140.777V358.283C140.771 360.089 140.091 361.958 138.55 362.89L139.358 363.863C140.355 363.253 141.035 362.175 141.415 360.903C141.767 362.058 142.388 363.042 143.344 363.617L144.059 362.62C142.623 361.718 142.037 359.936 142.031 358.225ZM142.922 360.171H144.434V365.527H145.665V355.634H144.434V359.092H142.922V360.171ZM146.614 366.043H147.868V355.447H146.614V366.043ZM158.301 355.447H157.058V366.043H158.301V355.447ZM148.982 362.468L149.134 363.547C150.476 363.552 152.657 363.511 154.327 363.171L154.245 362.222C153.946 362.263 153.629 362.298 153.295 362.327V357.756H154.046V356.701H149.193V357.756H149.943V362.468H148.982ZM151.115 362.445V357.756H152.1V362.41C151.772 362.427 151.437 362.439 151.115 362.445ZM153.776 360.522H154.948V365.516H156.191V355.67H154.948V359.362H153.776V360.522ZM168.287 355.447H166.975V366.055H168.287V355.447ZM159.813 359.96C159.807 362.263 160.973 363.711 162.579 363.711C164.167 363.711 165.339 362.263 165.345 359.96C165.339 357.674 164.167 356.22 162.579 356.22C160.973 356.22 159.807 357.674 159.813 359.96ZM161.067 359.96C161.067 358.342 161.682 357.393 162.579 357.393C163.47 357.393 164.079 358.342 164.079 359.96C164.079 361.589 163.47 362.533 162.579 362.538C161.682 362.533 161.067 361.589 161.067 359.96ZM173.843 358.459V357.568H176.164V356.49H170.186V357.568H172.519V358.459C172.513 360.259 171.47 362.234 169.8 363.007L170.55 364.027C171.786 363.441 172.718 362.222 173.205 360.768C173.691 362.116 174.605 363.224 175.86 363.769L176.575 362.738C174.863 362.023 173.843 360.194 173.843 358.459ZM177.348 366.043H178.661V355.447H177.348V366.043ZM191.942 355.447H190.641V356.853H188.507V355.916H187.218V357.252H184.85V355.916H183.549V360.581H188.507V359.772H190.641V360.921H191.942V355.447ZM184.85 359.549V358.248H187.218V359.549H184.85ZM184.956 362.374H190.641V363.113H184.967V365.914H192.282V364.883H186.268V364.074H191.942V361.355H184.956V362.374ZM188.507 358.776V357.838H190.641V358.776H188.507ZM202.046 360.264H195.915V357.275H201.964V356.232H194.614V361.296H197.615V363.722H193.442V364.789H203.124V363.722H198.904V361.296H202.046V360.264ZM213.498 363.769H210.943V361.589H212.619V360.534H211.107V357.393H212.654V356.349H204.613V357.393H206.137V360.534H204.648V361.589H206.324V363.769H203.816V364.824H213.498V363.769ZM207.438 360.534V357.393H209.817V360.534H207.438ZM207.625 363.769V361.589H209.641V363.769H207.625ZM223.039 355.447H221.727V366.043H223.039V355.447ZM214.26 363.125L214.94 364.168C218.65 362.404 219.875 359.725 219.875 356.572H214.799V357.604H218.55C218.316 360.012 217.038 361.806 214.26 363.125Z" fill="#6B6B6B"/>
<mask id="path-27-inside-7_45_1097" fill="white">
<path d="M0 394H560V480H0V394Z"/>
</mask>
<path d="M560 479H0V481H560V479Z" fill="#E1E1E1" mask="url(#path-27-inside-7_45_1097)"/>
<path d="M12.7092 417.447H11.4081V422.768H12.7092V420.659H14.1861V419.58H12.7092V417.447ZM4.46887 420.178C4.46301 421.561 5.67034 422.552 7.28207 422.546C8.8938 422.552 10.0894 421.561 10.0953 420.178C10.0894 418.766 8.8938 417.798 7.28207 417.798C5.67034 417.798 4.46301 418.766 4.46887 420.178ZM5.74653 420.178C5.73481 419.375 6.38536 418.853 7.28207 418.853C8.17292 418.853 8.82347 419.375 8.82933 420.178C8.82347 420.981 8.17292 421.514 7.28207 421.514C6.38536 421.514 5.73481 420.981 5.74653 420.178ZM5.7817 424.234H11.4081V425.054H5.79342V427.914H13.0374V426.883H7.0828V426.004H12.7092V423.226H5.7817V424.234ZM18.8045 418.549H15.0301V419.592H17.5503V421.409H15.0418V425.511H15.7803C17.1107 425.505 18.3063 425.482 19.7305 425.218L19.625 424.152C18.4235 424.368 17.3862 424.415 16.296 424.427V422.44H18.8045V418.549ZM19.2733 422.194H20.4338V427.504H21.6646V417.67H20.4338V421.127H19.2733V422.194ZM22.6023 428.043H23.8448V417.447H22.6023V428.043ZM34.7811 425.722H25.099V426.789H34.7811V425.722ZM26.2243 419.252H32.343V420.565H26.2477V424.023H33.8786V422.991H27.5489V421.608H33.6324V418.197H26.2243V419.252ZM44.3226 417.447H43.0098V428.043H44.3226V417.447ZM35.543 425.125L36.2229 426.168C39.9328 424.404 41.1577 421.725 41.1577 418.572H36.0822V419.604H39.8332C39.5987 422.012 38.3211 423.806 35.543 425.125ZM54.7197 417.447H53.4186V420.084H51.6135V421.151H53.4186V423.741H54.7197V417.447ZM45.8112 422.686L46.4911 423.718C47.7512 423.273 48.6362 422.358 49.0992 421.233C49.568 422.229 50.4003 423.038 51.5783 423.437L52.2347 422.405C50.5937 421.854 49.738 420.553 49.738 419.264V419.193H51.9299V418.138H46.2098V419.193H48.4134V419.275C48.4134 420.676 47.5167 422.1 45.8112 422.686ZM47.5343 426.027C47.5226 427.299 48.8999 428.037 51.1329 428.043C53.3776 428.037 54.749 427.299 54.7549 426.027C54.749 424.755 53.3776 424.011 51.1329 424.011C48.8999 424.011 47.5226 424.755 47.5343 426.027ZM48.8237 426.027C48.8178 425.365 49.6618 425.007 51.1329 425.007C52.6157 425.007 53.4538 425.365 53.4538 426.027C53.4538 426.684 52.6157 427.041 51.1329 427.035C49.6618 427.041 48.8178 426.684 48.8237 426.027ZM65.9022 425.699H61.6824V423.636H64.8004V418.15H63.4992V419.885H58.5879V418.15H57.2868V423.636H60.393V425.699H56.2201V426.766H65.9022V425.699ZM58.5879 422.581V420.928H63.4992V422.581H58.5879Z" fill="#6B6B6B"/>
<path d="M132.454 418.909H128.738V419.835H132.454V418.909ZM142.523 413.529H141.644V417.725H140.108V413.763H139.265V423.41H140.108V418.487H141.644V423.949H142.523V413.529ZM134.002 421.371H134.67C136.27 421.365 137.33 421.324 138.585 421.066L138.503 420.292C137.342 420.527 136.352 420.579 134.916 420.585V415.568H137.905V414.807H134.002V421.371ZM152.299 417.432H146.239V414.912H152.158V414.15H145.301V418.171H152.299V417.432ZM143.977 420.304H148.267V423.914H149.169V420.304H153.518V419.554H143.977V420.304ZM156.073 422.215H154.936L154.292 425.403H155.159L156.073 422.215ZM165.884 414.115H160.997V418.358H165.884V414.115ZM161.899 417.631V414.865H164.982V417.631H161.899ZM162.274 420.163H168.135V421.23H162.286V423.832H169.413V423.082H163.2V421.91H169.038V419.425H162.274V420.163ZM168.135 418.909H169.038V413.529H168.135V418.909ZM172.531 422.215H171.394L170.749 425.403H171.616L172.531 422.215ZM180.794 418.686H179.868V420.908C178.813 420.937 177.811 420.937 176.961 420.937L177.09 421.722C178.966 421.705 181.527 421.699 183.912 421.253L183.842 420.585C182.863 420.732 181.82 420.82 180.794 420.873V418.686ZM177.149 418.358L177.63 419.085C178.896 418.651 179.886 417.755 180.349 416.559C180.83 417.637 181.808 418.452 183.033 418.851L183.49 418.112C181.92 417.643 180.8 416.453 180.794 415.018V414.267H179.857V415.029C179.857 416.577 178.755 417.837 177.149 418.358ZM184.534 423.973H185.448V413.529H184.534V423.973ZM195.634 414.584H188.285V415.346H194.708V415.627C194.702 416.875 194.702 418.335 194.31 420.327L195.247 420.433C195.622 418.335 195.622 416.905 195.634 415.627V414.584ZM187.277 422.473H196.771V421.711H191.907V417.983H191.004V421.711H187.277V422.473ZM206.266 413.529H205.34V423.949H206.266V413.529ZM197.779 421.242L198.283 421.992C201.776 420.316 203.171 417.661 203.183 414.666H198.26V415.416H202.245C202.04 417.907 200.598 419.905 197.779 421.242ZM219.183 413.529H218.269V419.812H219.183V417.092H220.754V416.307H219.183V413.529ZM211.06 415.404H217.272V414.642H214.623V413.447H213.709V414.642H211.06V415.404ZM211.658 417.772C211.652 418.903 212.654 419.636 214.166 419.636C215.661 419.636 216.663 418.903 216.675 417.772C216.663 416.659 215.661 415.92 214.166 415.92C212.654 415.92 211.652 416.659 211.658 417.772ZM212.537 417.772C212.531 417.092 213.181 416.635 214.166 416.635C215.139 416.635 215.795 417.092 215.807 417.772C215.795 418.481 215.139 418.921 214.166 418.933C213.181 418.921 212.531 418.481 212.537 417.772ZM212.607 423.809H219.183V420.41H212.607V423.809ZM213.51 423.059V421.148H218.269V423.059H213.51ZM230.94 419.472H221.398V420.234H223.872V423.949H224.821V420.234H227.494V423.949H228.42V420.234H230.94V419.472ZM222.477 416.225C222.483 417.614 223.954 418.481 226.146 418.475C228.332 418.481 229.815 417.614 229.815 416.225C229.815 414.836 228.332 413.957 226.146 413.951C223.954 413.957 222.483 414.836 222.477 416.225ZM223.426 416.225C223.414 415.299 224.522 414.701 226.146 414.701C227.769 414.701 228.871 415.299 228.877 416.225C228.871 417.145 227.769 417.737 226.146 417.737C224.522 417.737 223.414 417.145 223.426 416.225ZM132.454 436.909H128.738V437.835H132.454V436.909ZM142.535 431.529H141.656V441.949H142.535V431.529ZM133.603 439.031L134.166 439.699C136.135 438.521 137.278 436.962 137.782 435.198H139.546V437.05H137.612V437.812H139.546V441.422H140.425V431.81H139.546V434.436H137.963C138.057 433.926 138.104 433.398 138.104 432.865H134.072V433.627H137.19C137.008 435.807 135.871 437.689 133.603 439.031ZM152.135 431.541H151.221V439.207H152.135V435.526H153.717V434.741H152.135V431.541ZM144.434 432.994H148.255V434.471H144.457V437.589H145.266C147.206 437.595 148.601 437.536 150.271 437.249L150.177 436.487C148.554 436.757 147.212 436.839 145.36 436.827V435.198H149.158V432.22H144.434V432.994ZM145.676 441.727H152.627V440.953H146.614V438.62H145.676V441.727ZM156.073 440.215H154.936L154.292 443.403H155.159L156.073 440.215ZM169.975 437.507H160.434V438.281H164.724V441.949H165.627V438.281H169.975V437.507ZM161.512 434.248C161.518 435.637 162.989 436.516 165.181 436.511C167.367 436.516 168.85 435.637 168.85 434.248C168.85 432.836 167.367 431.957 165.181 431.951C162.989 431.957 161.518 432.836 161.512 434.248ZM162.462 434.248C162.45 433.305 163.558 432.701 165.181 432.701C166.805 432.701 167.906 433.305 167.912 434.248C167.906 435.174 166.805 435.772 165.181 435.772C163.558 435.772 162.45 435.174 162.462 434.248ZM180.349 437.472H170.808V438.234H173.281V441.949H174.23V438.234H176.903V441.949H177.829V438.234H180.349V437.472ZM171.886 434.225C171.892 435.614 173.363 436.481 175.555 436.475C177.741 436.481 179.224 435.614 179.224 434.225C179.224 432.836 177.741 431.957 175.555 431.951C173.363 431.957 171.892 432.836 171.886 434.225ZM172.835 434.225C172.824 433.299 173.931 432.701 175.555 432.701C177.178 432.701 178.28 433.299 178.286 434.225C178.28 435.145 177.178 435.737 175.555 435.737C173.931 435.737 172.824 435.145 172.835 434.225ZM182.904 440.215H181.767L181.123 443.403H181.99L182.904 440.215ZM191.649 432.748H187.663V439.148H191.649V436.229H193.231V441.422H194.11V431.752H193.231V435.467H191.649V432.748ZM188.531 438.41V433.486H190.781V438.41H188.531ZM195.318 441.949H196.208V431.529H195.318V441.949ZM203.089 432.115H198.201V436.358H203.089V432.115ZM199.104 435.631V432.865H202.187V435.631H199.104ZM199.479 438.163H205.34V439.23H199.491V441.832H206.617V441.082H200.405V439.91H206.242V437.425H199.479V438.163ZM205.34 436.909H206.242V431.529H205.34V436.909ZM209.735 440.215H208.598L207.954 443.403H208.821L209.735 440.215ZM222.442 431.541H221.516V437.812H222.442V435.057H223.825V434.283H222.442V431.541ZM214.506 436.991H214.963C215.602 436.985 216.405 436.974 217.39 436.768L217.296 435.971C216.581 436.147 215.924 436.2 215.385 436.212V433.123H217.108V432.373H214.506V436.991ZM215.549 439.945C215.549 441.205 216.88 441.926 219.042 441.926C221.205 441.926 222.529 441.205 222.535 439.945C222.529 438.703 221.205 437.976 219.042 437.976C216.88 437.976 215.549 438.703 215.549 439.945ZM216.475 439.945C216.464 439.166 217.448 438.703 219.042 438.703C220.631 438.703 221.609 439.166 221.609 439.945C221.609 440.725 220.631 441.193 219.042 441.199C217.448 441.193 216.464 440.725 216.475 439.945ZM217.741 436.968H218.257C219.312 436.956 220.033 436.933 220.976 436.722L220.871 435.948C220.103 436.13 219.453 436.171 218.62 436.171V433.123H220.507V432.373H217.741V436.968ZM233.976 436.698H229.287V435.233H228.361V436.698H224.493V437.448H233.976V436.698ZM225.36 433.92L225.489 434.717L231.831 434.418C231.795 434.875 231.731 435.379 231.62 435.948L232.534 436.03C232.798 434.641 232.798 433.615 232.804 432.748V431.951H225.618V432.701H231.889V432.748C231.889 433.053 231.883 433.369 231.872 433.715L225.36 433.92ZM225.63 440.109C225.624 441.275 226.966 441.926 229.228 441.926C231.467 441.926 232.804 441.275 232.815 440.109C232.804 438.937 231.467 438.281 229.228 438.281C226.966 438.281 225.624 438.937 225.63 440.109ZM226.568 440.109C226.556 439.406 227.558 439.013 229.228 439.007C230.881 439.013 231.883 439.406 231.889 440.109C231.883 440.807 230.881 441.199 229.228 441.199C227.558 441.199 226.556 440.807 226.568 440.109ZM236.566 440.215H235.429L234.785 443.403H235.652L236.566 440.215ZM249.296 432.584H241.946V433.346H248.37V433.627C248.364 434.875 248.364 436.335 247.971 438.327L248.909 438.433C249.284 436.335 249.284 434.905 249.296 433.627V432.584ZM240.938 440.473H250.433V439.711H245.568V435.983H244.666V439.711H240.938V440.473ZM260.818 436.487H251.312V437.261H260.818V436.487ZM252.461 440.051C252.455 441.258 253.809 441.926 256.059 441.926C258.292 441.926 259.634 441.258 259.646 440.051C259.634 438.855 258.292 438.175 256.059 438.175C253.809 438.175 252.455 438.855 252.461 440.051ZM252.519 435.491H259.705V434.741H253.422V432.724H259.634V431.951H252.519V435.491ZM253.399 440.051C253.387 439.324 254.389 438.902 256.059 438.89C257.712 438.902 258.714 439.324 258.72 440.051C258.714 440.783 257.712 441.199 256.059 441.199C254.389 441.199 253.387 440.783 253.399 440.051ZM264.487 432.338C262.946 432.344 261.867 433.756 261.873 435.971C261.867 438.193 262.946 439.599 264.487 439.593C265.941 439.599 266.984 438.322 267.084 436.276H269.41V441.973H270.325V431.529H269.41V435.514H267.072C266.931 433.563 265.906 432.344 264.487 432.338ZM262.752 435.971C262.758 434.278 263.462 433.164 264.487 433.158C265.507 433.164 266.222 434.278 266.222 435.971C266.222 437.665 265.507 438.779 264.487 438.773C263.462 438.779 262.758 437.665 262.752 435.971ZM273.771 440.215H272.634L271.989 443.403H272.857L273.771 440.215ZM287.063 431.529H286.184V441.949H287.063V431.529ZM278.155 439.031L278.694 439.699C280.147 438.843 281.155 437.771 281.783 436.557H283.992V441.422H284.871V431.81H283.992V435.807H282.123C282.48 434.881 282.644 433.891 282.644 432.865H278.6V433.627H281.73C281.554 435.807 280.417 437.689 278.155 439.031ZM290.228 440.215H289.091L288.446 443.403H289.314L290.228 440.215ZM294.471 438.914L294.612 439.687C296.024 439.693 298.257 439.64 299.98 439.347L299.934 438.679C299.271 438.755 298.509 438.814 297.742 438.849V436.792H299.559V436.03H295.937V433.357H299.465V432.596H295.034V436.792H296.851V438.878C295.978 438.908 295.139 438.914 294.471 438.914ZM300.414 441.399H301.27V436.628H302.571V441.949H303.462V431.529H302.571V435.878H301.27V431.763H300.414V441.399ZM308.701 434.729V433.369H311.186V432.607H305.314V433.369H307.775V434.729C307.77 436.534 306.468 438.503 304.974 439.218L305.525 439.945C306.715 439.347 307.77 438.023 308.256 436.493C308.742 437.935 309.792 439.136 311.011 439.687L311.526 438.96C309.991 438.298 308.707 436.499 308.701 434.729ZM312.64 441.949H313.566V431.529H312.64V441.949ZM323.705 432.584H316.356V433.346H322.779V433.627C322.773 434.875 322.773 436.335 322.381 438.327L323.318 438.433C323.693 436.335 323.693 434.905 323.705 433.627V432.584ZM315.348 440.473H324.842V439.711H319.978V435.983H319.075V439.711H315.348V440.473ZM334.337 431.529H333.411V441.949H334.337V431.529ZM325.85 439.242L326.354 439.992C329.847 438.316 331.242 435.661 331.254 432.666H326.331V433.416H330.316C330.111 435.907 328.669 437.905 325.85 439.242ZM337.806 440.215H336.669L336.025 443.403H336.892L337.806 440.215ZM345.297 434.471V432.514H344.406V434.53C344.412 436.317 343.515 438.175 342.061 439.007L342.659 439.687C343.696 439.066 344.47 437.9 344.857 436.534C345.232 437.788 345.953 438.855 346.961 439.429L347.512 438.703C346.123 437.952 345.297 436.182 345.297 434.471ZM347.899 441.422H348.79V436.487H350.22V441.949H351.11V431.529H350.22V435.725H348.79V431.752H347.899V441.422ZM362.082 437.507H352.541V438.281H356.831V441.949H357.733V438.281H362.082V437.507ZM353.619 434.248C353.625 435.637 355.096 436.516 357.288 436.511C359.474 436.516 360.957 435.637 360.957 434.248C360.957 432.836 359.474 431.957 357.288 431.951C355.096 431.957 353.625 432.836 353.619 434.248ZM354.568 434.248C354.557 433.305 355.664 432.701 357.288 432.701C358.911 432.701 360.013 433.305 360.019 434.248C360.013 435.174 358.911 435.772 357.288 435.772C355.664 435.772 354.557 435.174 354.568 434.248ZM364.637 440.215H363.5L362.856 443.403H363.723L364.637 440.215ZM378.504 436.921H374.214V435.667H377.262V431.775H376.347V432.982H371.19V431.775H370.275V435.667H373.3V436.921H369.009V437.683H378.504V436.921ZM370.064 439.453H376.406V441.949H377.332V438.714H370.064V439.453ZM371.19 434.928V433.686H376.347V434.928H371.19ZM384.611 432.174V431.681H383.662V432.174C383.662 433.504 381.78 434.618 379.922 434.87L380.274 435.585C381.88 435.35 383.474 434.535 384.136 433.363C384.799 434.53 386.387 435.35 387.999 435.585L388.339 434.87C386.504 434.635 384.605 433.475 384.611 432.174ZM379.383 437.132H383.662V438.245C381.686 438.333 380.526 438.978 380.532 440.086C380.526 441.275 381.868 441.926 384.13 441.926C386.363 441.926 387.706 441.275 387.717 440.086C387.706 438.978 386.539 438.327 384.576 438.245V437.132H388.878V436.37H379.383V437.132ZM381.47 440.086C381.458 439.377 382.46 438.96 384.13 438.949C385.783 438.96 386.785 439.377 386.791 440.086C386.785 440.795 385.783 441.217 384.13 441.211C382.46 441.217 381.458 440.795 381.47 440.086ZM392.547 432.338C390.999 432.344 389.915 433.756 389.921 435.971C389.915 438.193 390.999 439.599 392.547 439.593C394.082 439.599 395.172 438.193 395.184 435.971C395.172 433.756 394.082 432.344 392.547 432.338ZM390.788 435.971C390.794 434.278 391.515 433.164 392.547 433.158C393.59 433.164 394.293 434.278 394.293 435.971C394.293 437.665 393.59 438.779 392.547 438.773C391.515 438.779 390.794 437.665 390.788 435.971ZM396.907 441.949H397.821V436.487H399.568V435.69H397.821V431.529H396.907V441.949ZM401.842 440.215H400.705L400.06 443.403H400.928L401.842 440.215ZM414.654 436.956H408.383V435.385H414.314V434.635H408.383V433.146H414.536V432.385H407.445V437.706H410.504V439.886H406.214V440.648H415.756V439.886H411.418V437.706H414.654V436.956ZM421.827 432.584H417.021V439.3H421.827V432.584ZM417.912 438.55V433.322H420.913V438.55H417.912ZM423.738 441.949H424.652V436.487H426.399V435.69H424.652V431.529H423.738V441.949ZM435.401 436.956H429.13V435.385H435.061V434.635H429.13V433.146H435.284V432.385H428.192V437.706H431.252V439.886H426.961V440.648H436.503V439.886H432.166V437.706H435.401V436.956ZM439.046 440.215H437.909L437.265 443.403H438.132L439.046 440.215ZM446.208 432.338C444.661 432.344 443.577 433.756 443.583 435.971C443.577 438.193 444.661 439.599 446.208 439.593C447.744 439.599 448.834 438.193 448.846 435.971C448.834 433.756 447.744 432.344 446.208 432.338ZM444.45 435.971C444.456 434.278 445.177 433.164 446.208 433.158C447.252 433.164 447.955 434.278 447.955 435.971C447.955 437.665 447.252 438.779 446.208 438.773C445.177 438.779 444.456 437.665 444.45 435.971ZM450.569 441.949H451.483V436.487H453.23V435.69H451.483V431.529H450.569V441.949ZM461.927 431.541H461.001V438.609H461.927V435.456H463.486V434.682H461.927V431.541ZM453.745 437.39L453.851 438.128C455.697 438.134 458.194 438.099 460.439 437.706L460.357 437.062C459.442 437.19 458.458 437.273 457.485 437.319V436.522C458.698 436.411 459.454 435.878 459.466 435.057C459.454 434.125 458.499 433.58 457.016 433.58C455.533 433.58 454.572 434.125 454.578 435.057C454.572 435.883 455.345 436.417 456.57 436.528V437.355C455.556 437.39 454.578 437.39 453.745 437.39ZM454.003 433.146H460.04V432.431H457.485V431.447H456.57V432.431H454.003V433.146ZM455.14 440.344C455.135 441.381 456.389 441.938 458.563 441.949C460.732 441.938 461.992 441.381 461.998 440.344C461.992 439.3 460.732 438.726 458.563 438.738C456.389 438.726 455.135 439.3 455.14 440.344ZM455.457 435.057C455.451 434.553 456.055 434.219 457.016 434.225C457.977 434.219 458.587 434.553 458.587 435.057C458.587 435.579 457.977 435.901 457.016 435.901C456.055 435.901 455.451 435.579 455.457 435.057ZM456.066 440.344C456.055 439.758 456.957 439.418 458.563 439.429C460.157 439.418 461.054 439.758 461.06 440.344C461.054 440.906 460.157 441.246 458.563 441.246C456.957 441.246 456.055 440.906 456.066 440.344ZM467.671 433.498V432.174H466.768V433.463C466.762 435.081 465.719 436.493 464.131 437.05L464.635 437.788C465.866 437.314 466.809 436.358 467.249 435.116C467.712 436.218 468.632 437.097 469.816 437.53L470.285 436.792C468.749 436.259 467.665 434.934 467.671 433.498ZM465.807 441.727H472.793V440.953H466.745V438.492H465.807V441.727ZM471.398 439.23H472.313V435.514H473.883V434.729H472.313V431.529H471.398V439.23ZM484.069 437.753H474.528V438.492H477.025V441.949H477.951V438.492H480.647V441.949H481.561V438.492H484.069V437.753ZM475.677 432.701H481.971V433.897H475.7V436.675H483.132V435.913H476.626V434.612H482.909V431.939H475.677V432.701ZM486.625 440.215H485.488L484.843 443.403H485.711L486.625 440.215ZM499.999 433.076H496.19V431.705H495.287V433.076H491.466V433.838H499.999V433.076ZM490.997 440.73H500.538V439.968H496.19V438.503C498.03 438.404 499.173 437.683 499.167 436.511C499.173 435.274 497.842 434.541 495.744 434.553C493.617 434.541 492.31 435.274 492.322 436.511C492.31 437.683 493.429 438.404 495.287 438.503V439.968H490.997V440.73ZM493.248 436.511C493.236 435.737 494.191 435.28 495.744 435.28C497.28 435.28 498.235 435.737 498.229 436.511C498.235 437.302 497.28 437.759 495.744 437.765C494.191 437.759 493.236 437.302 493.248 436.511ZM509.681 435.432H503.621V432.912H509.541V432.15H502.684V436.171H509.681V435.432ZM501.359 438.304H505.649V441.914H506.552V438.304H510.9V437.554H501.359V438.304ZM513.456 440.215H512.319L511.674 443.403H512.541L513.456 440.215ZM521.356 433.51V433.111H523.7V432.349H518.074V433.111H520.454V433.51C520.442 435.034 519.369 436.364 517.793 436.909L518.273 437.659C519.516 437.202 520.471 436.264 520.917 435.069C521.362 436.136 522.27 436.979 523.478 437.39L523.935 436.651C522.382 436.141 521.362 434.875 521.356 433.51ZM518.836 441.176L519.199 441.903C520.747 441.615 522.183 440.824 522.821 439.623C523.443 440.824 524.873 441.615 526.42 441.903L526.795 441.176C524.949 440.865 523.261 439.775 523.267 438.269V438.011H522.352V438.269C522.352 439.775 520.67 440.865 518.836 441.176ZM525.06 438.585H525.974V435.209H527.545V434.436H525.974V431.529H525.06V438.585ZM529.913 440.215H528.776L528.131 443.403H528.999L529.913 440.215ZM539.396 432.185H534.766V436.593H535.575C537.72 436.599 538.991 436.522 540.486 436.229L540.369 435.479C538.945 435.772 537.714 435.842 535.668 435.854V432.947H539.396V432.185ZM535.352 438.316H537.872V439.312H535.375V441.809H535.985C537.679 441.815 538.499 441.797 539.56 441.574L539.454 440.871C538.505 441.047 537.725 441.094 536.266 441.094V439.98H538.763V437.601H535.352V438.316ZM539.22 438.327H541.517V441.867H542.432V437.601H539.22V438.327ZM541.517 437.132H542.432V434.752H544.002V433.99H542.432V431.529H541.517V437.132ZM553.016 432.584H545.667V433.346H552.09V433.627C552.085 434.875 552.085 436.335 551.692 438.327L552.63 438.433C553.005 436.335 553.005 434.905 553.016 433.627V432.584ZM544.659 440.473H554.153V439.711H549.289V435.983H548.386V439.711H544.659V440.473ZM137.037 449.529H136.111V459.949H137.037V449.529ZM128.551 457.242L129.055 457.992C132.548 456.316 133.943 453.661 133.955 450.666H129.032V451.416H133.017C132.812 453.907 131.37 455.905 128.551 457.242ZM140.507 458.215H139.37L138.725 461.403H139.593L140.507 458.215ZM149.627 450.209C147.417 450.22 145.817 451.299 145.817 452.94C145.817 454.487 147.2 455.513 149.169 455.653V457.84H144.879V458.613H154.421V457.84H150.072V455.653C152.053 455.519 153.436 454.493 153.436 452.94C153.436 451.299 151.842 450.22 149.627 450.209ZM146.708 452.94C146.702 451.762 147.939 450.965 149.627 450.971C151.314 450.965 152.545 451.762 152.545 452.94C152.545 454.141 151.314 454.921 149.627 454.933C147.939 454.921 146.702 454.141 146.708 452.94ZM163.857 449.541H162.942V455.835H163.857V449.541ZM155.417 454.874L155.898 455.601C157.14 455.144 158.113 454.194 158.564 452.993C159.039 454.077 160 454.921 161.208 455.319L161.676 454.593C160.117 454.094 159.01 452.852 159.004 451.451V451.111H161.407V450.349H155.64V451.111H158.078V451.451C158.072 452.957 156.976 454.317 155.417 454.874ZM156.859 458.027C156.853 459.275 158.189 459.996 160.375 459.996C162.556 459.996 163.88 459.275 163.892 458.027C163.88 456.785 162.556 456.064 160.375 456.07C158.189 456.064 156.853 456.785 156.859 458.027ZM157.785 458.027C157.785 457.265 158.758 456.802 160.375 456.808C161.987 456.802 162.977 457.265 162.977 458.027C162.977 458.801 161.987 459.264 160.375 459.258C158.758 459.264 157.785 458.801 157.785 458.027ZM168.428 450.338C166.887 450.344 165.808 451.756 165.814 453.971C165.808 456.193 166.887 457.599 168.428 457.593C169.882 457.599 170.925 456.322 171.024 454.276H173.351V459.973H174.265V449.529H173.351V453.514H171.013C170.872 451.563 169.846 450.344 168.428 450.338ZM166.693 453.971C166.699 452.278 167.402 451.164 168.428 451.158C169.448 451.164 170.163 452.278 170.163 453.971C170.163 455.665 169.448 456.779 168.428 456.773C167.402 456.779 166.699 455.665 166.693 453.971ZM177.712 458.215H176.575L175.93 461.403H176.797L177.712 458.215ZM191.625 457.84H187.312V455.308H186.386V457.84H182.084V458.613H191.625V457.84ZM182.553 454.933L182.94 455.671C184.504 455.349 186.181 454.311 186.849 452.852C187.517 454.294 189.199 455.308 190.793 455.624L191.168 454.897C189.369 454.604 187.318 453.174 187.312 451.51V451.252H190.805V450.478H182.869V451.252H186.362V451.51C186.362 453.174 184.317 454.634 182.553 454.933ZM201.354 449.529H200.452V453.737H199.01V449.81H198.131V459.434H199.01V454.499H200.452V459.949H201.354V449.529ZM192.469 457.066L193.008 457.711C196.003 456.04 196.935 453.538 196.947 450.889H192.868V451.651H196.044C195.886 453.807 194.89 455.712 192.469 457.066ZM212.361 455.753H202.819V456.492H205.316V459.949H206.242V456.492H208.938V459.949H209.852V456.492H212.361V455.753ZM203.968 450.701H210.263V451.897H203.992V454.675H211.423V453.913H204.918V452.612H211.2V449.939H203.968V450.701ZM213.85 455.765C213.861 457.98 214.459 459.821 215.538 461.391H216.428C215.637 460.225 214.899 457.857 214.893 455.765C214.899 453.678 215.637 451.305 216.428 450.15H215.538C214.459 451.715 213.861 453.555 213.85 455.765ZM225.583 449.963H218.503V450.713H224.669C224.675 451.387 224.663 452.196 224.44 453.315H217.296V454.042H221.586V455.401H218.433V456.14H224.704V457.242H218.444V459.832H225.888V459.082H219.37V457.91H225.618V455.401H222.488V454.042H226.837V453.315H225.366C225.583 452.201 225.583 451.305 225.583 450.631V449.963ZM229.381 458.215H228.244L227.599 461.403H228.467L229.381 458.215ZM242.392 449.541H241.466V452.424H239.321V453.186H241.466V457.183H242.392V449.541ZM233.8 455.097L234.28 455.847C235.517 455.384 236.478 454.429 236.93 453.221C237.381 454.3 238.289 455.173 239.461 455.601L239.942 454.862C238.418 454.341 237.375 453.034 237.375 451.686V451.146H239.708V450.385H234.093V451.146H236.449V451.686C236.449 453.18 235.335 454.557 233.8 455.097ZM235.699 459.727H242.685V458.953H236.625V456.492H235.699V459.727ZM253.621 454.921H249.331V453.667H252.379V449.775H251.464V450.982H246.307V449.775H245.393V453.667H248.417V454.921H244.127V455.683H253.621V454.921ZM245.182 457.453H251.523V459.949H252.449V456.714H245.182V457.453ZM246.307 452.928V451.686H251.464V452.928H246.307ZM256.212 458.215H255.075L254.43 461.403H255.297L256.212 458.215ZM265.331 456.749C263.022 456.744 261.727 457.3 261.733 458.355C261.727 459.387 263.022 459.926 265.331 459.926C267.617 459.926 268.906 459.387 268.918 458.355C268.906 457.3 267.617 456.744 265.331 456.749ZM260.584 456.093H270.078V455.355H265.788V454.54C267.658 454.47 268.707 453.966 268.707 453.069C268.707 452.078 267.488 451.574 265.331 451.568C263.169 451.574 261.944 452.078 261.944 453.069C261.944 453.966 262.999 454.47 264.874 454.54V455.355H260.584V456.093ZM261.076 451.146H269.528V450.408H265.788V449.388H264.874V450.408H261.076V451.146ZM262.67 458.355C262.676 457.763 263.637 457.441 265.331 457.441C267.019 457.441 267.98 457.763 267.98 458.355C267.98 458.924 267.019 459.24 265.331 459.234C263.637 459.24 262.676 458.924 262.67 458.355ZM262.928 453.069C262.922 452.518 263.802 452.219 265.331 452.225C266.861 452.219 267.728 452.518 267.734 453.069C267.728 453.585 266.861 453.883 265.331 453.889C263.802 453.883 262.922 453.585 262.928 453.069ZM279.104 449.529H278.19V455.589H279.104V452.987H280.675V452.201H279.104V449.529ZM270.981 451.369H277.194V450.607H274.544V449.435H273.63V450.607H270.981V451.369ZM271.579 453.678C271.573 454.792 272.575 455.513 274.087 455.507C275.582 455.513 276.584 454.792 276.596 453.678C276.584 452.565 275.582 451.856 274.087 451.85C272.575 451.856 271.573 452.565 271.579 453.678ZM272.458 453.678C272.452 453.004 273.103 452.553 274.087 452.565C275.06 452.553 275.717 453.004 275.728 453.678C275.717 454.358 275.06 454.804 274.087 454.804C273.103 454.804 272.452 454.358 272.458 453.678ZM272.517 459.809H279.104V456.046H278.19V457.16H273.431V456.046H272.517V459.809ZM273.431 459.07V457.886H278.19V459.07H273.431ZM293.885 457.875H289.525V455.472H292.947V454.733H291.318V451.311H292.971V450.549H285.188V451.311H286.84V454.733H285.211V455.472H288.622V457.875H284.344V458.66H293.885V457.875ZM287.755 454.733V451.311H290.416V454.733H287.755ZM302.864 449.529H301.95V455.812H302.864V453.092H304.435V452.307H302.864V449.529ZM294.741 451.404H300.953V450.642H298.304V449.447H297.39V450.642H294.741V451.404ZM295.339 453.772C295.333 454.903 296.335 455.636 297.847 455.636C299.342 455.636 300.344 454.903 300.356 453.772C300.344 452.659 299.342 451.92 297.847 451.92C296.335 451.92 295.333 452.659 295.339 453.772ZM296.218 453.772C296.212 453.092 296.863 452.635 297.847 452.635C298.82 452.635 299.476 453.092 299.488 453.772C299.476 454.481 298.82 454.921 297.847 454.933C296.863 454.921 296.212 454.481 296.218 453.772ZM296.288 459.809H302.864V456.41H296.288V459.809ZM297.191 459.059V457.148H301.95V459.059H297.191ZM307.693 455.765C307.682 453.555 307.084 451.715 306.005 450.15H305.115C305.906 451.305 306.644 453.678 306.65 455.765C306.644 457.857 305.906 460.225 305.115 461.391H306.005C307.084 459.821 307.682 457.98 307.693 455.765ZM318.712 454.37H309.17V455.097H318.712V454.37ZM310.319 456.62H316.602V457.511H310.331V459.809H317.856V459.141H311.257V458.144H317.516V455.929H310.319V456.62ZM310.378 450.514H316.555V451.369H310.413V453.585H317.669V452.916H311.327V452.002H317.481V449.845H310.378V450.514ZM326.061 452.33V450.431H325.159V452.33C325.147 454.235 323.94 456.234 322.416 456.984L323.002 457.722C324.174 457.095 325.159 455.777 325.622 454.241C326.085 455.689 327.046 456.925 328.195 457.523L328.757 456.785C327.274 456.058 326.061 454.165 326.061 452.33ZM329.718 459.949H330.633V454.557H332.379V453.76H330.633V449.529H329.718V459.949ZM342.436 454.686H340.08V453.215C340.901 452.887 341.364 452.36 341.37 451.662C341.364 450.437 339.957 449.734 337.689 449.728C335.403 449.734 333.997 450.437 333.997 451.662C333.997 452.366 334.466 452.893 335.298 453.215V454.686H332.942V455.448H342.436V454.686ZM334.091 458.086C334.085 459.275 335.427 459.926 337.689 459.926C339.922 459.926 341.264 459.275 341.276 458.086C341.264 456.896 339.922 456.24 337.689 456.245C335.427 456.24 334.085 456.896 334.091 458.086ZM334.946 451.662C334.94 450.912 335.984 450.455 337.689 450.455C339.377 450.455 340.426 450.912 340.432 451.662C340.426 452.424 339.377 452.864 337.689 452.87C335.984 452.864 334.94 452.424 334.946 451.662ZM335.028 458.086C335.017 457.377 336.019 456.96 337.689 456.949C339.342 456.96 340.344 457.377 340.35 458.086C340.344 458.795 339.342 459.217 337.689 459.211C336.019 459.217 335.017 458.795 335.028 458.086ZM336.212 454.686V453.467C336.652 453.544 337.144 453.585 337.689 453.585C338.234 453.585 338.726 453.544 339.166 453.462V454.686H336.212ZM351.462 449.541H350.548V457.347H351.462V453.749H353.033V452.975H351.462V449.541ZM343.339 451.568H349.551V450.818H346.902V449.541H345.988V450.818H343.339V451.568ZM343.937 454.089C343.931 455.261 344.939 456.017 346.445 456.011C347.934 456.017 348.942 455.261 348.954 454.089C348.942 452.905 347.934 452.143 346.445 452.143C344.939 452.143 343.931 452.905 343.937 454.089ZM344.816 454.089C344.81 453.344 345.461 452.864 346.445 452.87C347.418 452.864 348.075 453.344 348.086 454.089C348.075 454.821 347.418 455.296 346.445 455.284C345.461 455.296 344.81 454.821 344.816 454.089ZM344.945 459.727H351.943V458.953H345.847V456.726H344.945V459.727ZM365.61 449.529H364.731V459.949H365.61V449.529ZM356.573 457.171L357.159 457.863C358.202 457.212 358.958 455.988 359.333 454.552C359.697 455.876 360.423 457.001 361.449 457.617L362.012 456.937C360.576 456.105 359.761 454.305 359.761 452.506V451.522H361.672V450.76H356.866V451.522H358.87V452.506C358.876 454.399 358.026 456.304 356.573 457.171ZM360.875 454.042H362.633V459.41H363.5V449.787H362.633V453.292H360.875V454.042ZM376.57 454.569H367.075V455.331H371.366V456.562H368.236V459.809H375.409V456.562H372.268V455.331H376.57V454.569ZM367.966 450.631H369.572V452.823H368.001V453.585H375.632V452.823H374.061V450.631H375.667V449.869H367.966V450.631ZM369.15 459.059V457.289H374.507V459.059H369.15ZM370.486 452.823V450.631H373.147V452.823H370.486ZM383.228 450.689H377.93V451.44H382.302C382.308 452.272 382.284 453.538 381.997 455.284L382.923 455.366C383.222 453.432 383.222 452.055 383.228 451.229V450.689ZM377.344 456.89L377.461 457.652C379.325 457.664 381.774 457.617 383.966 457.277L383.919 456.585C382.835 456.714 381.651 456.79 380.497 456.831V453.667H379.594V456.861C378.791 456.878 378.029 456.884 377.344 456.89ZM384.576 459.949H385.49V454.686H387.178V453.889H385.49V449.529H384.576V459.949ZM398.982 449.529H398.067V455.108H398.982V452.729H400.552V451.967H398.982V449.529ZM390.87 454.557L391.257 455.308C394.328 454.604 396.174 452.875 396.18 450.267H391.316V451.018H395.161C395.008 452.659 393.519 453.971 390.87 454.557ZM392.382 459.809H399.275V459.094H393.308V458.015H398.911V457.312H393.308V456.281H399.029V455.577H392.382V459.809ZM410.703 455.026H401.209V455.777H410.703V455.026ZM402.264 451.967C402.264 453.262 403.694 454.042 405.956 454.042C408.195 454.042 409.631 453.262 409.637 451.967C409.631 450.66 408.195 449.892 405.956 449.904C403.694 449.892 402.264 450.66 402.264 451.967ZM402.44 459.727H409.649V458.953H403.366V456.691H402.44V459.727ZM403.213 451.967C403.207 451.152 404.274 450.642 405.956 450.642C407.627 450.642 408.693 451.152 408.699 451.967C408.693 452.793 407.627 453.292 405.956 453.292C404.274 453.292 403.207 452.793 403.213 451.967ZM423.504 449.529H422.624V459.949H423.504V449.529ZM414.466 457.171L415.052 457.863C416.095 457.212 416.851 455.988 417.227 454.552C417.59 455.876 418.317 457.001 419.342 457.617L419.905 456.937C418.469 456.105 417.654 454.305 417.654 452.506V451.522H419.565V450.76H414.759V451.522H416.764V452.506C416.769 454.399 415.92 456.304 414.466 457.171ZM418.768 454.042H420.526V459.41H421.394V449.787H420.526V453.292H418.768V454.042ZM434.51 457.84H430.197V455.308H429.271V457.84H424.969V458.613H434.51V457.84ZM425.438 454.933L425.824 455.671C427.389 455.349 429.065 454.311 429.734 452.852C430.402 454.294 432.084 455.308 433.678 455.624L434.053 454.897C432.254 454.604 430.202 453.174 430.197 451.51V451.252H433.69V450.478H425.754V451.252H429.247V451.51C429.247 453.174 427.202 454.634 425.438 454.933ZM439.047 452.33V450.431H438.132V452.33C438.12 454.305 436.837 456.298 435.284 457.007L435.87 457.781C437.089 457.166 438.115 455.847 438.595 454.276C439.093 455.759 440.119 456.996 441.309 457.57L441.871 456.843C440.336 456.146 439.041 454.235 439.047 452.33ZM443.008 459.973H443.934V449.529H443.008V459.973ZM454.355 449.529H453.429V451.451H451.108V452.213H453.429V454.921H454.355V449.529ZM445.704 454.206L446.208 454.944C447.439 454.499 448.383 453.59 448.828 452.401C449.291 453.456 450.211 454.276 451.366 454.686L451.858 453.971C450.334 453.473 449.256 452.219 449.268 450.853V449.869H448.365V450.853C448.354 452.377 447.275 453.684 445.704 454.206ZM447.603 456.187H453.441V457.23H447.627V459.809H454.742V459.07H448.529V457.933H454.355V455.448H447.603V456.187ZM465.022 449.529H464.131V459.949H465.022V449.529ZM456.219 454.03C456.225 456.245 457.104 457.658 458.458 457.652C459.741 457.658 460.614 456.386 460.702 454.358H462.044V459.422H462.924V449.752H462.044V453.596H460.696C460.579 451.633 459.724 450.414 458.458 450.408C457.104 450.414 456.225 451.815 456.219 454.03ZM457.086 454.03C457.074 452.336 457.614 451.275 458.458 451.275C459.307 451.275 459.847 452.336 459.841 454.03C459.847 455.718 459.307 456.785 458.458 456.773C457.614 456.785 457.074 455.718 457.086 454.03ZM470.132 452.33V450.431H469.195V452.33C469.189 454.253 467.981 456.257 466.452 457.007L467.05 457.746C468.233 457.119 469.212 455.782 469.675 454.223C470.138 455.706 471.117 456.949 472.301 457.558L472.852 456.808C471.34 456.116 470.127 454.218 470.132 452.33ZM471.715 453.842H474.188V459.973H475.102V449.529H474.188V453.092H471.715V453.842ZM488.758 449.529H487.879V459.949H488.758V449.529ZM479.721 457.171L480.307 457.863C481.35 457.212 482.106 455.988 482.481 454.552C482.845 455.876 483.571 457.001 484.597 457.617L485.16 456.937C483.724 456.105 482.909 454.305 482.909 452.506V451.522H484.82V450.76H480.014V451.522H482.018V452.506C482.024 454.399 481.174 456.304 479.721 457.171ZM484.023 454.042H485.781V459.41H486.648V449.787H485.781V453.292H484.023V454.042ZM499.765 457.84H495.451V455.308H494.525V457.84H490.223V458.613H499.765V457.84ZM490.692 454.933L491.079 455.671C492.644 455.349 494.32 454.311 494.988 452.852C495.656 454.294 497.338 455.308 498.933 455.624L499.308 454.897C497.508 454.604 495.457 453.174 495.451 451.51V451.252H498.944V450.478H491.009V451.252H494.502V451.51C494.502 453.174 492.456 454.634 490.692 454.933Z" fill="#6B6B6B"/>
</svg>
