<svg width="1050" height="58" viewBox="0 0 1050 58" fill="none" xmlns="http://www.w3.org/2000/svg">
<mask id="path-1-inside-1_61_3365" fill="white">
<path d="M0 0H1050V58H0V0Z"/>
</mask>
<path d="M1050 57H0V59H1050V57Z" fill="#E1E1E1" mask="url(#path-1-inside-1_61_3365)"/>
<rect x="20" y="20" width="37" height="18" rx="1" fill="#E1E1E1"/>
<path d="M33.1224 30.0696C30.8425 30.0754 29.3714 30.8022 29.3714 32.0623C29.3714 33.293 30.8425 34.0315 33.1224 34.0315C35.4257 34.0315 36.8792 33.293 36.885 32.0623C36.8792 30.8022 35.4257 30.0754 33.1224 30.0696ZM28.3751 29.3077H37.9869V28.2527H33.392V26.3304H32.1026V28.2527H28.3751V29.3077ZM29.4769 24.9824H35.5136C35.5136 25.7501 35.496 26.5003 35.2323 27.526L36.5217 27.6432C36.8206 26.5589 36.8206 25.6681 36.8147 24.83V23.9509H29.4769V24.9824ZM30.6843 32.0623C30.6725 31.4176 31.5927 31.0542 33.1224 31.0542C34.6579 31.0542 35.5839 31.4176 35.5956 32.0623C35.5839 32.6835 34.6579 33.0234 33.1224 33.0234C31.5927 33.0234 30.6725 32.6835 30.6843 32.0623ZM42.7224 26.4593V25.5685H45.0433V24.4901H39.0653V25.5685H41.3979V26.4593C41.392 28.2586 40.3488 30.2337 38.6785 31.0073L39.4286 32.0271C40.6653 31.441 41.5971 30.222 42.0836 28.7685C42.57 30.1165 43.4843 31.2242 44.7386 31.7692L45.4536 30.7377C43.7422 30.0227 42.7224 28.1941 42.7224 26.4593ZM46.2272 34.0432H47.54V23.4468H46.2272V34.0432Z" fill="#333333"/>
<path d="M88.7969 22.9531H79.0625V24.3438H87.0625C87.0625 25.375 87.0312 26.5312 86.6953 28.0625H77.4688V29.4688H90.375V28.0625H88.4531C88.8047 26.3984 88.8047 25.1484 88.7969 24.0469V22.9531ZM79.0156 36.2188H88.7812V31.1094H79.0156V36.2188ZM80.7188 34.8125V32.4688H87.0625V34.8125H80.7188ZM104.172 30.1406H91.2969V31.5469H96.8438V36.375H98.5625V31.5469H104.172V30.1406ZM91.9688 27.8281L92.625 29.1875C95.0078 28.8438 96.8672 27.7422 97.7344 26.2188C98.5938 27.7422 100.469 28.8438 102.875 29.1875L103.5 27.8281C100.703 27.4766 98.8594 25.9844 98.7422 24.4375H102.984V23.0625H92.4844V24.4375H96.7266C96.6016 25.9844 94.7422 27.4766 91.9688 27.8281ZM109.703 23.25C107.484 23.2422 105.82 24.6562 105.828 26.6562C105.82 28.6641 107.484 30.0703 109.703 30.0781C111.945 30.0703 113.578 28.6641 113.594 26.6562C113.578 24.6562 111.945 23.2422 109.703 23.25ZM105.188 32.0312L105.406 33.4531C107.898 33.4531 111.289 33.4297 114.453 32.8281L114.312 31.5625C111.258 32 107.734 32.0312 105.188 32.0312ZM107.547 26.6562C107.539 25.4844 108.469 24.75 109.703 24.75C110.961 24.75 111.883 25.4844 111.891 26.6562C111.883 27.8359 110.953 28.5625 109.703 28.5625C108.469 28.5625 107.539 27.8359 107.547 26.6562ZM115.156 36.4062H116.891V22.2656H115.156V36.4062ZM124.828 23.5938H123.188V32.9688H128.734V28.9219H130.375V35.7344H132.031V22.5312H130.375V27.4844H128.734V23.5938H127.156V26.9219H124.828V23.5938ZM124.828 31.5469V28.3125H127.156V31.5469H124.828ZM133.266 36.3906H134.938V22.2656H133.266V36.3906ZM143.875 24.2031V23.1562H142.031V24.2031C142.023 26.375 139.883 28.5625 136.969 29.0938L137.734 30.5469C140.094 30.0469 142.031 28.6016 142.961 26.7188C143.883 28.6172 145.82 30.0547 148.188 30.5469L148.969 29.0938C146.008 28.5781 143.875 26.3828 143.875 24.2031ZM136.578 34.5938H149.484V33.1562H136.578V34.5938ZM161.891 29.6719H153.75V27.8438H161.438V26.4844H153.75V24.7812H161.766V23.375H151.984V31.0469H161.891V29.6719ZM150.406 34.6719H163.312V33.25H150.406V34.6719ZM180.203 23.7812H175.312V22.2344H173.594V23.7812H168.672V25.1875H180.203V23.7812ZM168.031 32.8125H173.594V36.4062H175.312V32.8125H180.938V31.3906H168.031V32.8125ZM169.672 28.2188C169.672 29.7578 171.469 30.6094 174.453 30.6094C177.438 30.6094 179.234 29.7578 179.234 28.2188C179.234 26.6719 177.438 25.8281 174.453 25.8281C171.469 25.8281 169.672 26.6719 169.672 28.2188ZM171.484 28.2188C171.477 27.5 172.5 27.125 174.453 27.125C176.398 27.125 177.43 27.5 177.438 28.2188C177.43 28.9453 176.398 29.3203 174.453 29.3125C172.5 29.3203 171.477 28.9453 171.484 28.2188ZM193.656 22.2656H191.906V36.3906H193.656V22.2656ZM181.953 32.5L182.859 33.8906C187.805 31.5391 189.438 27.9688 189.438 23.7656H182.672V25.1406H187.672C187.359 28.3516 185.656 30.7422 181.953 32.5ZM210.625 22.2656H208.891V32.5938H210.625V27.8438H212.594V26.4062H210.625V22.2656ZM199.641 26.7656C199.633 28.8203 201.305 30.3125 203.453 30.3125C205.602 30.3125 207.25 28.8203 207.266 26.7656C207.25 24.6797 205.602 23.2109 203.453 23.2031C201.305 23.2109 199.633 24.6797 199.641 26.7656ZM201.344 26.7656C201.336 25.5156 202.273 24.7188 203.453 24.7188C204.648 24.7188 205.555 25.5156 205.562 26.7656C205.555 27.9844 204.648 28.7891 203.453 28.7812C202.273 28.7891 201.336 27.9844 201.344 26.7656ZM201.578 36.1094H211.188V34.7031H203.312V31.5156H201.578V36.1094ZM225.438 22.2656H223.766V27.8281H222.203V22.5312H220.578V35.6719H222.203V29.25H223.766V36.3906H225.438V22.2656ZM213.922 32.875H214.859C216.352 32.875 217.969 32.7734 219.875 32.4375L219.703 30.9219C218.219 31.2109 216.891 31.3203 215.672 31.3438V23.8906H213.922V32.875Z" fill="#333333"/>
</svg>
