<svg width="1050" height="58" viewBox="0 0 1050 58" fill="none" xmlns="http://www.w3.org/2000/svg">
<mask id="path-1-inside-1_61_3366" fill="white">
<path d="M0 0H1050V58H0V0Z"/>
</mask>
<path d="M1050 57H0V59H1050V57Z" fill="#E1E1E1" mask="url(#path-1-inside-1_61_3366)"/>
<rect x="20" y="20" width="37" height="18" rx="1" fill="#E1E1E1"/>
<path d="M33.1224 30.0696C30.8425 30.0754 29.3714 30.8022 29.3714 32.0623C29.3714 33.293 30.8425 34.0315 33.1224 34.0315C35.4257 34.0315 36.8792 33.293 36.885 32.0623C36.8792 30.8022 35.4257 30.0754 33.1224 30.0696ZM28.3751 29.3077H37.9869V28.2527H33.392V26.3304H32.1026V28.2527H28.3751V29.3077ZM29.4769 24.9824H35.5136C35.5136 25.7501 35.496 26.5003 35.2323 27.526L36.5217 27.6432C36.8206 26.5589 36.8206 25.6681 36.8147 24.83V23.9509H29.4769V24.9824ZM30.6843 32.0623C30.6725 31.4176 31.5927 31.0542 33.1224 31.0542C34.6579 31.0542 35.5839 31.4176 35.5956 32.0623C35.5839 32.6835 34.6579 33.0234 33.1224 33.0234C31.5927 33.0234 30.6725 32.6835 30.6843 32.0623ZM42.7224 26.4593V25.5685H45.0433V24.4901H39.0653V25.5685H41.3979V26.4593C41.392 28.2586 40.3488 30.2337 38.6785 31.0073L39.4286 32.0271C40.6653 31.441 41.5971 30.222 42.0836 28.7685C42.57 30.1165 43.4843 31.2242 44.7386 31.7692L45.4536 30.7377C43.7422 30.0227 42.7224 28.1941 42.7224 26.4593ZM46.2272 34.0432H47.54V23.4468H46.2272V34.0432Z" fill="#333333"/>
<path d="M82.4688 24.5156V23.0156H80.7344V24.3594C80.7266 26.375 79.5859 28.2578 77.3125 29.0469L78.25 30.4062C79.875 29.8359 81.0156 28.6562 81.625 27.1562C82.2422 28.4688 83.3359 29.5 84.8594 30.0156L85.7969 28.6562C83.6172 27.9688 82.4688 26.2891 82.4688 24.5156ZM79.2344 33.6875C79.2344 35.3984 81.0703 36.375 84.0156 36.375C86.9375 36.375 88.7422 35.3984 88.75 33.6875C88.7422 32.0156 86.9375 31.0234 84.0156 31.0312C81.0703 31.0234 79.2344 32.0156 79.2344 33.6875ZM80.9688 33.6875C80.9688 32.8594 82.0781 32.3906 84.0156 32.3906C85.9453 32.3906 87.0312 32.8594 87.0312 33.6875C87.0312 34.5625 85.9453 35 84.0156 35C82.0781 35 80.9688 34.5625 80.9688 33.6875ZM86.875 30.7188H88.6094V27.1406H90.5781V25.7031H88.6094V22.2656H86.875V30.7188ZM104.172 28.9531H91.2969V30.3438H96.8594V31.7031H92.8125V36.2188H102.609V31.7031H98.5781V30.3438H104.172V28.9531ZM92.4531 24.0781H94.3906V26.5H92.5312V27.9062H102.906V26.5H101.047V24.0781H102.984V22.6875H92.4531V24.0781ZM94.5312 34.8125V33.0469H100.922V34.8125H94.5312ZM96.125 26.5V24.0781H99.2969V26.5H96.125ZM121.094 23.7812H116.203V22.2344H114.484V23.7812H109.562V25.1875H121.094V23.7812ZM108.922 32.8125H114.484V36.4062H116.203V32.8125H121.828V31.3906H108.922V32.8125ZM110.562 28.2188C110.562 29.7578 112.359 30.6094 115.344 30.6094C118.328 30.6094 120.125 29.7578 120.125 28.2188C120.125 26.6719 118.328 25.8281 115.344 25.8281C112.359 25.8281 110.562 26.6719 110.562 28.2188ZM112.375 28.2188C112.367 27.5 113.391 27.125 115.344 27.125C117.289 27.125 118.32 27.5 118.328 28.2188C118.32 28.9453 117.289 29.3203 115.344 29.3125C113.391 29.3203 112.367 28.9453 112.375 28.2188ZM134.547 22.2656H132.797V36.3906H134.547V22.2656ZM122.844 32.5L123.75 33.8906C128.695 31.5391 130.328 27.9688 130.328 23.7656H123.562V25.1406H128.562C128.25 28.3516 126.547 30.7422 122.844 32.5ZM145.562 24.6875V24.5156H148.484V23.125H140.859V24.5156H143.797V24.7031C143.797 26.5391 142.594 28.4141 140.344 29.1562L141.234 30.5312C142.914 29.9688 144.086 28.7812 144.703 27.3047C145.32 28.6328 146.438 29.7031 148.016 30.2188L148.891 28.875C146.703 28.1406 145.562 26.4141 145.562 24.6875ZM142.578 32.75H150.469V36.3906H152.203V31.3594H142.578V32.75ZM148.062 27.1875H150.469V30.6875H152.203V22.2656H150.469V25.7656H148.062V27.1875ZM165.969 22.2812H164.219V30.1094H165.969V22.2812ZM154.922 24.3281H159.719V25.6719H154.953V29.8438H156.156C158.891 29.8438 160.805 29.7891 163.031 29.4219L162.812 28.0156C160.797 28.3594 159.07 28.4062 156.656 28.4219V27H161.438V22.9219H154.922V24.3281ZM156.609 36.2188H165.969V30.7344H164.234V32.1094H158.344V30.7344H156.609V36.2188ZM158.344 34.8125V33.4531H164.234V34.8125H158.344ZM179.359 22.9531H169.625V24.3438H177.625C177.625 25.375 177.594 26.5312 177.258 28.0625H168.031V29.4688H180.938V28.0625H179.016C179.367 26.3984 179.367 25.1484 179.359 24.0469V22.9531ZM169.578 36.2188H179.344V31.1094H169.578V36.2188ZM171.281 34.8125V32.4688H177.625V34.8125H171.281ZM197.484 22.2656H195.75V25.7812H193.344V27.2031H195.75V30.6562H197.484V22.2656ZM185.609 29.25L186.516 30.625C188.195 30.0312 189.375 28.8125 189.992 27.3125C190.617 28.6406 191.727 29.7188 193.297 30.25L194.172 28.875C191.984 28.1406 190.844 26.4062 190.844 24.6875V24.5938H193.766V23.1875H186.141V24.5938H189.078V24.7031C189.078 26.5703 187.883 28.4688 185.609 29.25ZM187.906 33.7031C187.891 35.3984 189.727 36.3828 192.703 36.3906C195.695 36.3828 197.523 35.3984 197.531 33.7031C197.523 32.0078 195.695 31.0156 192.703 31.0156C189.727 31.0156 187.891 32.0078 187.906 33.7031ZM189.625 33.7031C189.617 32.8203 190.742 32.3438 192.703 32.3438C194.68 32.3438 195.797 32.8203 195.797 33.7031C195.797 34.5781 194.68 35.0547 192.703 35.0469C190.742 35.0547 189.617 34.5781 189.625 33.7031ZM203.844 25.4375V25.3281H206.141V23.9688H203.844V22.4219H202.203V23.9688H199.875V25.3281H202.203V25.4375C202.188 27.0391 201.305 28.5781 199.516 29.2812L200.328 30.5625C201.664 30.0391 202.562 29.0625 203.055 27.875C203.562 28.9609 204.453 29.8516 205.75 30.3281L206.531 29.0156C204.75 28.4062 203.844 26.9297 203.844 25.4375ZM201.891 32.9688H209.828V36.3906H211.562V31.5625H201.891V32.9688ZM206.906 30.8594H208.547V27.3125H209.906V30.9219H211.562V22.2812H209.906V25.9062H208.547V22.5156H206.906V30.8594ZM228.25 22.2656H226.516V32.5938H228.25V27.8438H230.219V26.4062H228.25V22.2656ZM217.266 26.7656C217.258 28.8203 218.93 30.3125 221.078 30.3125C223.227 30.3125 224.875 28.8203 224.891 26.7656C224.875 24.6797 223.227 23.2109 221.078 23.2031C218.93 23.2109 217.258 24.6797 217.266 26.7656ZM218.969 26.7656C218.961 25.5156 219.898 24.7188 221.078 24.7188C222.273 24.7188 223.18 25.5156 223.188 26.7656C223.18 27.9844 222.273 28.7891 221.078 28.7812C219.898 28.7891 218.961 27.9844 218.969 26.7656ZM219.203 36.1094H228.812V34.7031H220.938V31.5156H219.203V36.1094ZM243.062 22.2656H241.391V27.8281H239.828V22.5312H238.203V35.6719H239.828V29.25H241.391V36.3906H243.062V22.2656ZM231.547 32.875H232.484C233.977 32.875 235.594 32.7734 237.5 32.4375L237.328 30.9219C235.844 31.2109 234.516 31.3203 233.297 31.3438V23.8906H231.547V32.875Z" fill="#333333"/>
</svg>
