<svg width="589" height="100" viewBox="0 0 589 100" fill="none" xmlns="http://www.w3.org/2000/svg">
<path d="M9.96716 11.2595V8.62197H6.41341V10.9264C6.38564 14.4107 4.58101 17.7701 0.360928 19.1722L2.27662 21.9485C5.16404 20.9768 7.12138 18.9778 8.21805 16.4374C9.30083 18.6447 11.1749 20.366 13.8541 21.2544L15.742 18.5058C11.744 17.2704 9.95328 14.3274 9.96716 11.2595ZM3.85915 27.6679C3.84527 30.7635 7.19079 32.5681 12.5214 32.5543C17.7549 32.5681 21.031 30.7635 21.0449 27.6679C21.031 24.6 17.7549 22.7814 12.5214 22.7814C7.19079 22.7814 3.84527 24.6 3.85915 27.6679ZM7.4129 27.6679C7.38514 26.2935 9.20366 25.5578 12.5214 25.5578C15.7975 25.5578 17.5466 26.2935 17.5466 27.6679C17.5466 29.0977 15.7975 29.7779 12.5214 29.7779C9.20366 29.7779 7.38514 29.0977 7.4129 27.6679ZM17.2412 22.2817H20.795V16.1459H24.2099V13.203H20.795V7.28932H17.2412V22.2817ZM48.3643 19.1166H25.3205V21.9208H35.0655V24.0863H27.9858V32.2766H45.6157V24.0863H38.5915V21.9208H48.3643V19.1166ZM27.3472 10.8153H30.6233V14.6745H27.5138V17.5063H46.1432V14.6745H43.0059V10.8153H46.3098V7.98341H27.3472V10.8153ZM31.484 29.4447V26.8349H42.1453V29.4447H31.484ZM34.1771 14.6745V10.8153H39.4522V14.6745H34.1771ZM72.9907 19.783H49.8636V22.5871H59.9695V26.946H63.4678V22.5871H72.9907V19.783ZM52.5844 32.11H70.4364V29.2781H56.1104V24.7527H52.5844V32.11ZM52.751 17.7007H70.02V8.39986H52.751V17.7007ZM56.2214 14.9521V11.1485H66.5495V14.9521H56.2214ZM82.6525 8.9829C78.6684 8.96902 75.6144 11.551 75.6282 15.1742C75.6144 18.8112 78.6684 21.3794 82.6525 21.3933C86.6643 21.3794 89.635 18.8112 89.6489 15.1742C89.635 11.551 86.6643 8.96902 82.6525 8.9829ZM74.5732 24.5583L74.9897 27.4457C79.4041 27.4457 85.4011 27.4041 91.0093 26.3074L90.7317 23.7532C85.3317 24.5167 79.0848 24.5722 74.5732 24.5583ZM79.1542 15.1742C79.1404 13.203 80.6535 12.0369 82.6525 12.0369C84.6653 12.0369 86.1923 13.203 86.2062 15.1742C86.1923 17.1732 84.6653 18.3254 82.6525 18.3115C80.6535 18.3254 79.1404 17.1732 79.1542 15.1742ZM92.1754 32.6098H95.7014V7.28932H92.1754V32.6098Z" fill="black"/>
<path d="M8.98467 75.0659C9.78174 75.0718 10.4323 74.4212 10.4264 73.6124C10.4323 72.8154 9.78174 72.1648 8.98467 72.1707C8.17587 72.1648 7.52532 72.8154 7.53118 73.6124C7.52532 74.4212 8.17587 75.0718 8.98467 75.0659ZM22.1071 69.1348V68.0095H20.806V69.0175C20.8001 70.5296 19.9444 71.9421 18.2389 72.534L18.9422 73.5538C20.1613 73.126 21.017 72.241 21.4741 71.1157C21.9371 72.1003 22.7576 72.874 23.9005 73.2608L24.6038 72.241C22.9686 71.7252 22.1071 70.4652 22.1071 69.1348ZM19.6807 76.0154C19.6807 77.2989 21.058 78.0315 23.2675 78.0315C25.4595 78.0315 26.8133 77.2989 26.8192 76.0154C26.8133 74.7612 25.4595 74.0168 23.2675 74.0227C21.058 74.0168 19.6807 74.7612 19.6807 76.0154ZM20.9818 76.0154C20.9818 75.3941 21.814 75.0425 23.2675 75.0425C24.7152 75.0425 25.5298 75.3941 25.5298 76.0154C25.5298 76.6718 24.7152 77 23.2675 77C21.814 77 20.9818 76.6718 20.9818 76.0154ZM25.4126 73.7883H26.7137V71.104H28.1906V70.0256H26.7137V67.4468H25.4126V73.7883ZM38.3885 72.4637H28.7298V73.5069H32.9028V74.5267H29.8668V77.9143H37.2163V74.5267H34.1921V73.5069H38.3885V72.4637ZM29.5972 68.8065H31.0507V70.6234H29.6559V71.6784H37.439V70.6234H36.0442V68.8065H37.4977V67.7633H29.5972V68.8065ZM31.1562 76.8593V75.5348H35.9504V76.8593H31.1562ZM32.3518 70.6234V68.8065H34.7313V70.6234H32.3518ZM48.2464 67.4468H46.9922V78.0432H48.2464V67.4468ZM39.209 72.03C39.209 74.3685 40.1116 75.822 41.4947 75.8161C42.8076 75.822 43.6926 74.556 43.8156 72.4872H44.8237V77.5275H46.0662V67.6344H44.8237V71.4322H43.8039C43.6515 69.4512 42.7783 68.2498 41.4947 68.2556C40.1116 68.2498 39.209 69.6974 39.209 72.03ZM40.4164 72.03C40.4105 70.3773 40.8207 69.4805 41.4947 69.4864C42.198 69.4805 42.6142 70.3773 42.62 72.03C42.6142 73.6886 42.198 74.5795 41.4947 74.5736C40.8207 74.5795 40.4105 73.6886 40.4164 72.03ZM61.445 67.4468H60.2025V71.5963H59.0069V67.6461H57.8113V77.504H59.0069V72.6395H60.2025V78.0432H61.445V67.4468ZM52.6538 75.57H53.3688C54.8457 75.5582 55.9534 75.5231 57.237 75.2652L57.1432 74.1985C56.0648 74.3978 55.1153 74.4564 53.9666 74.4681V69.756H56.6157V68.7011H52.6538V75.57ZM71.0568 67.4586H69.7557V75.3707H71.0568V71.8659H72.5338V70.7875H71.0568V67.4586ZM62.711 69.674H68.9938V68.6307H66.5088V67.4468H65.2077V68.6307H62.711V69.674ZM63.2502 72.1355C63.2502 73.3487 64.311 74.1399 65.8524 74.1399C67.3821 74.1399 68.437 73.3487 68.4429 72.1355C68.437 70.9164 67.3821 70.1077 65.8524 70.1077C64.311 70.1077 63.2502 70.9164 63.2502 72.1355ZM64.27 77.8322H71.4788V76.7773H65.5711V74.7494H64.27V77.8322ZM64.5161 72.1355C64.5103 71.4908 65.0495 71.1157 65.8524 71.1157C66.6553 71.1157 67.2004 71.4908 67.2004 72.1355C67.2004 72.7743 66.6553 73.1377 65.8524 73.1318C65.0495 73.1377 64.5103 72.7743 64.5161 72.1355ZM85.5917 72.745H75.9096V73.7883H80.2115V75.7341H81.5008V73.7883H85.5917V72.745ZM77.0818 77.8322H84.525V76.7773H78.3829V74.7612H77.0818V77.8322ZM77.1404 71.7604H84.3492V67.9274H77.1404V71.7604ZM78.4063 70.7406V68.9472H83.0598V70.7406H78.4063ZM89.7295 68.1853C88.065 68.1794 86.8166 69.2402 86.8225 70.7406C86.8166 72.2469 88.065 73.3018 89.7295 73.3077C91.4115 73.3018 92.6364 72.2469 92.6482 70.7406C92.6364 69.2402 91.4115 68.1794 89.7295 68.1853ZM86.3419 74.7729L86.506 75.8396C88.3756 75.8396 90.9192 75.822 93.2929 75.3707L93.1874 74.4212C90.8958 74.7494 88.2525 74.7729 86.3419 74.7729ZM88.1119 70.7406C88.106 69.8615 88.8034 69.3106 89.7295 69.3106C90.6731 69.3106 91.3646 69.8615 91.3705 70.7406C91.3646 71.6256 90.6672 72.1707 89.7295 72.1707C88.8034 72.1707 88.106 71.6256 88.1119 70.7406ZM93.8203 78.055H95.1214V67.4468H93.8203V78.055ZM106.339 72.2527H96.657V73.2373H106.339V72.2527ZM97.7823 74.7846H103.878V75.441H97.794V77.926H105.483V77.0234H99.0951V76.285H105.167V73.8703H97.7823V74.7846ZM97.8526 68.5838H103.842V69.2285H97.8878V71.6549H105.331V70.7641H99.1771V70.0725H105.143V67.6813H97.8526V68.5838ZM118.248 67.4586H116.947V73.4249H118.248V70.8344H119.737V69.756H118.248V67.4586ZM110.348 72.7802H111.227C112.763 72.7802 114.392 72.6864 116.15 72.3348L115.998 71.2681C114.45 71.567 113.015 71.6901 111.661 71.7077V67.9743H110.348V72.7802ZM111.391 77.9026H118.248V73.9406H111.391V77.9026ZM112.669 76.8711V74.9604H116.971V76.8711H112.669ZM129.114 67.4468H127.801V78.0432H129.114V67.4468ZM120.335 75.1245L121.015 76.1678C124.725 74.4036 125.949 71.7252 125.949 68.5721H120.874V69.6036H124.625C124.39 72.0124 123.113 73.8058 120.335 75.1245ZM139.218 70.4476H133.17V67.8336H131.881V71.4791H139.218V70.4476ZM130.626 73.7414H140.309V72.7099H130.626V73.7414ZM131.787 77.7971H139.289V76.7421H133.088V74.6791H131.787V77.7971ZM148.631 74.0696C146.351 74.0754 144.88 74.8022 144.88 76.0623C144.88 77.293 146.351 78.0315 148.631 78.0315C150.934 78.0315 152.388 77.293 152.394 76.0623C152.388 74.8022 150.934 74.0754 148.631 74.0696ZM143.884 73.3077H153.495V72.2527H148.901V70.3304H147.611V72.2527H143.884V73.3077ZM144.985 68.9824H151.022C151.022 69.7501 151.005 70.5003 150.741 71.526L152.03 71.6432C152.329 70.5589 152.329 69.6681 152.323 68.83V67.9509H144.985V68.9824ZM146.193 76.0623C146.181 75.4176 147.101 75.0542 148.631 75.0542C150.166 75.0542 151.092 75.4176 151.104 76.0623C151.092 76.6835 150.166 77.0234 148.631 77.0234C147.101 77.0234 146.181 76.6835 146.193 76.0623ZM162.591 67.4468H161.267V75.0894H162.591V71.5846H164.068V70.4945H162.591V67.4468ZM154.199 72.956L154.738 73.9875C157.873 73.0791 159.714 71.0688 159.708 68.2556H154.644V69.3223H158.284C158.061 70.934 156.625 72.2527 154.199 72.956ZM155.781 77.8322H162.99V76.7773H157.106V74.304H155.781V77.8322ZM173.434 67.4468H172.121V73.1318H173.434V67.4468ZM164.795 70.4007C164.795 71.8483 166.014 72.8681 167.655 72.8622C169.29 72.8681 170.509 71.8483 170.504 70.4007C170.509 68.9296 169.29 67.9098 167.655 67.9157C166.014 67.9098 164.795 68.9296 164.795 70.4007ZM166.073 70.4007C166.067 69.5509 166.729 69 167.655 69.0058C168.564 69 169.226 69.5509 169.226 70.4007C169.226 71.2505 168.564 71.7897 167.655 71.7956C166.729 71.7897 166.067 71.2505 166.073 70.4007ZM166.424 77.9143H173.434V73.6242H172.133V74.7143H167.714V73.6242H166.424V77.9143ZM167.714 76.8593V75.7341H172.133V76.8593H167.714ZM183.819 67.4468H182.53V78.0432H183.819V67.4468ZM175.591 75.3824H176.505C178.152 75.3883 179.881 75.2652 181.745 74.8784L181.581 73.7883C179.945 74.1165 178.363 74.2454 176.88 74.2688V68.4783H175.591V75.3824ZM193.654 67.4468H192.353V78.055H193.654V72.534H195.283V71.4674H193.654V67.4468ZM185.789 75.4645H186.668C188.578 75.4645 190.003 75.4176 191.649 75.1363L191.497 74.0344C190.044 74.2864 188.737 74.3685 187.09 74.3743V69.5098H190.747V68.4549H185.789V75.4645ZM197.018 77.0938C197.504 77.0938 197.921 76.6835 197.921 76.1795C197.921 75.6872 197.504 75.2828 197.018 75.2769C196.514 75.2828 196.098 75.6872 196.104 76.1795C196.098 76.6835 196.514 77.0938 197.018 77.0938ZM206.747 69.1348H204.813V67.7516H203.524V69.1348H201.554V70.178H206.747V69.1348ZM201.859 73.2022C201.847 74.6732 202.826 75.6989 204.168 75.6989C205.516 75.6989 206.477 74.6732 206.477 73.2022C206.477 71.7604 205.516 70.7348 204.168 70.7406C202.826 70.7348 201.847 71.7604 201.859 73.2022ZM203.008 73.2022C203.002 72.3699 203.482 71.819 204.168 71.819C204.848 71.819 205.329 72.3699 205.329 73.2022C205.329 74.0579 204.848 74.5912 204.168 74.5853C203.482 74.5912 203.002 74.0579 203.008 73.2022ZM207.192 77.5626H208.411V72.8622H209.443V78.0432H210.685V67.4468H209.443V71.8073H208.411V67.6695H207.192V77.5626ZM220.321 67.4468H219.008V73.6359H220.321V71.1157H221.786V70.049H220.321V67.4468ZM212.362 72.9677H213.217C215.568 72.9677 216.816 72.9209 218.187 72.6278L218.058 71.5846C216.81 71.8425 215.679 71.9069 213.651 71.9128V69.252H217.109V68.197H212.362V72.9677ZM213.276 75.9216C213.276 77.2579 214.671 78.0315 216.863 78.0315C219.037 78.0315 220.409 77.2579 220.414 75.9216C220.409 74.6088 219.037 73.8351 216.863 73.8351C214.671 73.8351 213.276 74.6088 213.276 75.9216ZM214.565 75.9216C214.559 75.2476 215.409 74.8725 216.863 74.8784C218.287 74.8725 219.143 75.2476 219.149 75.9216C219.143 76.6073 218.287 76.9883 216.863 76.9883C215.409 76.9883 214.559 76.6073 214.565 75.9216ZM234.316 67.4468H233.074V78.0432H234.316V67.4468ZM225.091 74.8784L225.83 75.8044C227.324 74.937 228.321 73.8762 228.936 72.663H230.835V77.5392H232.066V67.7047H230.835V71.6197H229.364C229.651 70.723 229.78 69.7619 229.78 68.7362H225.631V69.7912H228.491C228.291 71.9245 227.283 73.5831 225.091 74.8784ZM239.556 69.9904V68.3025H238.231V69.9904C238.226 72.0359 237.194 74.0579 235.43 74.8198L236.227 75.9099C237.511 75.3062 238.425 74.0872 238.911 72.5985C239.404 73.9817 240.294 75.1011 241.513 75.6637L242.287 74.6205C240.57 73.882 239.544 71.9362 239.556 69.9904ZM243.049 78.055H244.362V67.4468H243.049V78.055ZM251.887 68.3728H246.179V69.4161H247.116V72.7099C246.689 72.7157 246.278 72.7216 245.897 72.7216L246.038 73.7765C247.831 73.7765 250.27 73.7355 252.403 73.378L252.309 72.4168C251.875 72.4696 251.424 72.5106 250.961 72.5516V69.4161H251.887V68.3728ZM247.492 77.8322H254.7V76.7773H248.793V74.515H247.492V77.8322ZM248.371 72.6806V69.4161H249.695V72.6278C249.25 72.6513 248.804 72.6688 248.371 72.6806ZM252.977 75.2535H254.278V71.608H255.755V70.5179H254.278V67.4586H252.977V75.2535ZM259.729 68.1853C258.065 68.1794 256.816 69.2402 256.822 70.7406C256.816 72.2469 258.065 73.3018 259.729 73.3077C261.411 73.3018 262.636 72.2469 262.648 70.7406C262.636 69.2402 261.411 68.1794 259.729 68.1853ZM256.341 74.7729L256.506 75.8396C258.375 75.8396 260.919 75.822 263.292 75.3707L263.187 74.4212C260.895 74.7494 258.252 74.7729 256.341 74.7729ZM258.111 70.7406C258.106 69.8615 258.803 69.3106 259.729 69.3106C260.673 69.3106 261.364 69.8615 261.37 70.7406C261.364 71.6256 260.667 72.1707 259.729 72.1707C258.803 72.1707 258.106 71.6256 258.111 70.7406ZM263.82 78.055H265.121V67.4468H263.82V78.055ZM273.396 68.9706V68.0212H272.084V69.0293C272.078 70.5589 271.199 71.9714 269.446 72.5458L270.138 73.6007C271.421 73.1494 272.306 72.241 272.775 71.0864C273.227 72.0886 274.035 72.8622 275.19 73.2725L275.893 72.2527C274.235 71.7311 273.391 70.4124 273.396 68.9706ZM271.205 76.0037C271.193 77.293 272.57 78.0315 274.803 78.0315C277.048 78.0315 278.419 77.293 278.425 76.0037C278.419 74.7143 277.048 73.9582 274.803 73.9641C272.57 73.9582 271.193 74.7143 271.205 76.0037ZM272.494 76.0037C272.488 75.3355 273.332 74.978 274.803 74.9721C276.286 74.978 277.124 75.3355 277.124 76.0037C277.124 76.6483 276.286 77.0059 274.803 77.0117C273.332 77.0059 272.488 76.6483 272.494 76.0037ZM274.979 70.5648H277.089V73.6828H278.39V67.4468H277.089V69.4981H274.979V70.5648ZM285.528 68.1267H280.605V69.1934H284.128C283.911 70.7465 282.475 72.0124 280.031 72.6513L280.523 73.6945C282.797 73.085 284.386 71.9187 285.101 70.2718H287.462V71.4674H284.919V72.5223H287.462V73.7531H288.764V67.4586H287.462V69.2285H285.423C285.493 68.8769 285.528 68.5135 285.528 68.1267ZM281.543 75.23H287.462V78.0081H288.764V74.1985H281.543V75.23ZM296.183 68.5487H290.733V69.5919H294.894C294.888 70.5003 294.859 71.6901 294.601 73.2959L295.89 73.4014C296.183 71.5787 296.183 70.2425 296.183 69.2989V68.5487ZM290.17 74.7729L290.299 75.8161C292.169 75.8278 294.595 75.7868 296.781 75.4293L296.711 74.4564C295.697 74.5795 294.589 74.6557 293.511 74.7026V71.5729H292.221V74.7436C291.495 74.7612 290.797 74.767 290.17 74.7729ZM297.262 78.0432H298.575V72.8622H300.11V71.7604H298.575V67.4468H297.262V78.0432ZM311.785 67.4468H310.484V78.055H311.785V72.534H313.414V71.4674H311.785V67.4468ZM303.92 75.4645H304.799C306.709 75.4645 308.134 75.4176 309.781 75.1363L309.628 74.0344C308.175 74.2864 306.868 74.3685 305.221 74.3743V69.5098H308.878V68.4549H303.92V75.4645ZM323.53 73.2256H313.848V74.2688H323.53V73.2256ZM315.044 68.7479H321.033V69.6153H315.079V72.4403H322.545V71.4556H316.368V70.5531H322.334V67.7282H315.044V68.7479ZM315.09 77.8322H322.569V76.7773H316.403V74.937H315.09V77.8322ZM335.58 67.8923H328.277V68.9238H334.279C334.273 69.5509 334.244 70.3011 334.05 71.2681H327.082V72.2996H336.764V71.2681H335.363C335.586 70.1663 335.586 69.2871 335.58 68.5956V67.8923ZM328.195 74.1634H334.267V75.019H328.207V77.9377H335.838V76.9179H329.508V76.0154H335.568V73.1436H328.195V74.1634ZM347.114 72.9209H337.455V73.9641H347.114V72.9209ZM338.452 69.9318C338.452 71.2798 339.958 72.1003 342.273 72.1003C344.582 72.1003 346.088 71.2798 346.094 69.9318C346.088 68.5897 344.582 67.7809 342.273 67.7868C339.958 67.7809 338.452 68.5897 338.452 69.9318ZM338.651 77.8322H346.024V76.7773H339.952V74.7494H338.651V77.8322ZM339.811 69.9318C339.8 69.2344 340.732 68.83 342.273 68.83C343.82 68.83 344.746 69.2344 344.746 69.9318C344.746 70.6527 343.82 71.0395 342.273 71.0337C340.732 71.0395 339.8 70.6527 339.811 69.9318ZM354.464 69.9904V68.3025H353.162V69.9904C353.157 71.948 352.184 73.9758 350.478 74.7846L351.275 75.8278C352.488 75.2183 353.356 74.0227 353.819 72.5809C354.27 73.9289 355.097 75.0483 356.245 75.6286L357.042 74.5853C355.401 73.7941 354.452 71.8835 354.464 69.9904ZM357.675 78.0432H358.976V72.7099H360.606V71.5963H358.976V67.4468H357.675V78.0432ZM369.924 67.4586H368.623V70.26H366.748V71.315H368.623V75.1949H369.924V67.4586ZM361.028 72.9091L361.696 73.9641C362.95 73.5304 363.835 72.6395 364.298 71.526C364.761 72.5282 365.599 73.337 366.783 73.7414L367.439 72.6981C365.798 72.1589 364.943 70.8403 364.943 69.5685V69.2754H367.135V68.2205H361.415V69.2754H363.618V69.5567C363.618 70.9692 362.716 72.3524 361.028 72.9091ZM362.974 77.8322H370.194V76.7773H364.275V74.515H362.974V77.8322ZM381.095 72.5223H376.899V71.5143H379.982V70.4827H373.91V68.9472H379.923V67.9274H372.609V71.5143H375.621V72.5223H371.425V73.5655H381.095V72.5223ZM372.55 76.1092C372.55 77.3399 373.939 78.0374 376.242 78.0432C378.528 78.0374 379.905 77.3399 379.911 76.1092C379.905 74.8667 378.528 74.1692 376.242 74.1751C373.939 74.1692 372.55 74.8667 372.55 76.1092ZM373.875 76.1092C373.869 75.4996 374.701 75.1714 376.242 75.1714C377.76 75.1714 378.599 75.4996 378.61 76.1092C378.599 76.7245 377.76 77.041 376.242 77.0352C374.701 77.041 373.869 76.7245 373.875 76.1092ZM385.233 68.1853C383.569 68.1794 382.32 69.2402 382.326 70.7406C382.32 72.2469 383.569 73.3018 385.233 73.3077C386.915 73.3018 388.14 72.2469 388.152 70.7406C388.14 69.2402 386.915 68.1794 385.233 68.1853ZM381.845 74.7729L382.01 75.8396C383.879 75.8396 386.423 75.822 388.796 75.3707L388.691 74.4212C386.399 74.7494 383.756 74.7729 381.845 74.7729ZM383.615 70.7406C383.61 69.8615 384.307 69.3106 385.233 69.3106C386.177 69.3106 386.868 69.8615 386.874 70.7406C386.868 71.6256 386.171 72.1707 385.233 72.1707C384.307 72.1707 383.61 71.6256 383.615 70.7406ZM389.324 78.055H390.625V67.4468H389.324V78.055ZM397.424 73.6476H396.205V77.9143H400.026V77.0762L400.647 77.9963C401.526 77.6447 402.13 76.9941 402.481 76.2146C402.816 77.0176 403.413 77.6564 404.351 77.9963L405.019 77.0234C403.712 76.578 403.138 75.5055 403.144 74.4095V73.5655H401.843V74.4095C401.843 75.4234 401.274 76.4842 400.026 77.0117V73.6476H398.818V74.7846H397.424V73.6476ZM395.161 70.3421C395.161 71.8132 396.339 72.8271 397.963 72.8271C399.34 72.8271 400.424 72.0476 400.682 70.8696H402.593V73.0615H403.894V67.4468H402.593V69.7912H400.676C400.407 68.6424 399.328 67.8747 397.963 67.8805C396.339 67.8747 395.161 68.8945 395.161 70.3421ZM396.404 70.3421C396.404 69.504 397.048 68.9531 397.963 68.9589C398.854 68.9531 399.492 69.504 399.498 70.3421C399.492 71.1978 398.854 71.7604 397.963 71.7604C397.048 71.7604 396.404 71.1978 396.404 70.3421ZM397.424 76.9179V75.7575H398.818V76.9179H397.424ZM414.209 67.4468H412.896V78.055H414.209V67.4468ZM405.734 71.9597C405.728 74.263 406.895 75.7106 408.501 75.7106C410.089 75.7106 411.261 74.263 411.267 71.9597C411.261 69.674 410.089 68.2205 408.501 68.2205C406.895 68.2205 405.728 69.674 405.734 71.9597ZM406.988 71.9597C406.988 70.3421 407.604 69.3926 408.501 69.3926C409.391 69.3926 410.001 70.3421 410.001 71.9597C410.001 73.589 409.391 74.5326 408.501 74.5384C407.604 74.5326 406.988 73.589 406.988 71.9597ZM426.974 67.4468H425.673V73.4132H426.974V70.9868H428.451V69.9084H426.974V67.4468ZM419.062 72.9443H419.917C422.232 72.9443 423.463 72.8974 424.852 72.5926L424.712 71.5611C423.452 71.8132 422.344 71.8835 420.351 71.8893V69.1816H423.774V68.1267H419.062V72.9443ZM420.128 77.9026H426.974V73.8938H420.128V77.9026ZM421.418 76.8711V74.937H425.685V76.8711H421.418ZM437.359 67.4468H436.046V73.6359H437.359V71.1157H438.825V70.049H437.359V67.4468ZM429.4 72.9677H430.256C432.606 72.9677 433.855 72.9209 435.226 72.6278L435.097 71.5846C433.849 71.8425 432.718 71.9069 430.69 71.9128V69.252H434.148V68.197H429.4V72.9677ZM430.315 75.9216C430.315 77.2579 431.709 78.0315 433.901 78.0315C436.076 78.0315 437.447 77.2579 437.453 75.9216C437.447 74.6088 436.076 73.8351 433.901 73.8351C431.709 73.8351 430.315 74.6088 430.315 75.9216ZM431.604 75.9216C431.598 75.2476 432.448 74.8725 433.901 74.8784C435.326 74.8725 436.181 75.2476 436.187 75.9216C436.181 76.6073 435.326 76.9883 433.901 76.9883C432.448 76.9883 431.598 76.6073 431.604 75.9216ZM451.355 67.4468H450.113V78.0432H451.355V67.4468ZM442.13 74.8784L442.869 75.8044C444.363 74.937 445.359 73.8762 445.975 72.663H447.874V77.5392H449.104V67.7047H447.874V71.6197H446.403C446.69 70.723 446.819 69.7619 446.819 68.7362H442.669V69.7912H445.529C445.33 71.9245 444.322 73.5831 442.13 74.8784ZM456.595 69.9904V68.3025H455.27V69.9904C455.264 72.0359 454.233 74.0579 452.469 74.8198L453.266 75.9099C454.549 75.3062 455.463 74.0872 455.95 72.5985C456.442 73.9817 457.333 75.1011 458.552 75.6637L459.326 74.6205C457.609 73.882 456.583 71.9362 456.595 69.9904ZM460.088 78.055H461.4V67.4468H460.088V78.055ZM468.926 68.3728H463.217V69.4161H464.155V72.7099C463.727 72.7157 463.317 72.7216 462.936 72.7216L463.077 73.7765C464.87 73.7765 467.308 73.7355 469.442 73.378L469.348 72.4168C468.914 72.4696 468.463 72.5106 468 72.5516V69.4161H468.926V68.3728ZM464.53 77.8322H471.739V76.7773H465.831V74.515H464.53V77.8322ZM465.409 72.6806V69.4161H466.734V72.6278C466.288 72.6513 465.843 72.6688 465.409 72.6806ZM470.016 75.2535H471.317V71.608H472.794V70.5179H471.317V67.4586H470.016V75.2535ZM478.151 68.0446C475.93 68.0446 474.218 69.2344 474.224 71.0337C474.218 72.8564 475.93 74.0461 478.151 74.0461C480.384 74.0461 482.107 72.8564 482.101 71.0337C482.107 69.2344 480.384 68.0446 478.151 68.0446ZM473.333 76.707H483.015V75.6403H473.333V76.707ZM475.478 71.0337C475.472 69.8615 476.609 69.0879 478.151 69.0996C479.698 69.0879 480.823 69.8615 480.823 71.0337C480.823 72.2351 479.698 72.9736 478.151 72.9795C476.609 72.9736 475.472 72.2351 475.478 71.0337ZM493.389 75.7341H489.169V74.011H492.486V72.9443H486.157V71.5729H492.24V68.1736H484.832V69.2285H490.951V70.5414H484.856V74.011H487.88V75.7341H483.707V76.8125H493.389V75.7341ZM505.744 67.4468H504.431V78.055H505.744V67.4468ZM497.269 71.9597C497.263 74.263 498.429 75.7106 500.035 75.7106C501.623 75.7106 502.796 74.263 502.801 71.9597C502.796 69.674 501.623 68.2205 500.035 68.2205C498.429 68.2205 497.263 69.674 497.269 71.9597ZM498.523 71.9597C498.523 70.3421 499.138 69.3926 500.035 69.3926C500.926 69.3926 501.536 70.3421 501.536 71.9597C501.536 73.589 500.926 74.5326 500.035 74.5384C499.138 74.5326 498.523 73.589 498.523 71.9597ZM516.973 72.5223H512.777V71.5143H515.859V70.4827H509.788V68.9472H515.801V67.9274H508.486V71.5143H511.499V72.5223H507.303V73.5655H516.973V72.5223ZM508.428 76.1092C508.428 77.3399 509.817 78.0374 512.12 78.0432C514.406 78.0374 515.783 77.3399 515.789 76.1092C515.783 74.8667 514.406 74.1692 512.12 74.1751C509.817 74.1692 508.428 74.8667 508.428 76.1092ZM509.752 76.1092C509.747 75.4996 510.579 75.1714 512.12 75.1714C513.638 75.1714 514.476 75.4996 514.488 76.1092C514.476 76.7245 513.638 77.041 512.12 77.0352C510.579 77.041 509.747 76.7245 509.752 76.1092ZM523.842 70.0373H520.021V68.8769H523.736V67.8923H518.684V71.0337H520.56V71.8952C519.575 71.9187 518.614 71.9245 517.735 71.9245L517.887 72.9326C519.903 72.9326 522.371 72.874 524.616 72.534L524.545 71.6549C523.695 71.7487 522.793 71.8073 521.884 71.8483V71.0337H523.842V70.0373ZM519.364 74.4916H525.237V75.2066H519.388V77.9495H526.831V76.9179H520.665V76.156H526.526V73.4835H519.364V74.4916ZM525.237 73.0732H526.526V67.4586H525.237V73.0732ZM536.419 68.326V67.7868H535.048V68.326C535.048 69.6681 533.559 71.0102 531.32 71.3033L531.836 72.3582C533.618 72.0886 535.042 71.2036 535.734 70.008C536.425 71.2036 537.855 72.0886 539.654 72.3582L540.17 71.3033C537.908 71.0102 536.413 69.6564 536.419 68.326ZM530.898 74.3509H535.06V78.0432H536.349V74.3509H540.557V73.2725H530.898V74.3509ZM547.883 74.3392V73.9055H546.617V74.3392C546.611 75.3707 545.949 76.4491 544.578 76.9297L545.222 77.8791C546.201 77.5275 546.875 76.8652 547.256 76.0505C547.59 76.8886 548.223 77.6037 549.231 77.9729C550.192 77.5861 550.813 76.8476 551.159 76.0095C551.528 76.8593 552.208 77.5333 553.24 77.8791L553.873 76.9297C552.484 76.4901 551.827 75.4469 551.833 74.3392V73.9055H550.556V74.3392C550.55 75.1421 550.122 76.1033 549.196 76.7304C548.287 76.1443 547.883 75.2242 547.883 74.3392ZM544.308 70.5414C544.308 72.0124 545.527 73.0557 547.168 73.0498C548.803 73.0557 550.022 72.0124 550.016 70.5414C550.022 69.0527 548.803 68.0212 547.168 68.0212C545.527 68.0212 544.308 69.0527 544.308 70.5414ZM545.586 70.5414C545.58 69.674 546.242 69.1172 547.168 69.123C548.076 69.1172 548.739 69.674 548.739 70.5414C548.739 71.4088 548.076 71.9655 547.168 71.9714C546.242 71.9655 545.58 71.4088 545.586 70.5414ZM551.634 73.4601H552.947V67.4586H551.634V73.4601ZM556.944 73.8H555.654V77.9143H562.91V73.8H561.609V74.808H556.944V73.8ZM554.494 73.2022H564.153V72.1355H554.494V73.2022ZM554.986 70.5531L555.467 71.5846C557.231 71.3443 558.638 70.5589 559.323 69.4805C560.003 70.5531 561.404 71.3443 563.18 71.5846L563.637 70.5531C561.445 70.2952 559.992 69.1054 559.992 67.9626V67.564H558.655V67.9626C558.649 69.1406 557.202 70.2776 554.986 70.5531ZM556.944 76.8828V75.8044H561.609V76.8828H556.944ZM573.706 67.4468H572.417V78.0432H573.706V67.4468ZM565.477 75.3824H566.392C568.038 75.3883 569.767 75.2652 571.631 74.8784L571.467 73.7883C569.832 74.1165 568.249 74.2454 566.767 74.2688V68.4783H565.477V75.3824ZM583.54 67.4468H582.239V78.055H583.54V72.534H585.17V71.4674H583.54V67.4468ZM575.675 75.4645H576.554C578.465 75.4645 579.889 75.4176 581.536 75.1363L581.384 74.0344C579.93 74.2864 578.623 74.3685 576.976 74.3743V69.5098H580.633V68.4549H575.675V75.4645ZM586.905 77.0938C587.391 77.0938 587.807 76.6835 587.807 76.1795C587.807 75.6872 587.391 75.2828 586.905 75.2769C586.4 75.2828 585.984 75.6872 585.99 76.1795C585.984 76.6835 586.4 77.0938 586.905 77.0938ZM8.98467 93.0659C9.78174 93.0718 10.4323 92.4212 10.4264 91.6124C10.4323 90.8154 9.78174 90.1648 8.98467 90.1707C8.17587 90.1648 7.52532 90.8154 7.53118 91.6124C7.52532 92.4212 8.17587 93.0718 8.98467 93.0659ZM19.9151 86.4197H18.6844V93.4762H22.8456V86.4197H21.6382V88.8696H19.9151V86.4197ZM19.9151 92.4212V89.9011H21.6382V92.4212H19.9151ZM23.8888 95.5275H25.1196V90.6161H26.2448V96.0432H27.4991V85.4468H26.2448V89.5377H25.1196V85.6344H23.8888V95.5275ZM34.1921 89.186H32.9028V90.5692H28.7298V91.6124H38.3885V90.5692H34.1921V89.186ZM29.2573 88.7641L29.7262 89.7839C31.4727 89.5201 32.8559 88.7289 33.5357 87.6212C34.2097 88.7348 35.5987 89.5201 37.3336 89.7839L37.8376 88.7641C35.628 88.4886 34.2039 87.3164 34.2039 86.0212V85.6227H32.8793V86.0212C32.8793 87.2871 31.4434 88.4886 29.2573 88.7641ZM29.8551 94.1678C29.8551 95.3692 31.2324 96.0315 33.5474 96.0315C35.8449 96.0315 37.2105 95.3692 37.2163 94.1678C37.2105 92.978 35.8449 92.2982 33.5474 92.304C31.2324 92.2982 29.8551 92.978 29.8551 94.1678ZM31.1797 94.1678C31.1738 93.5875 31.9885 93.3004 33.5474 93.3004C35.0771 93.3004 35.9035 93.5875 35.9152 94.1678C35.9035 94.748 35.0771 95.0469 33.5474 95.0469C31.9885 95.0469 31.1738 94.748 31.1797 94.1678ZM45.023 86.2322H39.6193V87.3106H43.7394C43.7277 87.9611 43.6867 88.7758 43.4757 89.8659L44.7651 89.9831C45.0113 88.641 45.0113 87.586 45.023 86.8652V86.2322ZM38.9863 90.8271L39.1035 91.8703C40.9614 91.8645 43.464 91.8234 45.6677 91.4249L45.5973 90.4872C44.5717 90.6337 43.4464 90.7157 42.3504 90.7626V88.6468H41.061V90.8036C40.3167 90.8154 39.6134 90.8212 38.9863 90.8271ZM40.5687 95.8322H47.8948V94.7773H41.8816V92.6791H40.5687V95.8322ZM46.2186 93.3824H47.5549V89.8425H48.9263V88.7523H47.5549V85.4468H46.2186V93.3824ZM54.541 86.1853H49.8757V87.2285H53.2281V88.4945H49.8875V91.9172H50.6845C52.6303 91.9231 53.7849 91.8879 55.1505 91.6593L55.0098 90.5926C53.826 90.7978 52.8062 90.8564 51.2003 90.874V89.4791H54.541V86.1853ZM51.3175 95.8088H58.6318V94.7421H52.6186V92.6791H51.3175V95.8088ZM55.1974 90.5575H57.0494V93.2652H58.3505V85.4586H57.0494V87.123H55.1974V88.1663H57.0494V89.5025H55.1974V90.5575ZM61.9139 94.1678H60.4253L59.8157 97.4498H60.9293L61.9139 94.1678ZM75.4173 91.3546H65.7586V92.4095H69.9198V96.0315H71.2092V92.4095H75.4173V91.3546ZM66.2627 89.6197L66.755 90.6395C68.5425 90.3817 69.9374 89.5553 70.588 88.4124C71.2326 89.5553 72.6393 90.3817 74.4444 90.6395L74.9133 89.6197C72.8151 89.356 71.4319 88.2366 71.344 87.0761H74.5264V86.0446H66.6495V87.0761H69.8319C69.7381 88.2366 68.3433 89.356 66.2627 89.6197ZM85.8027 90.745H76.1206V91.7883H80.4224V93.7341H81.7118V91.7883H85.8027V90.745ZM77.2928 95.8322H84.736V94.7773H78.5939V92.7612H77.2928V95.8322ZM77.3514 89.7604H84.5602V85.9274H77.3514V89.7604ZM78.6173 88.7406V86.9472H83.2708V88.7406H78.6173ZM87.139 91.7648C87.139 93.9744 87.7954 95.8088 88.8972 97.3912H90.3038C89.495 96.2191 88.6862 93.863 88.6862 91.7648C88.6862 89.6666 89.495 87.3164 90.3038 86.1501H88.8972C87.7954 87.7208 87.139 89.5611 87.139 91.7648ZM97.3603 86.5604H95.1683V85.4703H93.8672V86.5604H91.6753V87.5802H93.8555C93.8379 88.5531 92.9939 89.4439 91.4057 89.7604L91.9566 90.7685C93.1991 90.5047 94.0782 89.8776 94.5412 89.0454C95.0101 89.8073 95.8658 90.3758 97.079 90.6278L97.5947 89.6197C96.0299 89.315 95.1918 88.5003 95.1683 87.5802H97.3603V86.5604ZM91.0071 91.3194L91.1712 92.3978C91.98 92.3978 92.9002 92.3919 93.8672 92.3568V95.715H95.18V92.2864C96.1061 92.222 97.0555 92.1223 97.9698 91.9641L97.876 91.0264C95.6137 91.3077 92.9822 91.3253 91.0071 91.3194ZM98.5676 96.0315H99.857V85.4586H98.5676V96.0315ZM111.051 93.6755H106.808V91.2256H105.519V93.6755H101.369V94.7304H111.051V93.6755ZM101.65 90.4051L102.213 91.4835C104.001 91.1494 105.454 90.1121 106.152 88.7289C106.855 90.1179 108.326 91.1436 110.113 91.4835L110.676 90.4051C108.443 90.0476 106.843 88.4652 106.843 86.8652V86.0915H105.46V86.8652C105.454 88.4593 103.866 90.0476 101.65 90.4051ZM115.564 86.115H114.263L111.52 96.2777H112.833L115.564 86.115ZM124.73 86.4197H117.018V87.463H123.429V87.4981C123.429 88.7816 123.429 90.2234 123.066 92.1868L124.344 92.3157C124.73 90.2351 124.73 88.8168 124.73 87.4981V86.4197ZM116.045 94.6718H125.703V93.6051H122.14V90.2293H120.862V93.6051H119.514V90.2293H118.213V93.6051H116.045V94.6718ZM134.811 85.4468H133.51V93.7223H134.811V90.0769H136.241V88.9985H134.811V85.4468ZM126.325 91.6007L126.465 92.6205C128.294 92.6029 130.82 92.5736 133.065 92.1516L132.959 91.2373C132.109 91.3663 131.201 91.4483 130.298 91.5011V90.8916C131.459 90.7333 132.185 90.1589 132.185 89.315C132.185 88.2776 131.171 87.6622 129.63 87.674C128.095 87.6622 127.069 88.2776 127.075 89.315C127.069 90.1648 127.819 90.745 128.997 90.8916V91.5655C128.036 91.5949 127.116 91.6007 126.325 91.6007ZM126.594 87.3223H132.678V86.3728H130.298V85.4117H128.997V86.3728H126.594V87.3223ZM127.848 95.8322H135.186V94.7773H129.149V93.1714H127.848V95.8322ZM128.329 89.315C128.317 88.8168 128.81 88.5472 129.63 88.5531C130.451 88.5472 130.943 88.8168 130.943 89.315C130.943 89.7721 130.451 90.0417 129.63 90.0417C128.81 90.0417 128.317 89.7721 128.329 89.315ZM140.613 86.115H139.312L136.569 96.2777H137.882L140.613 86.115ZM149.487 85.4468H148.185V93.7223H149.487V90.0769H150.917V88.9985H149.487V85.4468ZM141 91.6007L141.141 92.6205C142.969 92.6029 145.495 92.5736 147.74 92.1516L147.635 91.2373C146.785 91.3663 145.876 91.4483 144.974 91.5011V90.8916C146.134 90.7333 146.861 90.1589 146.861 89.315C146.861 88.2776 145.847 87.6622 144.306 87.674C142.77 87.6622 141.744 88.2776 141.75 89.315C141.744 90.1648 142.495 90.745 143.673 90.8916V91.5655C142.711 91.5949 141.791 91.6007 141 91.6007ZM141.27 87.3223H147.353V86.3728H144.974V85.4117H143.673V86.3728H141.27V87.3223ZM142.524 95.8322H149.862V94.7773H143.825V93.1714H142.524V95.8322ZM143.005 89.315C142.993 88.8168 143.485 88.5472 144.306 88.5531C145.126 88.5472 145.618 88.8168 145.618 89.315C145.618 89.7721 145.126 90.0417 144.306 90.0417C143.485 90.0417 142.993 89.7721 143.005 89.315ZM154.011 85.6109H152.722V89.1392H159.872V85.6109H158.583V86.4432H154.011V85.6109ZM151.468 90.8622H155.629V91.6476H152.605V92.6088H158.641V93.3004H152.616V95.9495H160.212V94.9531H153.894V94.2146H159.919V91.6476H156.93V90.8622H161.126V89.7956H151.468V90.8622ZM154.011 88.1663V87.3926H158.583V88.1663H154.011ZM164.994 91.7648C164.994 89.5611 164.338 87.7208 163.236 86.1501H161.83C162.638 87.3164 163.447 89.6666 163.447 91.7648C163.447 93.863 162.638 96.2191 161.83 97.3912H163.236C164.338 95.8088 164.994 93.9744 164.994 91.7648ZM172.25 86.2322H166.846V87.3106H170.967C170.955 87.9611 170.914 88.7758 170.703 89.8659L171.992 89.9831C172.238 88.641 172.238 87.586 172.25 86.8652V86.2322ZM166.213 90.8271L166.331 91.8703C168.189 91.8645 170.691 91.8234 172.895 91.4249L172.824 90.4872C171.799 90.6337 170.674 90.7157 169.578 90.7626V88.6468H168.288V90.8036C167.544 90.8154 166.841 90.8212 166.213 90.8271ZM167.796 95.8322H175.122V94.7773H169.109V92.6791H167.796V95.8322ZM173.446 93.3824H174.782V89.8425H176.153V88.7523H174.782V85.4468H173.446V93.3824ZM181.768 86.1853H177.103V87.2285H180.455V88.4945H177.115V91.9172H177.912C179.857 91.9231 181.012 91.8879 182.378 91.6593L182.237 90.5926C181.053 90.7978 180.033 90.8564 178.427 90.874V89.4791H181.768V86.1853ZM178.545 95.8088H185.859V94.7421H179.846V92.6791H178.545V95.8088ZM182.425 90.5575H184.277V93.2652H185.578V85.4586H184.277V87.123H182.425V88.1663H184.277V89.5025H182.425V90.5575ZM199.597 90.745H189.915V91.7883H194.217V93.7341H195.506V91.7883H199.597V90.745ZM191.087 95.8322H198.53V94.7773H192.388V92.7612H191.087V95.8322ZM191.145 89.7604H198.354V85.9274H191.145V89.7604ZM192.411 88.7406V86.9472H197.065V88.7406H192.411ZM203.735 86.1853C202.07 86.1794 200.822 87.2402 200.828 88.7406C200.822 90.2469 202.07 91.3018 203.735 91.3077C205.417 91.3018 206.641 90.2469 206.653 88.7406C206.641 87.2402 205.417 86.1794 203.735 86.1853ZM200.347 92.7729L200.511 93.8396C202.381 93.8396 204.924 93.822 207.298 93.3707L207.192 92.4212C204.901 92.7494 202.258 92.7729 200.347 92.7729ZM202.117 88.7406C202.111 87.8615 202.808 87.3106 203.735 87.3106C204.678 87.3106 205.37 87.8615 205.376 88.7406C205.37 89.6256 204.672 90.1707 203.735 90.1707C202.808 90.1707 202.111 89.6256 202.117 88.7406ZM207.825 96.055H209.126V85.4468H207.825V96.055ZM219.172 86.1032H214.061V90.5106H219.172V86.1032ZM214.694 95.0117L215.14 96.0081C216.869 95.8205 218.187 95.1641 218.838 94.2733C219.483 95.1524 220.784 95.8264 222.501 96.0081L222.946 95.0117C220.919 94.8066 219.641 93.9099 219.524 93.0894H222.548V92.1047H219.488V91.1787H218.176V92.1047H215.128V93.0894H218.146C218.029 93.9333 216.728 94.8359 214.694 95.0117ZM215.351 89.4908V87.1348H217.883V89.4908H215.351ZM221.036 91.4835H222.325V85.4468H221.036V91.4835ZM236.426 93.6872H234.199V90.9795C235.02 90.493 235.518 89.7487 235.512 88.8227C235.518 87.1348 233.853 86.0212 231.562 86.0212C229.282 86.0212 227.629 87.1348 227.635 88.8227C227.629 89.7604 228.139 90.5223 228.983 91.0088V93.6872H226.744V94.7538H236.426V93.6872ZM228.913 88.8227C228.907 87.7208 229.979 87.0468 231.562 87.0527C233.138 87.0468 234.234 87.7208 234.234 88.8227C234.234 89.9069 233.138 90.5985 231.562 90.5926C229.979 90.5985 228.907 89.9069 228.913 88.8227ZM230.272 93.6872V91.4835C230.671 91.5655 231.105 91.6124 231.562 91.6124C232.031 91.6124 232.47 91.5655 232.875 91.4776V93.6872H230.272ZM240.927 87.7091V87.6505H243.143V86.619H240.939V85.3999H239.626V86.619H237.411V87.6505H239.626V87.7091C239.626 88.9868 238.741 90.2293 237.083 90.7333L237.692 91.7414C238.958 91.3663 239.837 90.5458 240.3 89.5084C240.787 90.4285 241.666 91.1377 242.885 91.4718L243.494 90.4637C241.83 90.0124 240.922 88.8696 240.927 87.7091ZM238.806 94.0388C238.794 95.2989 240.177 96.0315 242.404 96.0315C244.643 96.0315 246.02 95.2989 246.026 94.0388C246.02 92.7787 244.643 92.0696 242.404 92.0696C240.177 92.0696 238.794 92.7787 238.806 94.0388ZM240.095 94.0388C240.089 93.4059 240.933 93.0718 242.404 93.0659C243.905 93.0718 244.725 93.4059 244.725 94.0388C244.725 94.6659 243.905 95.0234 242.404 95.0234C240.933 95.0234 240.089 94.6659 240.095 94.0388ZM242.826 89.4088H244.69V91.8586H245.991V85.4468H244.69V88.3538H242.826V89.4088ZM251.278 87.9904V86.3025H249.977V87.9904C249.971 89.948 248.998 91.9758 247.292 92.7846L248.089 93.8278C249.303 93.2183 250.17 92.0227 250.633 90.5809C251.084 91.9289 251.911 93.0483 253.059 93.6286L253.856 92.5853C252.215 91.7941 251.266 89.8835 251.278 87.9904ZM254.489 96.0432H255.79V90.7099H257.42V89.5963H255.79V85.4468H254.489V96.0432ZM266.223 85.4468H264.922V92.2102H266.223V89.3267H267.7V88.2366H266.223V85.4468ZM257.877 87.545H264.16V86.5252H261.675V85.3765H260.374V86.5252H257.877V87.545ZM258.416 89.8659C258.416 91.0029 259.471 91.7531 261.018 91.7531C262.548 91.7531 263.603 91.0029 263.609 89.8659C263.603 88.7289 262.548 87.9729 261.018 87.967C259.471 87.9729 258.416 88.7289 258.416 89.8659ZM259.26 94.1678C259.248 95.3341 260.602 96.0315 262.8 96.0315C264.974 96.0315 266.34 95.3341 266.34 94.1678C266.34 92.9897 264.974 92.2982 262.8 92.304C260.602 92.2982 259.248 92.9897 259.26 94.1678ZM259.682 89.8659C259.676 89.2798 260.215 88.9282 261.018 88.9282C261.821 88.9282 262.366 89.2798 262.366 89.8659C262.366 90.4403 261.821 90.7743 261.018 90.7685C260.215 90.7743 259.676 90.4403 259.682 89.8659ZM260.549 94.1678C260.544 93.5875 261.352 93.3004 262.8 93.3004C264.23 93.3004 265.033 93.5875 265.039 94.1678C265.033 94.7304 264.23 95.0469 262.8 95.0469C261.352 95.0469 260.544 94.7304 260.549 94.1678ZM277.898 90.9209H268.239V91.9641H277.898V90.9209ZM269.235 87.9318C269.235 89.2798 270.741 90.1003 273.057 90.1003C275.366 90.1003 276.872 89.2798 276.878 87.9318C276.872 86.5897 275.366 85.7809 273.057 85.7868C270.741 85.7809 269.235 86.5897 269.235 87.9318ZM269.435 95.8322H276.807V94.7773H270.736V92.7494H269.435V95.8322ZM270.595 87.9318C270.583 87.2344 271.515 86.83 273.057 86.83C274.604 86.83 275.53 87.2344 275.53 87.9318C275.53 88.6527 274.604 89.0395 273.057 89.0337C271.515 89.0395 270.583 88.6527 270.595 87.9318ZM286.853 86.4783H281.836V93.4176H286.853V86.4783ZM283.114 92.3743V87.4981H285.552V92.3743H283.114ZM288.459 96.0432H289.76V90.6161H291.389V89.5143H289.76V85.4468H288.459V96.0432ZM300.649 85.4468H299.337V96.055H300.649V85.4468ZM292.175 89.9597C292.169 92.263 293.335 93.7106 294.941 93.7106C296.529 93.7106 297.701 92.263 297.707 89.9597C297.701 87.674 296.529 86.2205 294.941 86.2205C293.335 86.2205 292.169 87.674 292.175 89.9597ZM293.429 89.9597C293.429 88.3421 294.044 87.3926 294.941 87.3926C295.832 87.3926 296.441 88.3421 296.441 89.9597C296.441 91.589 295.832 92.5326 294.941 92.5384C294.044 92.5326 293.429 91.589 293.429 89.9597ZM307.741 85.9274H302.994V86.9472H306.352C306.323 87.2168 306.264 87.4747 306.176 87.7208L302.454 87.8615L302.654 88.8578L305.643 88.6351C305.039 89.3326 304.025 89.8893 302.443 90.2527L302.912 91.2491C306.282 90.4285 307.729 88.7172 307.741 85.9274ZM304.107 92.2923H309.792V93.0776H304.119V95.9143H311.363V94.8828H305.397V94.0271H311.082V91.2725H304.107V92.2923ZM307.764 88.8813H309.781V90.8505H311.082V85.4468H309.781V87.8146H307.764V88.8813ZM321.408 85.4468H320.119V96.055H321.408V85.4468ZM313.156 87.4278H316.825V89.315H313.168V93.5465H314.094C315.999 93.5524 317.581 93.482 319.381 93.1714L319.263 92.1047C317.611 92.3802 316.175 92.4681 314.504 92.4798V90.3465H318.15V86.3728H313.156V87.4278ZM334.9 85.4468H333.646V89.6197H332.474V85.6461H331.255V95.504H332.474V90.6864H333.646V96.0432H334.9V85.4468ZM326.261 93.4059H326.965C328.084 93.4059 329.297 93.3297 330.727 93.0776L330.598 91.9406C329.485 92.1575 328.488 92.2395 327.574 92.2571V86.6659H326.261V93.4059ZM342.824 86.5135H341.359L339.261 87.8732V89.2681L341.242 88.0022H341.288V95H342.824V86.5135ZM345.825 95.0938C346.311 95.0938 346.727 94.6835 346.727 94.1795C346.727 93.6872 346.311 93.2828 345.825 93.2769C345.321 93.2828 344.905 93.6872 344.91 94.1795C344.905 94.6835 345.321 95.0938 345.825 95.0938ZM344.91 89.6315C344.905 90.1355 345.321 90.5458 345.825 90.5458C346.311 90.5458 346.727 90.1355 346.727 89.6315C346.727 89.1392 346.311 88.7348 345.825 88.7289C345.321 88.7348 344.905 89.1392 344.91 89.6315ZM351.604 86.5135H350.138L348.04 87.8732V89.2681L350.021 88.0022H350.068V95H351.604V86.5135ZM365.834 90.745H356.152V91.7883H360.453V93.7341H361.743V91.7883H365.834V90.745ZM357.324 95.8322H364.767V94.7773H358.625V92.7612H357.324V95.8322ZM357.382 89.7604H364.591V85.9274H357.382V89.7604ZM358.648 88.7406V86.9472H363.302V88.7406H358.648ZM369.971 86.1853C368.307 86.1794 367.059 87.2402 367.064 88.7406C367.059 90.2469 368.307 91.3018 369.971 91.3077C371.653 91.3018 372.878 90.2469 372.89 88.7406C372.878 87.2402 371.653 86.1794 369.971 86.1853ZM366.584 92.7729L366.748 93.8396C368.618 93.8396 371.161 93.822 373.535 93.3707L373.429 92.4212C371.138 92.7494 368.494 92.7729 366.584 92.7729ZM368.354 88.7406C368.348 87.8615 369.045 87.3106 369.971 87.3106C370.915 87.3106 371.607 87.8615 371.612 88.7406C371.607 89.6256 370.909 90.1707 369.971 90.1707C369.045 90.1707 368.348 89.6256 368.354 88.7406ZM374.062 96.055H375.363V85.4468H374.062V96.055ZM386.054 85.4468H384.799V96.0432H386.054V85.4468ZM377.016 90.03C377.016 92.3685 377.919 93.822 379.302 93.8161C380.615 93.822 381.5 92.556 381.623 90.4872H382.631V95.5275H383.873V85.6344H382.631V89.4322H381.611C381.459 87.4512 380.585 86.2498 379.302 86.2556C377.919 86.2498 377.016 87.6974 377.016 90.03ZM378.223 90.03C378.218 88.3773 378.628 87.4805 379.302 87.4864C380.005 87.4805 380.421 88.3773 380.427 90.03C380.421 91.6886 380.005 92.5795 379.302 92.5736C378.628 92.5795 378.218 91.6886 378.223 90.03ZM398.49 85.4586H397.189V91.4249H398.49V88.8344H399.979V87.756H398.49V85.4586ZM390.59 90.7802H391.469C393.004 90.7802 394.634 90.6864 396.392 90.3348L396.24 89.2681C394.692 89.567 393.257 89.6901 391.903 89.7077V85.9743H390.59V90.7802ZM391.633 95.9026H398.49V91.9406H391.633V95.9026ZM392.911 94.8711V92.9604H397.213V94.8711H392.911ZM405.91 86.5721H400.928V87.6036H404.591C404.357 90.0007 403.062 91.8 400.436 93.1128L401.116 94.1443C403.595 92.9311 404.943 91.2432 405.535 89.2798H408.079V91.0967H405.383V92.1516H408.079V96.0315H409.38V85.4468H408.079V88.2366H405.775C405.869 87.6974 405.91 87.1406 405.91 86.5721ZM420.539 91.3546H410.88V92.4095H415.041V96.0315H416.331V92.4095H420.539V91.3546ZM411.384 89.6197L411.876 90.6395C413.664 90.3817 415.059 89.5553 415.709 88.4124C416.354 89.5553 417.761 90.3817 419.566 90.6395L420.035 89.6197C417.937 89.356 416.553 88.2366 416.465 87.0761H419.648V86.0446H411.771V87.0761H414.953C414.86 88.2366 413.465 89.356 411.384 89.6197ZM424.559 88.2249V86.3846H423.305V88.2835C423.299 90.0886 422.619 91.9582 421.078 92.8901L421.887 93.863C422.883 93.2535 423.563 92.1751 423.944 90.9033C424.295 92.0579 424.917 93.0425 425.872 93.6168L426.587 92.6205C425.151 91.7179 424.565 89.9362 424.559 88.2249ZM425.45 90.1707H426.962V95.5275H428.193V85.6344H426.962V89.0923H425.45V90.1707ZM429.142 96.0432H430.397V85.4468H429.142V96.0432ZM441.31 93.6872H439.082V90.9795C439.903 90.493 440.401 89.7487 440.395 88.8227C440.401 87.1348 438.737 86.0212 436.445 86.0212C434.165 86.0212 432.512 87.1348 432.518 88.8227C432.512 89.7604 433.022 90.5223 433.866 91.0088V93.6872H431.627V94.7538H441.31V93.6872ZM433.796 88.8227C433.79 87.7208 434.863 87.0468 436.445 87.0527C438.022 87.0468 439.118 87.7208 439.118 88.8227C439.118 89.9069 438.022 90.5985 436.445 90.5926C434.863 90.5985 433.79 89.9069 433.796 88.8227ZM435.156 93.6872V91.4835C435.554 91.5655 435.988 91.6124 436.445 91.6124C436.914 91.6124 437.353 91.5655 437.758 91.4776V93.6872H435.156ZM443.29 95.0938C443.777 95.0938 444.193 94.6835 444.193 94.1795C444.193 93.6872 443.777 93.2828 443.29 93.2769C442.786 93.2828 442.37 93.6872 442.376 94.1795C442.37 94.6835 442.786 95.0938 443.29 95.0938Z" fill="#6B6B6B"/>
</svg>
