<svg width="403" height="142" viewBox="0 0 403 142" fill="none" xmlns="http://www.w3.org/2000/svg">
<path d="M9.96716 11.2595V8.62197H6.41341V10.9264C6.38564 14.4107 4.58101 17.7701 0.360928 19.1722L2.27662 21.9485C5.16404 20.9768 7.12138 18.9778 8.21805 16.4374C9.30083 18.6447 11.1749 20.366 13.8541 21.2544L15.742 18.5058C11.744 17.2704 9.95328 14.3274 9.96716 11.2595ZM3.85915 27.6679C3.84527 30.7635 7.19079 32.5681 12.5214 32.5543C17.7549 32.5681 21.031 30.7635 21.0449 27.6679C21.031 24.6 17.7549 22.7814 12.5214 22.7814C7.19079 22.7814 3.84527 24.6 3.85915 27.6679ZM7.4129 27.6679C7.38514 26.2935 9.20366 25.5578 12.5214 25.5578C15.7975 25.5578 17.5466 26.2935 17.5466 27.6679C17.5466 29.0977 15.7975 29.7779 12.5214 29.7779C9.20366 29.7779 7.38514 29.0977 7.4129 27.6679ZM17.2412 22.2817H20.795V16.1459H24.2099V13.203H20.795V7.28932H17.2412V22.2817ZM48.3643 19.1166H25.3205V21.9208H35.0655V24.0863H27.9858V32.2766H45.6157V24.0863H38.5915V21.9208H48.3643V19.1166ZM27.3472 10.8153H30.6233V14.6745H27.5138V17.5063H46.1432V14.6745H43.0059V10.8153H46.3098V7.98341H27.3472V10.8153ZM31.484 29.4447V26.8349H42.1453V29.4447H31.484ZM34.1771 14.6745V10.8153H39.4522V14.6745H34.1771ZM71.7413 9.8991H63.1624V7.26155H59.6364V9.8991H51.0019V12.7588H71.7413V9.8991ZM49.8913 26.5018H59.6364V32.582H63.1624V26.5018H73.0185V23.6144H49.8913V26.5018ZM52.6955 18.0616C52.6816 20.8519 55.9438 22.3789 61.4132 22.3928C66.841 22.3789 70.1172 20.8519 70.131 18.0616C70.1172 15.2575 66.841 13.7305 61.4132 13.7305C55.9438 13.7305 52.6816 15.2575 52.6955 18.0616ZM56.3603 18.0616C56.3603 16.9094 58.0261 16.3542 61.4132 16.3403C64.7588 16.3542 66.4385 16.9094 66.4385 18.0616C66.4385 19.2138 64.7588 19.7552 61.4132 19.7552C58.0261 19.7552 56.3603 19.2138 56.3603 18.0616ZM95.7014 7.28932H92.1199V32.5543H95.7014V7.28932ZM74.5455 25.3912L76.4056 28.2231C85.4288 23.9614 88.108 17.5896 88.1219 9.92687H75.9059V12.7032H84.5126C83.9435 18.3115 81.0699 22.3095 74.5455 25.3912Z" fill="black"/>
<path d="M11.7969 69.8594H2.0625V71.2344H10.0625C10.0547 72.0703 10.0156 73.0703 9.75781 74.3594H0.46875V75.7344H13.375V74.3594H11.5078C11.8047 72.8906 11.8047 71.7188 11.7969 70.7969V69.8594ZM1.95312 78.2188H10.0469V79.3594H1.96875V83.25H12.1406V81.8906H3.70312V80.6875H11.7812V76.8594H1.95312V78.2188ZM26.4688 70.7812H21.5781V69.2344H19.8594V70.7812H14.9375V72.1875H26.4688V70.7812ZM14.2969 79.8125H19.8594V83.4062H21.5781V79.8125H27.2031V78.3906H14.2969V79.8125ZM15.9375 75.2188C15.9375 76.7578 17.7344 77.6094 20.7188 77.6094C23.7031 77.6094 25.5 76.7578 25.5 75.2188C25.5 73.6719 23.7031 72.8281 20.7188 72.8281C17.7344 72.8281 15.9375 73.6719 15.9375 75.2188ZM17.75 75.2188C17.7422 74.5 18.7656 74.125 20.7188 74.125C22.6641 74.125 23.6953 74.5 23.7031 75.2188C23.6953 75.9453 22.6641 76.3203 20.7188 76.3125C18.7656 76.3203 17.7422 75.9453 17.75 75.2188ZM39.9219 69.2656H38.1719V83.3906H39.9219V69.2656ZM28.2188 79.5L29.125 80.8906C34.0703 78.5391 35.7031 74.9688 35.7031 70.7656H28.9375V72.1406H33.9375C33.625 75.3516 31.9219 77.7422 28.2188 79.5ZM50.2344 82.1562C52.6797 82.1562 54.3828 80.5391 54.375 78.2812C54.3828 76.1016 52.8203 74.5391 50.7188 74.5312C49.7891 74.5391 48.9688 74.8984 48.5312 75.3906H48.4219L48.7656 72.3906H53.7812V70.6875H47.0938L46.4062 77.0938H48.2969C48.6484 76.4297 49.2891 76.1172 50.1719 76.125C51.4766 76.1328 52.4141 77.0469 52.4062 78.3438C52.4141 79.5938 51.5 80.5078 50.2344 80.5156C49.1641 80.5078 48.2969 79.8516 48.2344 78.9375H46.25C46.3125 80.8047 47.9766 82.1562 50.2344 82.1562ZM60.2656 82.1562C62.9844 82.1562 64.6094 80.0547 64.6094 76.3438C64.6094 72.6562 62.9766 70.5312 60.2656 70.5312C57.5547 70.5312 55.9141 72.6562 55.9219 76.3438C55.9141 80.0469 57.5391 82.1562 60.2656 82.1562ZM57.9688 76.3438C57.9766 73.6484 58.8516 72.2266 60.2656 72.2188C61.6797 72.2266 62.5547 73.6484 62.5625 76.3438C62.5625 79.0625 61.6797 80.4453 60.2656 80.4531C58.8438 80.4453 57.9688 79.0625 57.9688 76.3438ZM77.6875 69.2812H75.9375V77.5156H73.1719V78.7344H75.9375V79.9688H77.6875V69.2812ZM65.7812 75.625L66 77.0156C67.1094 77.0156 68.3672 77.0078 69.6875 76.9531V79.5781H71.4219V76.8594C72.6172 76.7734 73.8203 76.6484 74.9844 76.4531L74.8906 75.2031C71.8906 75.5859 68.3828 75.6094 65.7812 75.625ZM66.8594 72.2969C66.8594 73.8125 68.2969 74.7734 70.3906 74.7812C72.4453 74.7734 73.8906 73.8125 73.9062 72.2969C73.8906 70.8047 72.4453 69.7891 70.3906 69.7969C68.2969 69.7891 66.8594 70.8047 66.8594 72.2969ZM67.6562 83.1094H78.0156V81.7031H69.3906V78.9375H67.6562V83.1094ZM68.5 72.2969C68.5 71.5312 69.2578 71.0703 70.3906 71.0781C71.4688 71.0703 72.2422 71.5312 72.25 72.2969C72.2422 73.0625 71.4688 73.5078 70.3906 73.5156C69.2578 73.5078 68.5 73.0625 68.5 72.2969ZM88.6562 71.6875V71.5156H91.5781V70.125H83.9531V71.5156H86.8906V71.7031C86.8906 73.5391 85.6875 75.4141 83.4375 76.1562L84.3281 77.5312C86.0078 76.9688 87.1797 75.7812 87.7969 74.3047C88.4141 75.6328 89.5312 76.7031 91.1094 77.2188L91.9844 75.875C89.7969 75.1406 88.6562 73.4141 88.6562 71.6875ZM85.6719 79.75H93.5625V83.3906H95.2969V78.3594H85.6719V79.75ZM91.1562 74.1875H93.5625V77.6875H95.2969V69.2656H93.5625V72.7656H91.1562V74.1875ZM109.062 69.2812H107.312V77.1094H109.062V69.2812ZM98.0156 71.3281H102.812V72.6719H98.0469V76.8438H99.25C101.984 76.8438 103.898 76.7891 106.125 76.4219L105.906 75.0156C103.891 75.3594 102.164 75.4062 99.75 75.4219V74H104.531V69.9219H98.0156V71.3281ZM99.7031 83.2188H109.062V77.7344H107.328V79.1094H101.438V77.7344H99.7031V83.2188ZM101.438 81.8125V80.4531H107.328V81.8125H101.438ZM122.453 69.9531H112.719V71.3438H120.719C120.719 72.375 120.688 73.5312 120.352 75.0625H111.125V76.4688H124.031V75.0625H122.109C122.461 73.3984 122.461 72.1484 122.453 71.0469V69.9531ZM112.672 83.2188H122.438V78.1094H112.672V83.2188ZM114.375 81.8125V79.4688H120.719V81.8125H114.375ZM140.938 69.2656H139.266V83.3906H140.938V69.2656ZM128.719 72.9062H135.547V71.5156H133.016V69.625H131.281V71.5156H128.719V72.9062ZM129.109 77C129.102 78.9688 130.375 80.3516 132.109 80.3438C133.344 80.3516 134.344 79.6641 134.82 78.5625H136.578V82.7344H138.188V69.5312H136.578V73.9062H134.875V75.3281H136.578V77.1719H135.125V77C135.125 75.0234 133.859 73.6484 132.109 73.6406C130.375 73.6484 129.102 75.0234 129.109 77ZM130.625 77C130.617 75.8281 131.227 75.1328 132.109 75.125C132.992 75.1328 133.609 75.8281 133.625 77C133.609 78.1484 132.992 78.8672 132.109 78.875C131.227 78.8672 130.617 78.1484 130.625 77ZM148.656 70.25H143.109V77.25H144.047C146.242 77.2578 147.602 77.2031 149.266 76.8906L149.078 75.4844C147.703 75.7422 146.5 75.8125 144.781 75.8281V74.3438H148.516V73.0156H144.781V71.6406H148.656V70.25ZM144.984 79.9062H152.922V83.3906H154.656V78.5H144.984V79.9062ZM149.906 77.7656H151.531V74.2031H153V77.875H154.656V69.2812H153V72.8125H151.531V69.5469H149.906V77.7656ZM168.156 69.2656H166.406V83.4062H168.156V69.2656ZM156.859 75.2812C156.852 78.3516 158.406 80.2812 160.547 80.2812C162.664 80.2812 164.227 78.3516 164.234 75.2812C164.227 72.2344 162.664 70.2969 160.547 70.2969C158.406 70.2969 156.852 72.2344 156.859 75.2812ZM158.531 75.2812C158.531 73.125 159.352 71.8594 160.547 71.8594C161.734 71.8594 162.547 73.125 162.547 75.2812C162.547 77.4531 161.734 78.7109 160.547 78.7188C159.352 78.7109 158.531 77.4531 158.531 75.2812ZM179.047 78.4531V77.875H177.359V78.4531C177.352 79.8281 176.469 81.2656 174.641 81.9062L175.5 83.1719C176.805 82.7031 177.703 81.8203 178.211 80.7344C178.656 81.8516 179.5 82.8047 180.844 83.2969C182.125 82.7812 182.953 81.7969 183.414 80.6797C183.906 81.8125 184.812 82.7109 186.188 83.1719L187.031 81.9062C185.18 81.3203 184.305 79.9297 184.312 78.4531V77.875H182.609V78.4531C182.602 79.5234 182.031 80.8047 180.797 81.6406C179.586 80.8594 179.047 79.6328 179.047 78.4531ZM174.281 73.3906C174.281 75.3516 175.906 76.7422 178.094 76.7344C180.273 76.7422 181.898 75.3516 181.891 73.3906C181.898 71.4062 180.273 70.0312 178.094 70.0312C175.906 70.0312 174.281 71.4062 174.281 73.3906ZM175.984 73.3906C175.977 72.2344 176.859 71.4922 178.094 71.5C179.305 71.4922 180.188 72.2344 180.188 73.3906C180.188 74.5469 179.305 75.2891 178.094 75.2969C176.859 75.2891 175.977 74.5469 175.984 73.3906ZM184.047 77.2812H185.797V69.2812H184.047V77.2812ZM191.719 70.2969C189.594 70.2969 188.086 72.2344 188.094 75.2812C188.086 78.3516 189.594 80.2812 191.719 80.2812C193.68 80.2812 195.117 78.6016 195.305 75.875H197.984V83.4062H199.703V69.2656H197.984V74.4688H195.289C195.039 71.8906 193.625 70.2969 191.719 70.2969ZM189.766 75.2812C189.758 73.125 190.555 71.8594 191.719 71.8594C192.891 71.8594 193.68 73.125 193.688 75.2812C193.68 77.4531 192.891 78.7109 191.719 78.7188C190.555 78.7109 189.758 77.4531 189.766 75.2812ZM214.594 80.25H211.625V76.6406C212.719 75.9922 213.383 75 213.375 73.7656C213.383 71.5156 211.164 70.0312 208.109 70.0312C205.07 70.0312 202.867 71.5156 202.875 73.7656C202.867 75.0156 203.547 76.0312 204.672 76.6797V80.25H201.688V81.6719H214.594V80.25ZM204.578 73.7656C204.57 72.2969 206 71.3984 208.109 71.4062C210.211 71.3984 211.672 72.2969 211.672 73.7656C211.672 75.2109 210.211 76.1328 208.109 76.125C206 76.1328 204.57 75.2109 204.578 73.7656ZM206.391 80.25V77.3125C206.922 77.4219 207.5 77.4844 208.109 77.4844C208.734 77.4844 209.32 77.4219 209.859 77.3047V80.25H206.391ZM217.234 82.125C217.883 82.125 218.438 81.5781 218.438 80.9062C218.438 80.25 217.883 79.7109 217.234 79.7031C216.562 79.7109 216.008 80.25 216.016 80.9062C216.008 81.5781 216.562 82.125 217.234 82.125Z" fill="#333333"/>
<path d="M8.98467 99.0659C9.78174 99.0718 10.4323 98.4212 10.4264 97.6124C10.4323 96.8154 9.78174 96.1648 8.98467 96.1707C8.17587 96.1648 7.52532 96.8154 7.53118 97.6124C7.52532 98.4212 8.17587 99.0718 8.98467 99.0659ZM24.4983 92.4432H18.6023V93.4981H19.5635V98.4681C19.1181 98.474 18.6902 98.474 18.2975 98.4798L18.4265 99.5582C20.2492 99.5582 22.7108 99.5172 24.8617 99.148L24.7914 98.2102C24.3459 98.263 23.8829 98.304 23.4082 98.3392V93.4981H24.4983V92.4432ZM20.8411 98.4447V93.4981H22.154V98.4036C21.7144 98.4212 21.2749 98.4388 20.8411 98.4447ZM24.1701 96.4051H25.9518V102.043H27.2412V91.4468H25.9518V95.3502H24.1701V96.4051ZM37.4977 91.7516H29.5972V92.7362H31.0507V94.3421H29.6559V95.3267H37.439V94.3421H36.0442V92.7362H37.4977V91.7516ZM28.7298 97.0264H38.3885V95.9948H28.7298V97.0264ZM29.8668 98.6908H35.9035V99.359H29.8786V101.949H37.4742V100.977H31.1562V100.262H37.1812V97.7414H29.8668V98.6908ZM32.3518 94.3421V92.7362H34.7313V94.3421H32.3518ZM41.1665 100.168H39.6779L39.0684 103.45H40.1819L41.1665 100.168ZM50.3681 92.408H45.527V99.4879H46.371C48.3461 99.4879 49.6296 99.4293 51.1182 99.1363L50.9776 98.0813C49.6648 98.3275 48.4984 98.3978 46.8398 98.4095V93.4747H50.3681V92.408ZM49.8054 96.241H52.6069V102.055H53.908V91.4468H52.6069V95.1743H49.8054V96.241ZM61.5271 92.4432H55.6311V93.4981H56.5923V98.4681C56.1468 98.474 55.719 98.474 55.3263 98.4798L55.4553 99.5582C57.278 99.5582 59.7395 99.5172 61.8905 99.148L61.8201 98.2102C61.3747 98.263 60.9117 98.304 60.437 98.3392V93.4981H61.5271V92.4432ZM57.8699 98.4447V93.4981H59.1828V98.4036C58.7432 98.4212 58.3036 98.4388 57.8699 98.4447ZM61.1989 96.4051H62.9806V102.043H64.27V91.4468H62.9806V95.3502H61.1989V96.4051ZM74.5264 91.7516H66.626V92.7362H68.0795V94.3421H66.6846V95.3267H74.4678V94.3421H73.073V92.7362H74.5264V91.7516ZM65.7586 97.0264H75.4173V95.9948H65.7586V97.0264ZM66.8956 98.6908H72.9323V99.359H66.9073V101.949H74.503V100.977H68.185V100.262H74.21V97.7414H66.8956V98.6908ZM69.3806 94.3421V92.7362H71.7601V94.3421H69.3806ZM85.791 96.9209H76.1323V97.9641H85.791V96.9209ZM77.1287 93.9318C77.1287 95.2798 78.6349 96.1003 80.9499 96.1003C83.2591 96.1003 84.7653 95.2798 84.7712 93.9318C84.7653 92.5897 83.2591 91.7809 80.9499 91.7868C78.6349 91.7809 77.1287 92.5897 77.1287 93.9318ZM77.3279 101.832H84.7009V100.777H78.629V98.7494H77.3279V101.832ZM78.4884 93.9318C78.4766 93.2344 79.4085 92.83 80.9499 92.83C82.4972 92.83 83.4232 93.2344 83.4232 93.9318C83.4232 94.6527 82.4972 95.0395 80.9499 95.0337C79.4085 95.0395 78.4766 94.6527 78.4884 93.9318ZM89.706 101H95.602V99.7223H91.8276V99.6637L93.3397 98.1634C95.0101 96.5868 95.4672 95.8132 95.4731 94.8578C95.4672 93.4337 94.3009 92.3963 92.5661 92.3963C90.8723 92.3963 89.665 93.4395 89.6709 95.0454H91.1243C91.1185 94.1838 91.6811 93.6388 92.5544 93.6388C93.3808 93.6388 94.0079 94.137 94.0079 94.9282C94.0079 95.6432 93.5624 96.1472 92.7068 97.0029L89.706 99.8982V101ZM98.1456 92.4197H96.9149V99.4762H101.076V92.4197H99.8687V94.8696H98.1456V92.4197ZM98.1456 98.4212V95.9011H99.8687V98.4212H98.1456ZM102.119 101.527H103.35V96.6161H104.475V102.043H105.73V91.4468H104.475V95.5377H103.35V91.6344H102.119V101.527ZM113.7 93.2637V93.1348H115.892V92.0915H110.172V93.1348H112.376V93.2754C112.376 94.6527 111.473 96.0593 109.785 96.6161L110.453 97.6476C111.713 97.2256 112.593 96.3348 113.056 95.2271C113.519 96.2234 114.357 97.0264 115.541 97.4132L116.197 96.4051C114.556 95.8542 113.7 94.5589 113.7 93.2637ZM111.461 99.3121H117.381V102.043H118.682V98.2688H111.461V99.3121ZM115.576 95.1392H117.381V97.7648H118.682V91.4468H117.381V94.0725H115.576V95.1392ZM129.009 91.4586H127.696V97.3311H129.009V91.4586ZM120.722 92.9941H124.32V94.0022H120.745V97.1318H121.648C123.699 97.1318 125.135 97.0908 126.805 96.8154L126.641 95.7604C125.129 96.0183 123.834 96.0535 122.023 96.0652V94.9985H125.61V91.9391H120.722V92.9941ZM121.988 101.914H129.009V97.8H127.708V98.8315H123.289V97.8H121.988V101.914ZM123.289 100.859V99.8396H127.708V100.859H123.289ZM134.037 97.7648C134.037 99.9744 134.694 101.809 135.796 103.391H137.202C136.393 102.219 135.585 99.863 135.585 97.7648C135.585 95.6666 136.393 93.3164 137.202 92.1501H135.796C134.694 93.7208 134.037 95.5611 134.037 97.7648ZM141.692 92.5135H140.226L138.128 93.8732V95.2681L140.109 94.0022H140.156V101H141.692V92.5135ZM146.884 101.117C148.924 101.117 150.143 99.5407 150.143 96.7568C150.143 93.9904 148.918 92.3963 146.884 92.3963C144.851 92.3963 143.62 93.9904 143.626 96.7568C143.62 99.5348 144.839 101.117 146.884 101.117ZM145.161 96.7568C145.167 94.7348 145.824 93.6681 146.884 93.6622C147.945 93.6681 148.602 94.7348 148.607 96.7568C148.607 98.7963 147.945 99.8337 146.884 99.8396C145.818 99.8337 145.161 98.7963 145.161 96.7568ZM154.55 101.117C156.59 101.117 157.809 99.5407 157.809 96.7568C157.809 93.9904 156.584 92.3963 154.55 92.3963C152.517 92.3963 151.286 93.9904 151.292 96.7568C151.286 99.5348 152.505 101.117 154.55 101.117ZM152.827 96.7568C152.833 94.7348 153.49 93.6681 154.55 93.6622C155.611 93.6681 156.268 94.7348 156.273 96.7568C156.273 98.7963 155.611 99.8337 154.55 99.8396C153.484 99.8337 152.827 98.7963 152.827 96.7568ZM167.62 91.4586H166.307V97.6359H164.232V98.5502H166.307V99.4762H167.62V91.4586ZM158.688 96.2176L158.852 97.2608C159.684 97.2608 160.628 97.2549 161.619 97.2139V99.1831H162.92V97.1436C163.816 97.0791 164.719 96.9853 165.592 96.8388L165.522 95.9011C163.271 96.1883 160.64 96.2058 158.688 96.2176ZM159.497 93.7208C159.497 94.8578 160.575 95.5787 162.146 95.5846C163.687 95.5787 164.772 94.8578 164.783 93.7208C164.772 92.6014 163.687 91.8395 162.146 91.8454C160.575 91.8395 159.497 92.6014 159.497 93.7208ZM160.095 101.832H167.866V100.777H161.396V98.7026H160.095V101.832ZM160.728 93.7208C160.728 93.1465 161.296 92.8007 162.146 92.8065C162.955 92.8007 163.535 93.1465 163.541 93.7208C163.535 94.2952 162.955 94.6293 162.146 94.6351C161.296 94.6293 160.728 94.2952 160.728 93.7208ZM172.262 97.7648C172.262 95.5611 171.605 93.7208 170.504 92.1501H169.097C169.906 93.3164 170.715 95.6666 170.715 97.7648C170.715 99.863 169.906 102.219 169.097 103.391H170.504C171.605 101.809 172.262 99.9744 172.262 97.7648ZM180.268 92.115H178.967L176.224 102.278H177.537L180.268 92.115ZM193.255 97.3546H183.597V98.4095H187.758V102.032H189.047V98.4095H193.255V97.3546ZM184.101 95.6197L184.593 96.6395C186.381 96.3817 187.775 95.5553 188.426 94.4124C189.071 95.5553 190.477 96.3817 192.282 96.6395L192.751 95.6197C190.653 95.356 189.27 94.2366 189.182 93.0761H192.364V92.0446H184.488V93.0761H187.67C187.576 94.2366 186.181 95.356 184.101 95.6197ZM202.328 91.4468H201.003V99.0894H202.328V95.5846H203.805V94.4945H202.328V91.4468ZM193.935 96.956L194.474 97.9875C197.61 97.0791 199.45 95.0688 199.444 92.2556H194.381V93.3223H198.02C197.797 94.934 196.362 96.2527 193.935 96.956ZM195.518 101.832H202.726V100.777H196.842V98.304H195.518V101.832ZM208.751 92.4432H207.521V99.4762H211.682V96.4403H212.913V101.551H214.155V91.6461H212.913V95.3619H211.682V92.4432H210.498V94.9399H208.751V92.4432ZM208.751 98.4095V95.9831H210.498V98.4095H208.751ZM215.081 102.043H216.335V91.4468H215.081V102.043ZM223.04 92.9003V92.115H221.657V92.9003C221.651 94.5296 220.045 96.1707 217.859 96.5692L218.434 97.6593C220.203 97.2842 221.657 96.2 222.354 94.7875C223.046 96.2117 224.499 97.2901 226.275 97.6593L226.861 96.5692C224.64 96.1824 223.04 94.5355 223.04 92.9003ZM217.566 100.695H227.248V99.6168H217.566V100.695ZM236.555 97.0029H230.448V95.6315H236.215V94.6117H230.448V93.334H236.461V92.2791H229.124V98.0344H236.555V97.0029ZM227.94 100.754H237.622V99.6872H227.94V100.754ZM250.293 92.5838H246.624V91.4234H245.335V92.5838H241.642V93.6388H250.293V92.5838ZM241.162 99.359H245.335V102.055H246.624V99.359H250.844V98.2923H241.162V99.359ZM242.393 95.9128C242.393 97.0674 243.741 97.7062 245.979 97.7062C248.218 97.7062 249.566 97.0674 249.566 95.9128C249.566 94.7523 248.218 94.1194 245.979 94.1194C243.741 94.1194 242.393 94.7523 242.393 95.9128ZM243.752 95.9128C243.746 95.3736 244.514 95.0923 245.979 95.0923C247.439 95.0923 248.212 95.3736 248.218 95.9128C248.212 96.4578 247.439 96.7392 245.979 96.7333C244.514 96.7392 243.746 96.4578 243.752 95.9128ZM260.385 91.4468H259.073V102.043H260.385V91.4468ZM251.606 99.1245L252.286 100.168C255.996 98.4036 257.221 95.7252 257.221 92.5721H252.145V93.6036H255.896C255.662 96.0124 254.384 97.8058 251.606 99.1245ZM271.591 99.7341H267.372V98.011H270.689V96.9443H264.359V95.5729H270.443V92.1736H263.034V93.2285H269.153V94.5414H263.058V98.011H266.082V99.7341H261.909V100.812H271.591V99.7341ZM278.988 93.3223V92.1032H277.675V93.3106C277.669 94.8578 276.802 96.323 275.096 96.8974L275.788 97.9289C277.03 97.4659 277.898 96.5516 278.349 95.3853C278.8 96.4285 279.615 97.2549 280.758 97.6828L281.473 96.663C279.826 96.1003 278.982 94.7289 278.988 93.3223ZM277.018 101.832H284.239V100.777H278.343V98.4681H277.018V101.832ZM280.594 94.8578H282.703V99.3238H284.005V91.4586H282.703V93.7912H280.594V94.8578ZM294.378 91.4468H293.077V94.0842H291.272V95.1509H293.077V97.7414H294.378V91.4468ZM285.47 96.6864L286.15 97.7179C287.41 97.2725 288.295 96.3582 288.758 95.2329C289.227 96.2293 290.059 97.0381 291.237 97.4366L291.893 96.4051C290.252 95.8542 289.397 94.5531 289.397 93.2637V93.1934H291.589V92.1384H285.868V93.1934H288.072V93.2754C288.072 94.6762 287.175 96.1003 285.47 96.6864ZM287.193 100.027C287.181 101.299 288.558 102.037 290.791 102.043C293.036 102.037 294.408 101.299 294.413 100.027C294.408 98.7553 293.036 98.011 290.791 98.011C288.558 98.011 287.181 98.7553 287.193 100.027ZM288.482 100.027C288.476 99.3648 289.32 99.0073 290.791 99.0073C292.274 99.0073 293.112 99.3648 293.112 100.027C293.112 100.684 292.274 101.041 290.791 101.035C289.32 101.041 288.476 100.684 288.482 100.027ZM302.736 93.9904V92.3025H301.411V93.9904C301.405 96.0359 300.374 98.0579 298.61 98.8198L299.407 99.9099C300.69 99.3062 301.605 98.0872 302.091 96.5985C302.583 97.9817 303.474 99.1011 304.693 99.6637L305.467 98.6205C303.75 97.882 302.724 95.9362 302.736 93.9904ZM306.229 102.055H307.542V91.4468H306.229V102.055ZM315.313 101.117C317.148 101.117 318.425 99.904 318.419 98.2102C318.425 96.5751 317.253 95.4029 315.677 95.397C314.979 95.4029 314.364 95.6725 314.036 96.0417H313.953L314.211 93.7912H317.974V92.5135H312.957L312.441 97.3194H313.86C314.123 96.8212 314.604 96.5868 315.266 96.5926C316.245 96.5985 316.948 97.2842 316.942 98.2571C316.948 99.1949 316.263 99.8806 315.313 99.8864C314.51 99.8806 313.86 99.3883 313.813 98.7026H312.324C312.371 100.103 313.619 101.117 315.313 101.117ZM321.139 100.168H319.65L319.041 103.45H320.154L321.139 100.168ZM325.546 101.117C327.586 101.117 328.805 99.5407 328.805 96.7568C328.805 93.9904 327.58 92.3963 325.546 92.3963C323.513 92.3963 322.282 93.9904 322.288 96.7568C322.282 99.5348 323.501 101.117 325.546 101.117ZM323.823 96.7568C323.829 94.7348 324.485 93.6681 325.546 93.6622C326.607 93.6681 327.263 94.7348 327.269 96.7568C327.269 98.7963 326.607 99.8337 325.546 99.8396C324.48 99.8337 323.823 98.7963 323.823 96.7568ZM333.212 101.117C335.252 101.117 336.471 99.5407 336.471 96.7568C336.471 93.9904 335.246 92.3963 333.212 92.3963C331.178 92.3963 329.948 93.9904 329.954 96.7568C329.948 99.5348 331.167 101.117 333.212 101.117ZM331.489 96.7568C331.495 94.7348 332.151 93.6681 333.212 93.6622C334.273 93.6681 334.929 94.7348 334.935 96.7568C334.935 98.7963 334.273 99.8337 333.212 99.8396C332.146 99.8337 331.489 98.7963 331.489 96.7568ZM340.878 101.117C342.918 101.117 344.137 99.5407 344.137 96.7568C344.137 93.9904 342.912 92.3963 340.878 92.3963C338.844 92.3963 337.614 93.9904 337.62 96.7568C337.614 99.5348 338.833 101.117 340.878 101.117ZM339.155 96.7568C339.161 94.7348 339.817 93.6681 340.878 93.6622C341.939 93.6681 342.595 94.7348 342.601 96.7568C342.601 98.7963 341.939 99.8337 340.878 99.8396C339.812 99.8337 339.155 98.7963 339.155 96.7568ZM353.948 91.4586H352.635V97.6359H350.56V98.5502H352.635V99.4762H353.948V91.4586ZM345.016 96.2176L345.18 97.2608C346.012 97.2608 346.956 97.2549 347.946 97.2139V99.1831H349.247V97.1436C350.144 97.0791 351.047 96.9853 351.92 96.8388L351.85 95.9011C349.599 96.1883 346.968 96.2058 345.016 96.2176ZM345.825 93.7208C345.825 94.8578 346.903 95.5787 348.474 95.5846C350.015 95.5787 351.099 94.8578 351.111 93.7208C351.099 92.6014 350.015 91.8395 348.474 91.8454C346.903 91.8395 345.825 92.6014 345.825 93.7208ZM346.423 101.832H354.194V100.777H347.724V98.7026H346.423V101.832ZM347.055 93.7208C347.055 93.1465 347.624 92.8007 348.474 92.8065C349.283 92.8007 349.863 93.1465 349.869 93.7208C349.863 94.2952 349.283 94.6293 348.474 94.6351C347.624 94.6293 347.055 94.2952 347.055 93.7208ZM367.944 97.8117H358.285V98.8784H362.458V102.055H363.747V98.8784H367.944V97.8117ZM358.812 96.1355L359.281 97.167C361.045 96.9443 362.423 96.1883 363.114 95.1567C363.8 96.1765 365.16 96.9443 366.912 97.167L367.393 96.1355C365.277 95.8776 363.894 94.7816 363.771 93.7326H367.041V92.7011H363.747V91.4586H362.458V92.7011H359.176V93.7326H362.446C362.317 94.7934 360.928 95.8776 358.812 96.1355ZM376.958 91.4468H375.656V102.02H376.958V96.6747H378.528V95.5846H376.958V91.4468ZM368.6 99.1245L369.338 100.133C372.861 98.3978 374.15 95.6608 374.156 92.5487H369.174V93.6271H372.831C372.574 96.0417 371.179 97.8351 368.6 99.1245ZM385.772 93.2637V93.1348H387.964V92.0915H382.244V93.1348H384.448V93.2754C384.448 94.6527 383.545 96.0593 381.857 96.6161L382.525 97.6476C383.785 97.2256 384.665 96.3348 385.128 95.2271C385.591 96.2234 386.429 97.0264 387.613 97.4132L388.269 96.4051C386.628 95.8542 385.772 94.5589 385.772 93.2637ZM383.533 99.3121H389.453V102.043H390.754V98.2688H383.533V99.3121ZM387.648 95.1392H389.453V97.7648H390.754V91.4468H389.453V94.0725H387.648V95.1392ZM401.081 91.4586H399.768V97.3311H401.081V91.4586ZM392.793 92.9941H396.392V94.0022H392.817V97.1318H393.72C395.771 97.1318 397.207 97.0908 398.877 96.8154L398.713 95.7604C397.201 96.0183 395.906 96.0535 394.095 96.0652V94.9985H397.681V91.9391H392.793V92.9941ZM394.059 101.914H401.081V97.8H399.78V98.8315H395.361V97.8H394.059V101.914ZM395.361 100.859V99.8396H399.78V100.859H395.361ZM8.98467 117.066C9.78174 117.072 10.4323 116.421 10.4264 115.612C10.4323 114.815 9.78174 114.165 8.98467 114.171C8.17587 114.165 7.52532 114.815 7.53118 115.612C7.52532 116.421 8.17587 117.072 8.98467 117.066ZM27.4873 110.584H23.8185V109.423H22.5291V110.584H18.8367V111.639H27.4873V110.584ZM18.3562 117.359H22.5291V120.055H23.8185V117.359H28.0383V116.292H18.3562V117.359ZM19.5869 113.913C19.5869 115.067 20.9349 115.706 23.1738 115.706C25.4126 115.706 26.7606 115.067 26.7606 113.913C26.7606 112.752 25.4126 112.119 23.1738 112.119C20.9349 112.119 19.5869 112.752 19.5869 113.913ZM20.9466 113.913C20.9408 113.374 21.7086 113.092 23.1738 113.092C24.6331 113.092 25.4067 113.374 25.4126 113.913C25.4067 114.458 24.6331 114.739 23.1738 114.733C21.7086 114.739 20.9408 114.458 20.9466 113.913ZM37.5797 109.447H36.2669V120.043H37.5797V109.447ZM28.8002 117.125L29.48 118.168C33.1899 116.404 34.4149 113.725 34.4149 110.572H29.3394V111.604H33.0903C32.8559 114.012 31.5782 115.806 28.8002 117.125ZM45.7497 111.287V111.158H47.9534V110.115H42.198V111.158H44.4369V111.287C44.4369 112.676 43.5402 114.048 41.8347 114.616L42.5263 115.624C43.7629 115.202 44.642 114.341 45.1109 113.256C45.5739 114.247 46.412 115.038 47.6017 115.437L48.2582 114.429C46.5878 113.878 45.7497 112.594 45.7497 111.287ZM43.253 117.371H49.0083V120.043H50.3095V116.327H43.253V117.371ZM49.0083 115.835H50.3095V113.186H51.7864V112.096H50.3095V109.447H49.0083V115.835ZM56.2055 110.971V110.021H54.8926V111.029C54.8868 112.559 54.0076 113.971 52.2553 114.546L52.9468 115.601C54.2304 115.149 55.1153 114.241 55.5842 113.086C56.0355 114.089 56.8443 114.862 57.9989 115.273L58.7022 114.253C57.0436 113.731 56.1996 112.412 56.2055 110.971ZM54.0135 118.004C54.0018 119.293 55.3791 120.032 57.6121 120.032C59.8568 120.032 61.2282 119.293 61.2341 118.004C61.2282 116.714 59.8568 115.958 57.6121 115.964C55.3791 115.958 54.0018 116.714 54.0135 118.004ZM55.3029 118.004C55.297 117.336 56.141 116.978 57.6121 116.972C59.0949 116.978 59.933 117.336 59.933 118.004C59.933 118.648 59.0949 119.006 57.6121 119.012C56.141 119.006 55.297 118.648 55.3029 118.004ZM57.7879 112.565H59.8978V115.683H61.1989V109.447H59.8978V111.498H57.7879V112.565ZM72.3579 114.921H62.6993V115.964H72.3579V114.921ZM63.6956 111.932C63.6956 113.28 65.2018 114.1 67.5169 114.1C69.826 114.1 71.3323 113.28 71.3381 111.932C71.3323 110.59 69.826 109.781 67.5169 109.787C65.2018 109.781 63.6956 110.59 63.6956 111.932ZM63.8949 119.832H71.2678V118.777H65.196V116.749H63.8949V119.832ZM65.0553 111.932C65.0436 111.234 65.9755 110.83 67.5169 110.83C69.0641 110.83 69.9901 111.234 69.9901 111.932C69.9901 112.653 69.0641 113.04 67.5169 113.034C65.9755 113.04 65.0436 112.653 65.0553 111.932ZM77.4803 110.42H76.2495V117.476H80.4107V110.42H79.2034V112.87H77.4803V110.42ZM77.4803 116.421V113.901H79.2034V116.421H77.4803ZM81.454 119.527H82.6847V114.616H83.81V120.043H85.0642V109.447H83.81V113.538H82.6847V109.634H81.454V119.527ZM91.7573 113.186H90.4679V114.569H86.295V115.612H95.9537V114.569H91.7573V113.186ZM86.8225 112.764L87.2914 113.784C89.0379 113.52 90.421 112.729 91.1009 111.621C91.7749 112.735 93.1639 113.52 94.8987 113.784L95.4028 112.764C93.1932 112.489 91.769 111.316 91.769 110.021V109.623H90.4445V110.021C90.4445 111.287 89.0086 112.489 86.8225 112.764ZM87.4203 118.168C87.4203 119.369 88.7976 120.032 91.1126 120.032C93.4101 120.032 94.7756 119.369 94.7815 118.168C94.7756 116.978 93.4101 116.298 91.1126 116.304C88.7976 116.298 87.4203 116.978 87.4203 118.168ZM88.7448 118.168C88.739 117.588 89.5536 117.3 91.1126 117.3C92.6423 117.3 93.4687 117.588 93.4804 118.168C93.4687 118.748 92.6423 119.047 91.1126 119.047C89.5536 119.047 88.739 118.748 88.7448 118.168ZM99.8687 109.904C98.3156 109.904 97.2138 110.766 97.2196 112.037C97.2138 113.11 98.0226 113.901 99.2357 114.106V115.015C98.298 115.044 97.4072 115.05 96.6453 115.05L96.7859 116.093C98.5793 116.099 101.041 116.052 103.245 115.659L103.139 114.71C102.319 114.827 101.434 114.903 100.549 114.956V114.1C101.727 113.883 102.518 113.092 102.53 112.037C102.518 110.766 101.416 109.904 99.8687 109.904ZM98.0987 119.821H105.437V118.766H99.3998V116.831H98.0987V119.821ZM98.4387 112.037C98.4269 111.322 99.0248 110.9 99.8687 110.9C100.719 110.9 101.293 111.322 101.299 112.037C101.293 112.735 100.719 113.168 99.8687 113.174C99.0248 113.168 98.4269 112.735 98.4387 112.037ZM103.76 117.547H105.061V113.96H106.491V112.881H105.061V109.459H103.76V117.547ZM116.724 117.734H114.275V115.988H115.822V114.933H109.492V113.573H115.576V110.174H108.168V111.229H114.286V112.53H108.191V115.988H109.609V117.734H107.042V118.812H116.724V117.734ZM110.875 117.734V115.988H112.997V117.734H110.875ZM120.417 109.787C118.799 109.793 117.604 110.783 117.604 112.178C117.604 113.579 118.799 114.563 120.417 114.569C122.023 114.563 123.218 113.579 123.23 112.178C123.218 110.783 122.023 109.793 120.417 109.787ZM118.87 112.178C118.87 111.375 119.526 110.859 120.417 110.865C121.308 110.859 121.958 111.375 121.964 112.178C121.958 112.998 121.308 113.514 120.417 113.514C119.526 113.514 118.87 112.998 118.87 112.178ZM119.209 116.281H124.941V117.066H119.233V119.914H126.559V118.883H120.511V118.027H126.242V115.261H119.209V116.281ZM124.93 114.804H126.242V109.447H124.93V114.804ZM137.472 117.734H133.252V116.011H136.569V114.944H130.24V113.573H136.323V110.174H128.915V111.229H135.034V112.541H128.938V116.011H131.963V117.734H127.79V118.812H137.472V117.734ZM147.834 115.612H138.152V116.644H142.325V120.043H143.614V116.644H147.834V115.612ZM139.324 114.511H146.662V109.869H145.349V111.17H140.613V109.869H139.324V114.511ZM140.613 113.456V112.201H145.349V113.456H140.613ZM157.422 109.447H156.133V113.28H154.14V114.335H156.133V120.055H157.422V109.447ZM149.018 117.617H149.85C151.743 117.605 153.103 117.547 154.644 117.312L154.515 116.257C153.15 116.474 151.942 116.533 150.331 116.538V114.358H153.554V113.327H150.331V111.428H153.976V110.361H149.018V117.617ZM165.194 119.117C167.028 119.117 168.37 118.08 168.358 116.644C168.37 115.577 167.69 114.809 166.495 114.651V114.581C167.421 114.388 168.054 113.702 168.042 112.752C168.054 111.451 166.94 110.396 165.217 110.396C163.558 110.396 162.263 111.375 162.228 112.799H163.693C163.723 112.084 164.408 111.639 165.205 111.639C166.032 111.639 166.571 112.119 166.565 112.834C166.571 113.573 165.944 114.077 165.041 114.077H164.279V115.249H165.041C166.143 115.255 166.8 115.8 166.8 116.562C166.8 117.318 166.126 117.834 165.194 117.828C164.309 117.834 163.629 117.382 163.588 116.703H162.052C162.087 118.133 163.383 119.117 165.194 119.117ZM172.824 119.117C174.864 119.117 176.083 117.541 176.083 114.757C176.083 111.99 174.858 110.396 172.824 110.396C170.791 110.396 169.56 111.99 169.566 114.757C169.56 117.535 170.779 119.117 172.824 119.117ZM171.101 114.757C171.107 112.735 171.764 111.668 172.824 111.662C173.885 111.668 174.542 112.735 174.548 114.757C174.548 116.796 173.885 117.834 172.824 117.84C171.758 117.834 171.101 116.796 171.101 114.757ZM180.01 109.787C178.392 109.793 177.197 110.783 177.197 112.178C177.197 113.579 178.392 114.563 180.01 114.569C181.616 114.563 182.811 113.579 182.823 112.178C182.811 110.783 181.616 109.793 180.01 109.787ZM178.463 112.178C178.463 111.375 179.119 110.859 180.01 110.865C180.901 110.859 181.551 111.375 181.557 112.178C181.551 112.998 180.901 113.514 180.01 113.514C179.119 113.514 178.463 112.998 178.463 112.178ZM178.803 116.281H184.534V117.066H178.826V119.914H186.152V118.883H180.104V118.027H185.836V115.261H178.803V116.281ZM184.523 114.804H185.836V109.447H184.523V114.804ZM199.046 109.447H197.733V120.055H199.046V109.447ZM190.571 113.96C190.565 116.263 191.732 117.711 193.337 117.711C194.926 117.711 196.098 116.263 196.104 113.96C196.098 111.674 194.926 110.22 193.337 110.22C191.732 110.22 190.565 111.674 190.571 113.96ZM191.825 113.96C191.825 112.342 192.441 111.393 193.337 111.393C194.228 111.393 194.838 112.342 194.838 113.96C194.838 115.589 194.228 116.533 193.337 116.538C192.441 116.533 191.825 115.589 191.825 113.96ZM209.701 109.447H208.447V113.62H207.274V109.646H206.055V119.504H207.274V114.686H208.447V120.043H209.701V109.447ZM201.062 117.406H201.765C202.885 117.406 204.098 117.33 205.528 117.078L205.399 115.941C204.285 116.157 203.289 116.24 202.375 116.257V110.666H201.062V117.406ZM222.126 109.447H220.825V120.02H222.126V114.675H223.697V113.585H222.126V109.447ZM213.768 117.125L214.507 118.133C218.029 116.398 219.318 113.661 219.324 110.549H214.343V111.627H218C217.742 114.042 216.347 115.835 213.768 117.125ZM232.769 112.201H226.756V109.634H225.455V113.256H232.769V112.201ZM224.201 115.331H233.871V114.276H224.201V115.331ZM225.326 118.051C225.326 119.293 226.715 119.996 229.018 119.996C231.304 119.996 232.681 119.293 232.687 118.051C232.681 116.802 231.304 116.099 229.018 116.093C226.715 116.099 225.326 116.802 225.326 118.051ZM226.65 118.051C226.645 117.423 227.477 117.119 229.018 117.113C230.536 117.119 231.374 117.423 231.386 118.051C231.374 118.66 230.536 118.994 229.018 119C227.477 118.994 226.645 118.66 226.65 118.051ZM242.932 109.447H241.631V115.636H242.932V113.139H244.409V112.061H242.932V109.447ZM234.586 111.475H240.869V110.431H238.384V109.365H237.083V110.431H234.586V111.475ZM235.125 113.702C235.125 114.827 236.18 115.571 237.727 115.566C239.257 115.571 240.312 114.827 240.318 113.702C240.312 112.577 239.257 111.838 237.727 111.838C236.18 111.838 235.125 112.577 235.125 113.702ZM236.086 119.914H242.932V116.058H241.631V116.972H237.376V116.058H236.086V119.914ZM236.391 113.702C236.385 113.145 236.924 112.799 237.727 112.799C238.53 112.799 239.075 113.145 239.075 113.702C239.075 114.276 238.53 114.604 237.727 114.604C236.924 114.604 236.385 114.276 236.391 113.702ZM237.376 118.883V117.98H241.631V118.883H237.376ZM253.786 109.447H252.497V120.043H253.786V109.447ZM245.557 117.382H246.472C248.119 117.388 249.848 117.265 251.711 116.878L251.547 115.788C249.912 116.116 248.33 116.245 246.847 116.269V110.478H245.557V117.382ZM263.621 109.447H262.319V120.055H263.621V114.534H265.25V113.467H263.621V109.447ZM255.755 117.464H256.634C258.545 117.464 259.969 117.418 261.616 117.136L261.464 116.034C260.01 116.286 258.703 116.368 257.056 116.374V111.51H260.714V110.455H255.755V117.464ZM266.985 119.094C267.471 119.094 267.887 118.684 267.887 118.179C267.887 117.687 267.471 117.283 266.985 117.277C266.481 117.283 266.065 117.687 266.07 118.179C266.065 118.684 266.481 119.094 266.985 119.094ZM8.98467 135.066C9.78174 135.072 10.4323 134.421 10.4264 133.612C10.4323 132.815 9.78174 132.165 8.98467 132.171C8.17587 132.165 7.52532 132.815 7.53118 133.612C7.52532 134.421 8.17587 135.072 8.98467 135.066ZM22.154 129.287V129.158H24.3577V128.115H18.6023V129.158H20.8411V129.287C20.8411 130.676 19.9444 132.048 18.2389 132.616L18.9305 133.624C20.1672 133.202 21.0463 132.341 21.5151 131.256C21.9782 132.247 22.8163 133.038 24.006 133.437L24.6624 132.429C22.9921 131.878 22.154 130.594 22.154 129.287ZM19.6573 135.371H25.4126V138.043H26.7137V134.327H19.6573V135.371ZM25.4126 133.835H26.7137V131.186H28.1906V130.096H26.7137V127.447H25.4126V133.835ZM32.6097 128.971V128.021H31.2969V129.029C31.291 130.559 30.4119 131.971 28.6595 132.546L29.3511 133.601C30.6346 133.149 31.5196 132.241 31.9885 131.086C32.4397 132.089 33.2485 132.862 34.4031 133.273L35.1064 132.253C33.4478 131.731 32.6039 130.412 32.6097 128.971ZM30.4178 136.004C30.406 137.293 31.7833 138.032 34.0163 138.032C36.261 138.032 37.6325 137.293 37.6383 136.004C37.6325 134.714 36.261 133.958 34.0163 133.964C31.7833 133.958 30.406 134.714 30.4178 136.004ZM31.7071 136.004C31.7013 135.336 32.5452 134.978 34.0163 134.972C35.4991 134.978 36.3372 135.336 36.3372 136.004C36.3372 136.648 35.4991 137.006 34.0163 137.012C32.5452 137.006 31.7013 136.648 31.7071 136.004ZM34.1921 130.565H36.302V133.683H37.6031V127.447H36.302V129.498H34.1921V130.565ZM47.4025 127.447H46.1131V138.043H47.4025V132.745H49.0318V131.667H47.4025V127.447ZM39.0449 130.119H45.2926V129.076H42.8545V127.599H41.5534V129.076H39.0449V130.119ZM39.5372 133.308C39.5255 134.767 40.6625 135.793 42.2098 135.793C43.7336 135.793 44.8647 134.767 44.8706 133.308C44.8647 131.842 43.7336 130.805 42.2098 130.811C40.6625 130.805 39.5255 131.842 39.5372 133.308ZM40.7797 133.308C40.7739 132.446 41.3775 131.878 42.2098 131.878C43.0244 131.878 43.6164 132.446 43.6281 133.308C43.6164 134.169 43.0244 134.72 42.2098 134.714C41.3775 134.72 40.7739 134.169 40.7797 133.308ZM58.3036 127.459H56.9908V135.195H58.3036V127.459ZM49.4889 132.698L50.1688 133.73C51.4171 133.278 52.2963 132.352 52.7651 131.192C53.234 132.276 54.0956 133.12 55.3029 133.542L55.971 132.511C54.289 131.948 53.4216 130.553 53.4274 129.076V128.045H52.0794V129.076C52.0853 130.6 51.2062 132.094 49.4889 132.698ZM51.2941 137.832H58.5967V136.777H52.6069V134.456H51.2941V137.832ZM71.8305 128.584H68.1616V127.423H66.8722V128.584H63.1799V129.639H71.8305V128.584ZM62.6993 135.359H66.8722V138.055H68.1616V135.359H72.3814V134.292H62.6993V135.359ZM63.93 131.913C63.93 133.067 65.278 133.706 67.5169 133.706C69.7557 133.706 71.1037 133.067 71.1037 131.913C71.1037 130.752 69.7557 130.119 67.5169 130.119C65.278 130.119 63.93 130.752 63.93 131.913ZM65.2898 131.913C65.2839 131.374 66.0517 131.092 67.5169 131.092C68.9762 131.092 69.7499 131.374 69.7557 131.913C69.7499 132.458 68.9762 132.739 67.5169 132.733C66.0517 132.739 65.2839 132.458 65.2898 131.913ZM81.9228 127.447H80.61V138.043H81.9228V127.447ZM73.1433 135.125L73.8231 136.168C77.5331 134.404 78.758 131.725 78.758 128.572H73.6825V129.604H77.4334C77.199 132.012 75.9213 133.806 73.1433 135.125ZM92.0269 130.448H85.9785V127.834H84.6891V131.479H92.0269V130.448ZM83.4349 133.741H93.117V132.71H83.4349V133.741ZM84.5954 137.797H92.0972V136.742H85.8965V134.679H84.5954V137.797ZM105.061 127.459H103.76V134.62H105.061V131.62H106.491V130.541H105.061V127.459ZM96.5749 133.355L96.7156 134.374C98.5793 134.374 101.058 134.351 103.315 133.952L103.209 133.05C102.36 133.161 101.451 133.231 100.549 133.278V132.669C101.709 132.516 102.436 131.954 102.436 131.127C102.436 130.149 101.422 129.551 99.8804 129.557C98.3449 129.551 97.3193 130.149 97.3251 131.127C97.3193 131.96 98.0694 132.528 99.2475 132.675V133.325C98.2922 133.349 97.372 133.355 96.5749 133.355ZM96.8445 129.252H102.928V128.291H100.549V127.365H99.2475V128.291H96.8445V129.252ZM97.9112 136.097H103.76V138.043H105.061V135.078H97.9112V136.097ZM98.5793 131.127C98.5676 130.664 99.0599 130.43 99.8804 130.436C100.701 130.43 101.193 130.664 101.193 131.127C101.193 131.567 100.701 131.842 99.8804 131.831C99.0599 131.842 98.5676 131.567 98.5793 131.127ZM115.869 127.459H114.556V135.113H115.869V127.459ZM107.23 130.799C107.23 132.364 108.478 133.46 110.09 133.46C111.702 133.46 112.944 132.364 112.938 130.799C112.944 129.258 111.702 128.156 110.09 128.15C108.478 128.156 107.23 129.258 107.23 130.799ZM108.508 130.799C108.502 129.885 109.182 129.287 110.09 129.287C110.975 129.287 111.661 129.885 111.661 130.799C111.661 131.737 110.975 132.323 110.09 132.323C109.182 132.323 108.502 131.737 108.508 130.799ZM108.859 137.832H116.162V136.777H110.172V134.339H108.859V137.832ZM129.396 128.584H125.727V127.423H124.437V128.584H120.745V129.639H129.396V128.584ZM120.264 135.359H124.437V138.055H125.727V135.359H129.947V134.292H120.264V135.359ZM121.495 131.913C121.495 133.067 122.843 133.706 125.082 133.706C127.321 133.706 128.669 133.067 128.669 131.913C128.669 130.752 127.321 130.119 125.082 130.119C122.843 130.119 121.495 130.752 121.495 131.913ZM122.855 131.913C122.849 131.374 123.617 131.092 125.082 131.092C126.541 131.092 127.315 131.374 127.321 131.913C127.315 132.458 126.541 132.739 125.082 132.733C123.617 132.739 122.849 132.458 122.855 131.913ZM137.378 129.264V129.135H139.57V128.092H133.85V129.135H136.054V129.275C136.054 130.653 135.151 132.059 133.463 132.616L134.131 133.648C135.391 133.226 136.27 132.335 136.733 131.227C137.196 132.223 138.035 133.026 139.218 133.413L139.875 132.405C138.234 131.854 137.378 130.559 137.378 129.264ZM135.139 135.312H141.059V138.043H142.36V134.269H135.139V135.312ZM139.254 131.139H141.059V133.765H142.36V127.447H141.059V130.072H139.254V131.139ZM152.687 127.459H151.374V133.331H152.687V127.459ZM144.399 128.994H147.998V130.002H144.423V133.132H145.325C147.377 133.132 148.813 133.091 150.483 132.815L150.319 131.76C148.807 132.018 147.511 132.053 145.7 132.065V130.998H149.287V127.939H144.399V128.994ZM145.665 137.914H152.687V133.8H151.385V134.831H146.966V133.8H145.665V137.914ZM146.966 136.859V135.84H151.385V136.859H146.966ZM162.732 127.963H155.429V129.006H161.431C161.431 129.779 161.408 130.647 161.156 131.796H154.234V132.851H163.916V131.796H162.474C162.738 130.547 162.738 129.609 162.732 128.783V127.963ZM155.394 137.914H162.72V134.081H155.394V137.914ZM156.672 136.859V135.101H161.431V136.859H156.672ZM173.422 127.447H172.109V138.055H173.422V127.447ZM164.947 131.96C164.942 134.263 166.108 135.711 167.714 135.711C169.302 135.711 170.474 134.263 170.48 131.96C170.474 129.674 169.302 128.22 167.714 128.22C166.108 128.22 164.942 129.674 164.947 131.96ZM166.202 131.96C166.202 130.342 166.817 129.393 167.714 129.393C168.605 129.393 169.214 130.342 169.214 131.96C169.214 133.589 168.605 134.533 167.714 134.538C166.817 134.533 166.202 133.589 166.202 131.96ZM181.827 130.459V129.568H184.148V128.49H178.17V129.568H180.502V130.459C180.496 132.259 179.453 134.234 177.783 135.007L178.533 136.027C179.77 135.441 180.701 134.222 181.188 132.768C181.674 134.116 182.589 135.224 183.843 135.769L184.558 134.738C182.846 134.023 181.827 132.194 181.827 130.459ZM185.331 138.043H186.644V127.447H185.331V138.043ZM190.677 133.483H189.399V137.914H196.666V133.483H195.377V134.703H190.677V133.483ZM188.203 132.698H197.885V131.655H196.444C196.707 130.412 196.707 129.533 196.702 128.724V127.904H189.399V128.947H195.4C195.4 129.692 195.377 130.535 195.154 131.655H188.203V132.698ZM190.677 136.859V135.711H195.377V136.859H190.677ZM207.427 127.459H206.114V133.566H207.427V127.459ZM198.6 132.37L198.776 133.413C200.663 133.39 203.178 133.36 205.446 132.968L205.376 132.065C204.537 132.171 203.641 132.241 202.75 132.288V131.397H204.696V130.377H200.828V128.994H204.614V127.951H199.515V131.397H201.449V132.335C200.429 132.364 199.45 132.37 198.6 132.37ZM200.288 137.914H207.427V134.011H206.137V134.937H201.589V134.011H200.288V137.914ZM201.589 136.859V135.91H206.137V136.859H201.589ZM217.789 127.447H216.499V138.043H217.789V127.447ZM209.56 135.382H210.474C212.121 135.388 213.85 135.265 215.714 134.878L215.55 133.788C213.915 134.116 212.332 134.245 210.85 134.269V128.478H209.56V135.382ZM227.623 127.447H226.322V138.055H227.623V132.534H229.253V131.467H227.623V127.447ZM219.758 135.464H220.637C222.548 135.464 223.972 135.418 225.619 135.136L225.467 134.034C224.013 134.286 222.706 134.368 221.059 134.374V129.51H224.716V128.455H219.758V135.464ZM230.987 137.094C231.474 137.094 231.89 136.684 231.89 136.179C231.89 135.687 231.474 135.283 230.987 135.277C230.483 135.283 230.067 135.687 230.073 136.179C230.067 136.684 230.483 137.094 230.987 137.094ZM236.18 133.765C236.18 135.974 236.837 137.809 237.938 139.391H239.345C238.536 138.219 237.727 135.863 237.727 133.765C237.727 131.667 238.536 129.316 239.345 128.15H237.938C236.837 129.721 236.18 131.561 236.18 133.765ZM242.979 128.045C241.379 128.039 240.177 129.111 240.177 130.612C240.177 132.1 241.379 133.173 242.979 133.167C243.829 133.173 244.567 132.856 245.071 132.335H247.609V133.683H248.91V127.447H247.609V128.889H245.077C244.579 128.355 243.834 128.039 242.979 128.045ZM241.42 130.612C241.42 129.715 242.07 129.158 242.979 129.158C243.858 129.158 244.508 129.715 244.514 130.612C244.508 131.479 243.858 132.065 242.979 132.065C242.07 132.065 241.42 131.479 241.42 130.612ZM241.724 135.968C241.713 137.27 243.102 138.032 245.323 138.032C247.55 138.032 248.939 137.27 248.945 135.968C248.939 134.662 247.55 133.9 245.323 133.905C243.102 133.9 241.713 134.662 241.724 135.968ZM243.002 135.968C242.99 135.277 243.852 134.908 245.323 134.902C246.823 134.908 247.667 135.277 247.667 135.968C247.667 136.642 246.823 137.006 245.323 137.012C243.852 137.006 242.99 136.642 243.002 135.968ZM245.663 129.932H247.609V131.28H245.669C245.722 131.069 245.757 130.846 245.757 130.612C245.757 130.371 245.722 130.149 245.663 129.932ZM253.352 127.916C251.729 127.91 250.551 128.953 250.551 130.401C250.551 131.866 251.729 132.909 253.352 132.909C254.736 132.909 255.826 132.106 256.078 130.916H257.982V133.132H259.284V127.447H257.982V129.861H256.066C255.802 128.701 254.724 127.91 253.352 127.916ZM251.793 130.401C251.793 129.551 252.438 129 253.352 129.006C254.243 129 254.882 129.551 254.888 130.401C254.882 131.251 254.243 131.813 253.352 131.807C252.438 131.813 251.793 131.251 251.793 130.401ZM252.297 137.914H259.284V133.624H257.982V134.749H253.587V133.624H252.297V137.914ZM253.587 136.859V135.758H257.982V136.859H253.587ZM263.785 127.787C262.167 127.793 260.971 128.783 260.971 130.178C260.971 131.579 262.167 132.563 263.785 132.569C265.391 132.563 266.586 131.579 266.598 130.178C266.586 128.783 265.391 127.793 263.785 127.787ZM262.237 130.178C262.237 129.375 262.894 128.859 263.785 128.865C264.676 128.859 265.326 129.375 265.332 130.178C265.326 130.998 264.676 131.514 263.785 131.514C262.894 131.514 262.237 130.998 262.237 130.178ZM262.577 134.281H268.309V135.066H262.601V137.914H269.927V136.883H263.878V136.027H269.61V133.261H262.577V134.281ZM268.298 132.804H269.61V127.447H268.298V132.804ZM282.856 127.447H281.543V138.043H282.856V127.447ZM274.076 135.125L274.756 136.168C278.466 134.404 279.691 131.725 279.691 128.572H274.616V129.604H278.366C278.132 132.012 276.854 133.806 274.076 135.125ZM293.171 127.927H285.259V128.971H288.306C288.183 129.967 286.906 130.922 284.86 131.163L285.341 132.194C287.24 131.966 288.629 131.122 289.197 129.985C289.766 131.127 291.167 131.966 293.065 132.194L293.558 131.163C291.512 130.922 290.217 129.973 290.1 128.971H293.171V127.927ZM284.368 133.835H288.67V135.769H289.959V133.835H294.05V132.78H284.368V133.835ZM285.54 137.832H292.983V136.777H286.841V134.796H285.54V137.832ZM303.521 128.185H297.883V129.24H298.809V132.388C298.387 132.393 297.983 132.393 297.613 132.393L297.754 133.472C299.442 133.466 301.781 133.431 303.803 133.097L303.75 132.229H305.174V133.941H306.475V127.447H305.174V129.229H303.72V130.272H305.174V131.186H303.72V132.136C303.357 132.182 302.97 132.218 302.583 132.247V129.24H303.521V128.185ZM299.29 136.086C299.278 137.305 300.644 138.032 302.888 138.032C305.151 138.032 306.504 137.305 306.51 136.086C306.504 134.837 305.151 134.128 302.888 134.128C300.644 134.128 299.278 134.837 299.29 136.086ZM300.075 132.37V129.24H301.329V132.323C300.907 132.341 300.485 132.358 300.075 132.37ZM300.579 136.086C300.573 135.459 301.405 135.125 302.888 135.125C304.377 135.125 305.209 135.459 305.209 136.086C305.209 136.701 304.377 137.023 302.888 137.023C301.405 137.023 300.573 136.701 300.579 136.086ZM316.474 127.986H309.159V129.006H315.173C315.173 129.82 315.161 130.717 314.938 131.901H307.975V132.956H311.187V135.347H312.465V132.956H313.871V135.347H315.137V132.956H317.658V131.901H316.257C316.48 130.659 316.48 129.697 316.474 128.853V127.986ZM309.066 137.832H316.755V136.777H310.367V134.433H309.066V137.832ZM324.995 128.514H323.53L321.432 129.873V131.268L323.413 130.002H323.46V137H324.995V128.514ZM327.48 133.331V134.609C327.855 134.163 328.33 133.935 328.863 133.941C329.789 133.935 330.61 134.603 331.548 134.597C332.087 134.603 332.573 134.38 332.966 133.952V132.675C332.597 133.12 332.116 133.349 331.583 133.343C330.651 133.349 329.836 132.681 328.899 132.686C328.359 132.681 327.873 132.903 327.48 133.331ZM334.502 137H340.398V135.722H336.623V135.664L338.135 134.163C339.806 132.587 340.263 131.813 340.269 130.858C340.263 129.434 339.096 128.396 337.362 128.396C335.668 128.396 334.461 129.44 334.466 131.045H335.92C335.914 130.184 336.477 129.639 337.35 129.639C338.176 129.639 338.803 130.137 338.803 130.928C338.803 131.643 338.358 132.147 337.502 133.003L334.502 135.898V137ZM344.383 127.787C342.765 127.793 341.57 128.783 341.57 130.178C341.57 131.579 342.765 132.563 344.383 132.569C345.989 132.563 347.184 131.579 347.196 130.178C347.184 128.783 345.989 127.793 344.383 127.787ZM342.836 130.178C342.836 129.375 343.492 128.859 344.383 128.865C345.274 128.859 345.924 129.375 345.93 130.178C345.924 130.998 345.274 131.514 344.383 131.514C343.492 131.514 342.836 130.998 342.836 130.178ZM343.176 134.281H348.908V135.066H343.199V137.914H350.525V136.883H344.477V136.027H350.209V133.261H343.176V134.281ZM348.896 132.804H350.209V127.447H348.896V132.804ZM364.286 135.675H360.043V133.226H358.754V135.675H354.604V136.73H364.286V135.675ZM354.886 132.405L355.448 133.483C357.236 133.149 358.689 132.112 359.387 130.729C360.09 132.118 361.561 133.144 363.349 133.483L363.911 132.405C361.678 132.048 360.078 130.465 360.078 128.865V128.092H358.695V128.865C358.689 130.459 357.101 132.048 354.886 132.405ZM374.66 135.687H372.433V132.979C373.253 132.493 373.752 131.749 373.746 130.823C373.752 129.135 372.087 128.021 369.796 128.021C367.516 128.021 365.863 129.135 365.869 130.823C365.863 131.76 366.373 132.522 367.217 133.009V135.687H364.978V136.754H374.66V135.687ZM367.146 130.823C367.141 129.721 368.213 129.047 369.796 129.053C371.372 129.047 372.468 129.721 372.468 130.823C372.468 131.907 371.372 132.599 369.796 132.593C368.213 132.599 367.141 131.907 367.146 130.823ZM368.506 135.687V133.483C368.905 133.566 369.338 133.612 369.796 133.612C370.264 133.612 370.704 133.566 371.108 133.478V135.687H368.506ZM378.505 133.765C378.505 131.561 377.848 129.721 376.747 128.15H375.34C376.149 129.316 376.958 131.667 376.958 133.765C376.958 135.863 376.149 138.219 375.34 139.391H376.747C377.848 137.809 378.505 135.974 378.505 133.765Z" fill="#6B6B6B"/>
</svg>
