<svg width="1050" height="24" viewBox="0 0 1050 24" fill="none" xmlns="http://www.w3.org/2000/svg">
<path d="M10.0103 11.8154H5.81395V10.6901H4.52457V11.8154H0.35165V12.8703H10.0103V11.8154ZM0.808796 10.2095L1.20733 11.2058C3.09452 11.0593 4.50113 10.4674 5.16926 9.55308C5.82567 10.4674 7.23814 11.0593 9.13119 11.2058L9.52973 10.2095C7.33191 10.063 6.07769 9.33622 5.91359 8.46296H9.06086V7.43145H5.81395V6.47027H4.52457V7.43145H1.30111V8.46296H4.41907C4.24911 9.33622 3.00075 10.063 0.808796 10.2095ZM1.47693 15.2498C1.47693 16.4044 2.84837 17.0315 5.16926 17.0315C7.47843 17.0315 8.83229 16.4044 8.83815 15.2498C8.83229 14.0894 7.47843 13.4623 5.16926 13.4564C2.84837 13.4623 1.47693 14.0894 1.47693 15.2498ZM2.80148 15.2498C2.79562 14.7048 3.61028 14.4293 5.16926 14.4293C6.69894 14.4293 7.52532 14.7048 7.53704 15.2498C7.52532 15.789 6.69894 16.0586 5.16926 16.0586C3.61028 16.0586 2.79562 15.789 2.80148 15.2498ZM13.9254 16H19.8214V14.7223H16.047V14.6637L17.5591 13.1634C19.2294 11.5868 19.6866 10.8132 19.6924 9.85784C19.6866 8.43366 18.5203 7.39629 16.7854 7.39629C15.0917 7.39629 13.8843 8.43952 13.8902 10.0454H15.3437C15.3378 9.18384 15.9005 8.63878 16.7737 8.63878C17.6001 8.63878 18.2272 9.13696 18.2272 9.92817C18.2272 10.6432 17.7818 11.1472 16.9261 12.0029L13.9254 14.8982V16ZM29.902 6.44683H28.6478V10.5494H27.5108V6.72815H26.2917V16.5509H27.5108V11.6044H28.6478V17.0432H29.902V6.44683ZM20.7239 13.9253L21.4741 14.8278C24.4866 13.1106 25.3892 10.6491 25.3892 7.7831H21.2162V8.82633H24.1232C23.9357 10.948 22.9804 12.6242 20.7239 13.9253Z" fill="#333333"/>
<path d="M931.344 13.75H918.469V15.1719H924.031V19.4062H925.75V15.1719H931.344V13.75ZM919.172 11.5156L919.797 12.8906C922.148 12.5938 923.984 11.5859 924.906 10.2109C925.82 11.5703 927.633 12.5938 929.969 12.8906L930.609 11.5156C927.789 11.1719 925.945 9.71094 925.781 8.3125H930.141V6.9375H925.75V5.28125H924.031V6.9375H919.656V8.3125H924.016C923.844 9.72656 921.992 11.1719 919.172 11.5156ZM937.375 8.60938V8.39062H940.328V7.01562H937.391V5.35938H935.641V7.01562H932.688V8.39062H935.641V8.60938C935.641 10.4219 934.477 12.1484 932.25 12.8438L933.094 14.2031C934.742 13.6719 935.906 12.5703 936.531 11.1719C937.172 12.4688 938.336 13.4922 939.938 13.9688L940.781 12.6094C938.547 11.9219 937.367 10.2891 937.375 8.60938ZM934.859 19.1094H944.484V17.7031H936.594V14.8594H934.859V19.1094ZM939.859 10.875H942.391V15.7656H944.125V5.28125H942.391V9.48438H939.859V10.875ZM953.453 6.17188V5.625H951.672V6.17188C951.664 7.89062 949.711 9.58594 946.828 10.0156L947.484 11.375C949.797 11.0156 951.664 9.875 952.57 8.33594C953.469 9.85938 955.32 10.9844 957.641 11.3438L958.297 9.96875C955.414 9.5625 953.453 7.83594 953.453 6.17188ZM946.109 13.6875H951.844V16.2656H953.562V13.6875H959.016V12.2812H946.109V13.6875ZM947.672 19.1094H957.594V17.7031H949.406V15H947.672V19.1094Z" fill="#333333"/>
<rect x="968" y="7" width="1" height="10" fill="#A6A6A6"/>
<path d="M983.031 12.8281H981.297V15.1953C979.93 15.2344 978.633 15.2422 977.531 15.25L977.75 16.6562C980.242 16.6641 983.633 16.6328 986.797 16.0469L986.656 14.7656C985.492 14.9375 984.258 15.0469 983.031 15.1172V12.8281ZM977.859 11.9688L978.688 13.2812C980.367 12.8281 981.547 11.8047 982.164 10.4922C982.805 11.7422 984 12.7188 985.672 13.1719L986.469 11.8125C984.344 11.2656 983.148 9.91406 983.055 8.40625H986.078V7H983.031V5.39062H981.297V7H978.281V8.40625H981.258C981.156 9.98438 979.984 11.3828 977.859 11.9688ZM987.5 19.4062H989.234V5.26562H987.5V19.4062ZM1002.62 6.07812H992.891V7.48438H1000.89C1000.89 8.63281 1000.87 9.89062 1000.54 11.5938H991.297V13.0156H1004.2V11.5938H1002.3C1002.63 9.80469 1002.63 8.4375 1002.62 7.25V6.07812ZM992.969 19.0938H1003.03V17.6875H994.688V14.3594H992.969V19.0938ZM1021.81 11.8125H1008.92V13.2344H1021.81V11.8125ZM1010.42 16.7812C1010.42 18.4453 1012.27 19.375 1015.34 19.375C1018.39 19.375 1020.23 18.4453 1020.23 16.7812C1020.23 15.1406 1018.39 14.2109 1015.34 14.2188C1012.27 14.2109 1010.42 15.1406 1010.42 16.7812ZM1010.5 10.7031H1020.33V9.3125H1012.23V7.125H1020.25V5.71875H1010.5V10.7031ZM1012.19 16.7812C1012.18 15.9844 1013.29 15.5469 1015.34 15.5469C1017.37 15.5469 1018.48 15.9844 1018.5 16.7812C1018.48 17.6172 1017.37 18.0312 1015.34 18.0312C1013.29 18.0312 1012.18 17.6172 1012.19 16.7812ZM1035.64 12.9062H1030.05V11.7344H1034.33V10.375H1026.09V9.25H1034.05V5.57812H1024.33V6.9375H1032.31V7.98438H1024.38V11.7344H1028.33V12.9062H1022.73V14.3125H1035.64V12.9062ZM1024.17 16.5781H1032.38V19.2969H1034.12V15.2031H1024.17V16.5781ZM1043.91 6.17188V5.625H1042.12V6.17188C1042.12 7.89062 1040.16 9.58594 1037.28 10.0156L1037.94 11.375C1040.25 11.0156 1042.12 9.875 1043.02 8.33594C1043.92 9.85938 1045.77 10.9844 1048.09 11.3438L1048.75 9.96875C1045.87 9.5625 1043.91 7.83594 1043.91 6.17188ZM1036.56 13.6875H1042.3V16.2656H1044.02V13.6875H1049.47V12.2812H1036.56V13.6875ZM1038.12 19.1094H1048.05V17.7031H1039.86V15H1038.12V19.1094Z" fill="#A6A6A6"/>
</svg>
