<svg width="155" height="44" viewBox="0 0 155 44" fill="none" xmlns="http://www.w3.org/2000/svg">
<rect width="155" height="44" rx="4" fill="#5F0080"/>
<path d="M46.6406 16.7812H41.75V15.2344H40.0312V16.7812H35.1094V18.1875H46.6406V16.7812ZM34.4688 25.8125H40.0312V29.4062H41.75V25.8125H47.375V24.3906H34.4688V25.8125ZM36.1094 21.2188C36.1094 22.7578 37.9062 23.6094 40.8906 23.6094C43.875 23.6094 45.6719 22.7578 45.6719 21.2188C45.6719 19.6719 43.875 18.8281 40.8906 18.8281C37.9062 18.8281 36.1094 19.6719 36.1094 21.2188ZM37.9219 21.2188C37.9141 20.5 38.9375 20.125 40.8906 20.125C42.8359 20.125 43.8672 20.5 43.875 21.2188C43.8672 21.9453 42.8359 22.3203 40.8906 22.3125C38.9375 22.3203 37.9141 21.9453 37.9219 21.2188ZM60.0938 15.2656H58.3438V29.3906H60.0938V15.2656ZM48.3906 25.5L49.2969 26.8906C54.2422 24.5391 55.875 20.9688 55.875 16.7656H49.1094V18.1406H54.1094C53.7969 21.3516 52.0938 23.7422 48.3906 25.5ZM70.9844 17.7188V17.5469H73.9219V16.1562H66.25V17.5469H69.2344V17.7188C69.2344 19.5703 68.0391 21.3984 65.7656 22.1562L66.6875 23.5C68.3359 22.9375 69.5078 21.7891 70.1328 20.3438C70.75 21.6641 71.8672 22.7188 73.4531 23.25L74.3281 21.9062C72.1016 21.1719 70.9844 19.4609 70.9844 17.7188ZM67.6562 25.8281H75.3281V29.3906H77.0625V24.4375H67.6562V25.8281ZM75.3281 23.7812H77.0625V20.25H79.0312V18.7969H77.0625V15.2656H75.3281V23.7812ZM84.9219 17.2969V16.0312H83.1719V17.375C83.1641 19.4141 81.9922 21.2969 79.6562 22.0625L80.5781 23.4688C82.2891 22.8672 83.4688 21.6562 84.0938 20.1172C84.6953 21.4531 85.7734 22.4844 87.3125 23.0312L88.25 21.6719C86.0391 20.9766 84.9141 19.2188 84.9219 17.2969ZM82 26.6719C81.9844 28.3906 83.8203 29.375 86.7969 29.375C89.7891 29.375 91.6172 28.3906 91.625 26.6719C91.6172 24.9531 89.7891 23.9453 86.7969 23.9531C83.8203 23.9453 81.9844 24.9531 82 26.6719ZM83.7188 26.6719C83.7109 25.7812 84.8359 25.3047 86.7969 25.2969C88.7734 25.3047 89.8906 25.7812 89.8906 26.6719C89.8906 27.5312 88.7734 28.0078 86.7969 28.0156C84.8359 28.0078 83.7109 27.5312 83.7188 26.6719ZM87.0312 19.4219H89.8438V23.5781H91.5781V15.2656H89.8438V18H87.0312V19.4219ZM104.641 15.2656H102.922V29.3906H104.641V22.3281H106.812V20.8906H104.641V15.2656ZM93.5 18.8281H101.828V17.4375H98.5781V15.4688H96.8438V17.4375H93.5V18.8281ZM94.1562 23.0781C94.1406 25.0234 95.6562 26.3906 97.7188 26.3906C99.75 26.3906 101.258 25.0234 101.266 23.0781C101.258 21.125 99.75 19.7422 97.7188 19.75C95.6562 19.7422 94.1406 21.125 94.1562 23.0781ZM95.8125 23.0781C95.8047 21.9297 96.6094 21.1719 97.7188 21.1719C98.8047 21.1719 99.5938 21.9297 99.6094 23.0781C99.5938 24.2266 98.8047 24.9609 97.7188 24.9531C96.6094 24.9609 95.8047 24.2266 95.8125 23.0781ZM119.203 15.2656H117.453V29.3906H119.203V15.2656ZM107.5 25.5L108.406 26.8906C113.352 24.5391 114.984 20.9688 114.984 16.7656H108.219V18.1406H113.219C112.906 21.3516 111.203 23.7422 107.5 25.5Z" fill="white"/>
</svg>
