<svg width="98" height="43" viewBox="0 0 98 43" fill="none" xmlns="http://www.w3.org/2000/svg">
<path d="M1.30489 28.2519H11.0499V32H14.4926V28.2519H17.1302V25.2812H14.4926V11.8991H9.99492L1.30489 25.3645V28.2519ZM4.99746 25.2812V25.1424L10.8834 16.0081H11.1055V25.2812H4.99746ZM23.4881 30.0288H19.9621L18.5184 37.8026H21.1559L23.4881 30.0288ZM34.1216 11.6215C29.6655 11.5937 26.7087 14.5783 26.7087 18.5069C26.7225 22.3105 29.4989 25.0452 33.0943 25.0313C35.3015 25.0452 37.245 24.0041 38.2583 22.255H38.4804C38.4527 26.5722 36.8146 29.1403 33.8994 29.1403C32.0809 29.1403 30.8454 28.127 30.4845 26.5306H26.903C27.3472 29.8622 30.0264 32.2776 33.8994 32.2776C38.8414 32.2776 41.9787 28.2658 41.9787 21.3387C41.9648 13.9953 38.0501 11.6492 34.1216 11.6215ZM30.2346 18.4236C30.2069 16.2719 31.8866 14.5505 34.1493 14.5367C36.3982 14.5505 38.0362 16.3552 38.0362 18.3958C38.0501 20.4781 36.3288 22.2827 34.0938 22.2827C31.8449 22.2827 30.2346 20.5891 30.2346 18.4236ZM52.279 32.2776C56.7212 32.2776 59.9001 29.89 59.914 26.6138C59.9001 24.0596 57.9844 21.9773 55.5829 21.5886V21.4776C57.6651 21.0333 59.1366 19.2148 59.1366 17.0076C59.1366 13.8981 56.2214 11.6215 52.279 11.6215C48.3088 11.6215 45.4075 13.8981 45.3936 17.0076C45.4075 19.2009 46.8373 21.0333 48.9474 21.4776V21.5886C46.5319 21.9773 44.6301 24.0596 44.644 26.6138C44.6301 29.89 47.7952 32.2776 52.279 32.2776ZM48.3643 26.2807C48.3504 24.3789 50.0163 22.9907 52.279 23.0046C54.5417 22.9907 56.1798 24.3928 56.1937 26.2807C56.1798 28.1408 54.6389 29.418 52.279 29.418C49.8913 29.418 48.3504 28.1408 48.3643 26.2807ZM48.9196 17.3408C48.9335 15.6333 50.2661 14.4534 52.279 14.4534C54.2502 14.4534 55.6106 15.6333 55.6106 17.3408C55.6106 19.1038 54.2086 20.3115 52.279 20.3115C50.3217 20.3115 48.9335 19.1038 48.9196 17.3408ZM70.3254 32.2776C75.1563 32.2776 78.0437 28.5434 78.0437 21.9496C78.0437 15.3973 75.1424 11.6215 70.3254 11.6215C65.5084 11.6215 62.5932 15.3973 62.6071 21.9496C62.5932 28.5295 65.4806 32.2776 70.3254 32.2776ZM66.2441 21.9496C66.258 17.1603 67.8128 14.6338 70.3254 14.6199C72.838 14.6338 74.3928 17.1603 74.4066 21.9496C74.4066 26.7804 72.838 29.2375 70.3254 29.2514C67.7989 29.2375 66.2441 26.7804 66.2441 21.9496Z" fill="#333333"/>
<path d="M96.4688 14.7344H94.4688V22.9844H91.75V24.3438H94.4688V25.4688H96.4688V14.7344ZM84.375 21.0312L84.6094 22.6094C85.6875 22.6094 86.8984 22.6016 88.1719 22.5547V24.4375H86.1875V28.6875H96.7812V27.0938H88.1719V25.1406H90.1719V22.4375C91.3203 22.3516 92.4844 22.2188 93.6094 22.0312L93.5 20.6094C90.4922 20.9766 86.9766 21.0156 84.375 21.0312ZM85.4219 17.7656C85.4219 19.2891 86.8828 20.2734 89 20.2656C91.0625 20.2734 92.5391 19.2891 92.5469 17.7656C92.5391 16.25 91.0625 15.2109 89 15.2188C86.8828 15.2109 85.4219 16.25 85.4219 17.7656ZM87.3125 17.7656C87.3047 17.0625 87.9844 16.6719 89 16.6719C89.9531 16.6719 90.6406 17.0625 90.6562 17.7656C90.6406 18.4531 89.9531 18.8359 89 18.8281C87.9844 18.8359 87.3047 18.4531 87.3125 17.7656Z" fill="#333333"/>
</svg>
