<svg width="74" height="20" viewBox="0 0 74 20" fill="none" xmlns="http://www.w3.org/2000/svg">
<path d="M16.85 0.983423H14.3297V5.54478H12.7468V1.31667H10.2683V12.064H12.7468V7.71091H14.3297V13.7927H16.85V0.983423ZM0.291594 10.002L1.72873 12.0432C3.50954 11.2933 4.69674 9.91869 5.38407 8.27327C6.0714 9.65834 7.1857 10.7831 8.78947 11.4183L10.2058 9.37716C7.68558 8.37741 6.62334 6.36749 6.62334 4.35758V2.10814H4.04066V4.35758C4.04066 6.53412 2.96801 8.84604 0.291594 10.002ZM2.97842 17.7709L3.93652 19.8329C7.01908 19.4163 9.24769 18.125 10.4245 16.365C11.5909 18.125 13.809 19.4163 16.8916 19.8329L17.8497 17.7709C13.7778 17.2606 11.7575 15.1986 11.7471 13.2095V12.8138H9.10189V13.2095C9.10189 15.1986 7.02949 17.2606 2.97842 17.7709ZM34.9704 0.962594H32.3252V3.37866H28.8261V1.77489H26.2018V3.98267H22.4735V1.77489H19.8075V10.1686H28.8261V8.8148H32.3252V10.7102H34.9704V0.962594ZM22.3486 13.4595H32.3252V14.5425H22.3694V19.7079H35.5328V17.6251H25.0354V16.4795H34.9704V11.4183H22.3486V13.4595ZM22.4735 8.08581V6.003H26.2018V8.08581H22.4735ZM28.8261 6.8153V5.35733H32.3252V6.8153H28.8261ZM40.469 2.64967H37.9697V15.4173H45.5095V2.64967H43.0517V6.91944H40.469V2.64967ZM40.469 13.2928V9.00225H43.0517V13.2928H40.469ZM47.0924 19.0414H49.6126V10.3561H51.3205V19.9162H53.8615V0.962594H51.3205V8.18995H49.6126V1.23336H47.0924V19.0414ZM65.796 7.66925H63.1717V10.002H55.861V12.1265H73.1484V10.002H65.796V7.66925ZM56.7566 6.73198L57.6939 8.79397C60.891 8.32534 63.2446 6.96109 64.4526 5.07615C65.6502 6.97151 68.0038 8.31492 71.2114 8.79397L72.2319 6.73198C67.9518 6.20087 65.8273 4.11806 65.8377 1.89986V1.27502H63.13V1.89986C63.1196 4.03474 60.9431 6.20087 56.7566 6.73198ZM57.8397 16.5629C57.8397 18.7186 60.3287 19.9266 64.4839 19.9162C68.6078 19.9266 71.0656 18.7186 71.0864 16.5629C71.0656 14.4071 68.6078 13.1783 64.4839 13.1679C60.3287 13.1783 57.8397 14.4071 57.8397 16.5629ZM60.5474 16.5629C60.5369 15.6152 61.8283 15.1986 64.4839 15.1882C67.077 15.1986 68.41 15.6152 68.4204 16.5629C68.41 17.4897 67.077 17.9375 64.4839 17.9375C61.8283 17.9375 60.5369 17.4897 60.5474 16.5629Z" fill="#6B6B6B"/>
</svg>
