<svg width="296" height="73" viewBox="0 0 296 73" fill="none" xmlns="http://www.w3.org/2000/svg">
<path d="M2.91519 37.6638H9.99492V34.9429H6.30235V13.7593H9.99492V11.0384H2.91519V37.6638ZM32.2336 10.0112H13.5209V12.3156H16.9636V16.0359H13.6597V18.3958H32.0948V16.0359H28.7909V12.3156H32.2336V10.0112ZM11.4664 22.3938H21.3225V24.2817H14.1595V26.5306H28.4578V28.1131H14.1872V34.2489H32.1781V31.9445H17.2135V30.2509H31.484V24.2817H24.4043V22.3938H34.3437V19.9506H11.4664V22.3938ZM20.0454 16.0359V12.3156H25.6814V16.0359H20.0454ZM58.9423 23.5876H36.0095V26.0863H45.8934V34.4432H48.9474V26.0863H58.9423V23.5876ZM38.8136 20.6447H56.1381V10.6497H38.8136V20.6447ZM41.8399 18.2292V13.1207H53.0564V18.2292H41.8399ZM81.653 9.40037H78.5434V24.0318H73.6293V26.1974H78.5434V28.3907H81.653V9.40037ZM60.497 20.6724L60.8857 23.1434C62.857 23.1434 65.0919 23.1295 67.438 23.0323V27.6966H70.5197V22.8658C72.6437 22.7131 74.7815 22.4909 76.8498 22.1439L76.6833 19.9228C71.3526 20.603 65.1197 20.6447 60.497 20.6724ZM62.4127 14.7588C62.4127 17.4518 64.967 19.1593 68.6873 19.1732C72.3383 19.1593 74.9064 17.4518 74.9342 14.7588C74.9064 12.1073 72.3383 10.3027 68.6873 10.3166C64.967 10.3027 62.4127 12.1073 62.4127 14.7588ZM63.8287 33.9712H82.236V31.4725H66.9105V26.5583H63.8287V33.9712ZM65.3279 14.7588C65.3279 13.3983 66.6745 12.5793 68.6873 12.5932C70.603 12.5793 71.9773 13.3983 71.9912 14.7588C71.9773 16.1192 70.603 16.9104 68.6873 16.9243C66.6745 16.9104 65.3279 16.1192 65.3279 14.7588ZM92.0643 37.6638V11.0384H84.9846V13.7593H88.6772V34.9429H84.9846V37.6638H92.0643ZM113.359 11.1772H103.503V23.3655H105.169C109.07 23.3794 111.485 23.2961 114.442 22.7547L114.109 20.3115C111.665 20.7141 109.528 20.8112 106.474 20.839V18.3958H113.109V15.9804H106.474V13.6204H113.359V11.1772ZM106.946 29.8067C106.932 32.7496 110.18 34.4432 115.552 34.4432C120.911 34.4432 124.145 32.7496 124.159 29.8067C124.145 26.9054 120.911 25.2118 115.552 25.2257C110.18 25.2118 106.932 26.9054 106.946 29.8067ZM110.027 29.8067C110.014 28.3491 111.971 27.5856 115.552 27.5856C119.078 27.5856 121.036 28.3491 121.05 29.8067C121.036 31.292 119.078 32.0555 115.552 32.0555C111.971 32.0555 110.014 31.292 110.027 29.8067ZM115.747 24.0874H118.662V18.2015H121.077V24.948H124.02V9.40037H121.077V15.7027H118.662V9.87235H115.747V24.0874ZM137.93 11.1772H128.074V23.3655H129.74C133.64 23.3794 136.056 23.2961 139.013 22.7547L138.68 20.3115C136.236 20.7141 134.099 20.8112 131.045 20.839V18.3958H137.68V15.9804H131.045V13.6204H137.93V11.1772ZM131.517 29.8067C131.503 32.7496 134.751 34.4432 140.123 34.4432C145.482 34.4432 148.716 32.7496 148.73 29.8067C148.716 26.9054 145.482 25.2118 140.123 25.2257C134.751 25.2118 131.503 26.9054 131.517 29.8067ZM134.598 29.8067C134.584 28.3491 136.542 27.5856 140.123 27.5856C143.649 27.5856 145.607 28.3491 145.62 29.8067C145.607 31.292 143.649 32.0555 140.123 32.0555C136.542 32.0555 134.584 31.292 134.598 29.8067ZM140.318 24.0874H143.233V18.2015H145.648V24.948H148.591V9.40037H145.648V15.7027H143.233V9.87235H140.318V24.0874ZM164.639 18.2292H161.585V20.0616H151.701V22.5048H174.578V20.0616H164.639V18.2292ZM152.228 16.4523L153.505 18.6457C155.976 18.0349 157.587 16.6745 158.406 14.9948C159.225 16.4107 160.766 17.6045 163.112 18.1182C165.444 17.6184 166.985 16.4385 167.831 15.0225C168.637 16.6883 170.261 18.0349 172.718 18.6457L174.05 16.4523C171.121 15.7721 169.608 14.0924 169.525 12.3711H172.995V9.90012H163.611V12.3711H166.388C166.291 13.6066 165.138 14.9115 163.125 15.6056C161.099 14.9115 159.905 13.6066 159.808 12.3711H162.612V9.90012H153.2V12.3711H156.754C156.643 14.0924 155.102 15.7721 152.228 16.4523ZM154.394 26.3084H168.692V28.002H154.422V34.2489H172.412V31.9445H157.448V30.1398H171.718V24.0874H154.394V26.3084ZM189.154 11.4826H177.354V23.5043H189.154V21.3387H194.207V27.6689H197.289V9.40037H194.207V13.4816H189.154V11.4826ZM180.436 21.0889V13.9258H186.1V21.0889H180.436ZM180.742 33.9712H197.844V31.4725H183.879V25.9753H180.742V33.9712ZM189.154 18.8678V16.0081H194.207V18.8678H189.154ZM209.088 24.3372C209.088 29.5707 210.643 33.9157 213.253 37.6638H216.584C214.669 34.8874 212.753 29.3069 212.753 24.3372C212.753 19.3675 214.669 13.8009 216.584 11.0384H213.253C210.643 14.7588 209.088 19.1177 209.088 24.3372ZM218.694 28.2519H228.439V32H231.882V28.2519H234.52V25.2812H231.882V11.8991H227.384L218.694 25.3645V28.2519ZM222.387 25.2812V25.1424L228.273 16.0081H228.495V25.2812H222.387ZM258.119 9.37261H255.148V19.0899H252.455V10.0389H249.568V33.3049H252.455V21.5886H255.148V34.471H258.119V9.37261ZM236.38 27.0858L238.157 29.2236C245.292 25.1563 247.43 19.3259 247.43 12.5377H237.546V15.0086H244.431C243.987 20.0339 241.724 24.0041 236.38 27.0858ZM282.051 9.37261H278.942V22.838H282.051V9.37261ZM261.589 16.3691C261.589 19.7979 264.477 22.2133 268.364 22.1994C272.237 22.2133 275.124 19.7979 275.11 16.3691C275.124 12.8847 272.237 10.4693 268.364 10.4832C264.477 10.4693 261.589 12.8847 261.589 16.3691ZM264.616 16.3691C264.602 14.3562 266.17 13.0513 268.364 13.0652C270.515 13.0513 272.084 14.3562 272.084 16.3691C272.084 18.3819 270.515 19.659 268.364 19.6729C266.17 19.659 264.602 18.3819 264.616 16.3691ZM265.448 34.1656H282.051V24.0041H278.969V26.5861H268.502V24.0041H265.448V34.1656ZM268.502 31.6668V29.0015H278.969V31.6668H268.502ZM293.184 24.3372C293.184 19.1177 291.63 14.7588 289.02 11.0384H285.688C287.604 13.8009 289.52 19.3675 289.52 24.3372C289.52 29.3069 287.604 34.8874 285.688 37.6638H289.02C291.63 33.9157 293.184 29.5707 293.184 24.3372Z" fill="#333333"/>
<path d="M8.84375 58.9688H3.01562V57.5469H8.4375V56.625H3.01562V55.25H8.73438V54.2344H1.79688V59.9531H8.84375V58.9688ZM0.5 61.375L0.65625 62.4219C1.85938 62.4219 3.20312 62.4141 4.60938 62.3672V66.8125H5.82812V62.3125C7.17188 62.2344 8.53906 62.1094 9.875 61.9062L9.8125 60.9844C6.71875 61.3672 3.22656 61.3828 0.5 61.375ZM10.8125 67.2812H12.0156V53.3906H10.8125V67.2812ZM25.875 53.375H24.6406V67.2656H25.875V53.375ZM14.5625 63.6562L15.2344 64.6562C19.8906 62.4219 21.75 58.8828 21.7656 54.8906H15.2031V55.8906H20.5156C20.2422 59.2109 18.3203 61.875 14.5625 63.6562ZM33.1875 57.6406V55.8281H36.5V54.8125H28.6719V55.8281H31.9531V57.6406C31.9453 60.0469 30.2109 62.6719 28.2188 63.625L28.9531 64.5938C30.5391 63.7969 31.9453 62.0312 32.5938 59.9922C33.2422 61.9141 34.6406 63.5156 36.2656 64.25L36.9531 63.2812C34.9062 62.3984 33.1953 60 33.1875 57.6406ZM38.4375 67.2656H39.6719V53.375H38.4375V67.2656ZM49.9375 54.1719C47.8672 54.1797 46.3203 55.5 46.3281 57.375C46.3203 59.2734 47.8672 60.5859 49.9375 60.5938C52.0156 60.5859 53.5469 59.2734 53.5469 57.375C53.5469 55.5 52.0156 54.1797 49.9375 54.1719ZM47.5312 57.375C47.5234 56.125 48.5703 55.2031 49.9375 55.2031C51.3125 55.2031 52.3516 56.125 52.3438 57.375C52.3516 58.6484 51.3125 59.5781 49.9375 59.5781C48.5703 59.5781 47.5234 58.6484 47.5312 57.375ZM47.5469 66.8906H48.2031C49.1094 66.8984 50.4297 66.8359 51.7812 66.3906L51.5938 65.4062C50.6094 65.7344 49.5391 65.8516 48.7344 65.8828V61.8281H47.5469V66.8906ZM51.2969 62.8438H58.3125V61.8906H55.4219V60.6562H54.2188V61.8906H51.2969V62.8438ZM52.2188 65.2812C52.2109 66.4844 53.2656 67.2344 54.7969 67.2344C56.3203 67.2344 57.3906 66.4844 57.4062 65.2812C57.3906 64.0781 56.3203 63.3125 54.7969 63.3125C53.2656 63.3125 52.2109 64.0781 52.2188 65.2812ZM53.3125 65.2812C53.3125 64.6406 53.9297 64.2109 54.7969 64.2031C55.6641 64.2109 56.2812 64.6406 56.2812 65.2812C56.2812 65.9375 55.6641 66.3516 54.7969 66.3594C53.9297 66.3516 53.3125 65.9375 53.3125 65.2812ZM55.7031 60.3281H56.9219V57.5312H59.0156V56.5156H56.9219V53.375H55.7031V60.3281ZM63.6094 54.4531C61.5469 54.4609 60.1016 56.3438 60.1094 59.2969C60.1016 62.2578 61.5469 64.1328 63.6094 64.125C65.6562 64.1328 67.1094 62.2578 67.125 59.2969C67.1094 56.3438 65.6562 54.4609 63.6094 54.4531ZM61.2656 59.2969C61.2734 57.0391 62.2344 55.5547 63.6094 55.5469C65 55.5547 65.9375 57.0391 65.9375 59.2969C65.9375 61.5547 65 63.0391 63.6094 63.0312C62.2344 63.0391 61.2734 61.5547 61.2656 59.2969ZM69.4219 67.2656H70.6406V59.9844H72.9688V58.9219H70.6406V53.375H69.4219V67.2656ZM90.4375 61.625H77.7188V62.625H83.4375V67.2656H84.6406V62.625H90.4375V61.625ZM79.3438 59.9375H88.7969V53.9531H87.5625V55.875H80.5625V53.9531H79.3438V59.9375ZM80.5625 58.9375V56.875H87.5625V58.9375H80.5625ZM102.422 53.375H101.203V61.2656H102.422V57.8125H104.516V56.7812H102.422V53.375ZM92.2188 60.4375H93.2969C96.2188 60.4453 97.875 60.3672 99.8281 59.9688L99.6719 58.9688C97.8125 59.3281 96.2266 59.4375 93.4375 59.4219V55.3281H98.375V54.3281H92.2188V60.4375ZM93.6562 67.0781H102.422V61.9844H93.6562V67.0781ZM94.8594 66.0781V62.9844H101.203V66.0781H94.8594ZM112.172 61.5312H111.016V67.0781H115.844V61.5312H114.703V63.2656H112.172V61.5312ZM109.625 57.1875C109.617 59.0938 111.117 60.3906 113.234 60.3906C115.117 60.3906 116.547 59.3125 116.789 57.6719H119.688V60.7344H120.922V53.375H119.688V56.6562H116.781C116.516 55.0547 115.102 54 113.234 54C111.117 54 109.617 55.2891 109.625 57.1875ZM110.797 57.1875C110.797 55.9219 111.805 55.0312 113.234 55.0312C114.633 55.0312 115.641 55.9219 115.641 57.1875C115.641 58.4609 114.633 59.3672 113.234 59.375C111.805 59.3672 110.797 58.4609 110.797 57.1875ZM112.172 66.1094V64.2031H114.703V66.1094H112.172ZM116.031 66.25L116.672 67.1875C117.898 66.6641 118.75 65.6797 119.188 64.5469C119.617 65.6953 120.453 66.6797 121.734 67.1875L122.375 66.25C120.68 65.625 119.797 64.0859 119.812 62.625V61.4375H118.594V62.625C118.586 64.0312 117.703 65.5547 116.031 66.25ZM134.469 57.5938H126.172V53.8906H124.953V58.5781H134.469V57.5938ZM123.219 61.4688H135.938V60.4688H123.219V61.4688ZM124.875 66.9219H134.547V65.9062H126.094V62.8906H124.875V66.9219ZM152.984 53.375H151.797V58.8906H149.859V53.6719H148.688V66.5625H149.859V59.9062H151.797V67.2656H152.984V53.375ZM141.594 63.5312H146.906V55H141.594V63.5312ZM142.75 62.5469V55.9844H145.75V62.5469H142.75ZM166 53.875H156.422V54.8594H164.781V54.9219C164.781 55.3359 164.773 55.7734 164.758 56.2422L156.078 56.5156L156.25 57.5469L164.703 57.1484C164.656 57.75 164.57 58.4141 164.422 59.1719L165.641 59.2344C165.992 57.4219 165.992 56.0547 166 54.9219V53.875ZM154.922 61.1094H167.562V60.0938H161.312V58.2031H160.078V60.0938H154.922V61.1094ZM156.469 67.0781H165.953V62.5156H156.469V67.0781ZM157.688 66.0781V63.5H164.734V66.0781H157.688ZM179.594 53.375H178.375V61.75H179.594V58.125H181.688V57.0781H179.594V53.375ZM168.766 55.875H177.047V54.8594H173.516V53.2656H172.297V54.8594H168.766V55.875ZM169.562 59.0312C169.555 60.5391 170.891 61.5156 172.906 61.5156C174.898 61.5156 176.234 60.5391 176.25 59.0312C176.234 57.5469 174.898 56.5625 172.906 56.5625C170.891 56.5625 169.555 57.5469 169.562 59.0312ZM170.734 59.0312C170.727 58.125 171.594 57.5156 172.906 57.5156C174.203 57.5156 175.078 58.125 175.094 59.0312C175.078 59.9766 174.203 60.5625 172.906 60.5781C171.594 60.5625 170.727 59.9766 170.734 59.0312ZM170.828 67.0781H179.594V62.5469H170.828V67.0781ZM172.031 66.0781V63.5312H178.375V66.0781H172.031Z" fill="#898989"/>
</svg>
