<svg width="296" height="238" viewBox="0 0 296 238" fill="none" xmlns="http://www.w3.org/2000/svg">
<path d="M16.85 5.98342H14.3297V10.5448H12.7468V6.31667H10.2683V17.064H12.7468V12.7109H14.3297V18.7927H16.85V5.98342ZM0.291594 15.002L1.72873 17.0432C3.50954 16.2933 4.69674 14.9187 5.38407 13.2733C6.0714 14.6583 7.1857 15.7831 8.78947 16.4183L10.2058 14.3772C7.68558 13.3774 6.62334 11.3675 6.62334 9.35758V7.10814H4.04066V9.35758C4.04066 11.5341 2.96801 13.846 0.291594 15.002ZM2.97842 22.7709L3.93652 24.8329C7.01908 24.4163 9.24769 23.125 10.4245 21.365C11.5909 23.125 13.809 24.4163 16.8916 24.8329L17.8497 22.7709C13.7778 22.2606 11.7575 20.1986 11.7471 18.2095V17.8138H9.10189V18.2095C9.10189 20.1986 7.02949 22.2606 2.97842 22.7709ZM34.9704 5.96259H32.3252V8.37866H28.8261V6.77489H26.2018V8.98267H22.4735V6.77489H19.8075V15.1686H28.8261V13.8148H32.3252V15.7102H34.9704V5.96259ZM22.3486 18.4595H32.3252V19.5425H22.3694V24.7079H35.5328V22.6251H25.0354V21.4795H34.9704V16.4183H22.3486V18.4595ZM22.4735 13.0858V11.003H26.2018V13.0858H22.4735ZM28.8261 11.8153V10.3573H32.3252V11.8153H28.8261ZM40.469 7.64967H37.9697V20.4173H45.5095V7.64967H43.0517V11.9194H40.469V7.64967ZM40.469 18.2928V14.0023H43.0517V18.2928H40.469ZM47.0924 24.0414H49.6126V15.3561H51.3205V24.9162H53.8615V5.96259H51.3205V13.19H49.6126V6.23336H47.0924V24.0414ZM65.796 12.6693H63.1717V15.002H55.861V17.1265H73.1484V15.002H65.796V12.6693ZM56.7566 11.732L57.6939 13.794C60.891 13.3253 63.2446 11.9611 64.4526 10.0761C65.6502 11.9715 68.0038 13.3149 71.2114 13.794L72.2319 11.732C67.9518 11.2009 65.8273 9.11806 65.8377 6.89986V6.27502H63.13V6.89986C63.1196 9.03474 60.9431 11.2009 56.7566 11.732ZM57.8397 21.5629C57.8397 23.7186 60.3287 24.9266 64.4839 24.9162C68.6078 24.9266 71.0656 23.7186 71.0864 21.5629C71.0656 19.4071 68.6078 18.1783 64.4839 18.1679C60.3287 18.1783 57.8397 19.4071 57.8397 21.5629ZM60.5474 21.5629C60.5369 20.6152 61.8283 20.1986 64.4839 20.1882C67.077 20.1986 68.41 20.6152 68.4204 21.5629C68.41 22.4897 67.077 22.9375 64.4839 22.9375C61.8283 22.9375 60.5369 22.4897 60.5474 21.5629Z" fill="#6B6B6B"/>
<path d="M2.91519 83.6638H9.99492V80.9429H6.30235V59.7593H9.99492V57.0384H2.91519V83.6638ZM32.2336 56.0112H13.5209V58.3156H16.9636V62.0359H13.6597V64.3958H32.0948V62.0359H28.7909V58.3156H32.2336V56.0112ZM11.4664 68.3938H21.3225V70.2817H14.1595V72.5306H28.4578V74.1131H14.1872V80.2489H32.1781V77.9445H17.2135V76.2509H31.484V70.2817H24.4043V68.3938H34.3437V65.9506H11.4664V68.3938ZM20.0454 62.0359V58.3156H25.6814V62.0359H20.0454ZM58.9423 69.5876H36.0095V72.0863H45.8934V80.4432H48.9474V72.0863H58.9423V69.5876ZM38.8136 66.6447H56.1381V56.6497H38.8136V66.6447ZM41.8399 64.2292V59.1207H53.0564V64.2292H41.8399ZM81.653 55.4004H78.5434V70.0318H73.6293V72.1974H78.5434V74.3907H81.653V55.4004ZM60.497 66.6724L60.8857 69.1434C62.857 69.1434 65.0919 69.1295 67.438 69.0323V73.6966H70.5197V68.8658C72.6437 68.7131 74.7815 68.4909 76.8498 68.1439L76.6833 65.9228C71.3526 66.603 65.1197 66.6447 60.497 66.6724ZM62.4127 60.7588C62.4127 63.4518 64.967 65.1593 68.6873 65.1732C72.3383 65.1593 74.9064 63.4518 74.9342 60.7588C74.9064 58.1073 72.3383 56.3027 68.6873 56.3166C64.967 56.3027 62.4127 58.1073 62.4127 60.7588ZM63.8287 79.9712H82.236V77.4725H66.9105V72.5583H63.8287V79.9712ZM65.3279 60.7588C65.3279 59.3983 66.6745 58.5793 68.6873 58.5932C70.603 58.5793 71.9773 59.3983 71.9912 60.7588C71.9773 62.1192 70.603 62.9104 68.6873 62.9243C66.6745 62.9104 65.3279 62.1192 65.3279 60.7588ZM92.0643 83.6638V57.0384H84.9846V59.7593H88.6772V80.9429H84.9846V83.6638H92.0643ZM113.359 57.1772H103.503V69.3655H105.169C109.07 69.3794 111.485 69.2961 114.442 68.7547L114.109 66.3115C111.665 66.7141 109.528 66.8112 106.474 66.839V64.3958H113.109V61.9804H106.474V59.6204H113.359V57.1772ZM106.946 75.8067C106.932 78.7496 110.18 80.4432 115.552 80.4432C120.911 80.4432 124.145 78.7496 124.159 75.8067C124.145 72.9054 120.911 71.2118 115.552 71.2257C110.18 71.2118 106.932 72.9054 106.946 75.8067ZM110.027 75.8067C110.014 74.3491 111.971 73.5856 115.552 73.5856C119.078 73.5856 121.036 74.3491 121.05 75.8067C121.036 77.292 119.078 78.0555 115.552 78.0555C111.971 78.0555 110.014 77.292 110.027 75.8067ZM115.747 70.0874H118.662V64.2015H121.077V70.948H124.02V55.4004H121.077V61.7027H118.662V55.8724H115.747V70.0874ZM137.93 57.1772H128.074V69.3655H129.74C133.64 69.3794 136.056 69.2961 139.013 68.7547L138.68 66.3115C136.236 66.7141 134.099 66.8112 131.045 66.839V64.3958H137.68V61.9804H131.045V59.6204H137.93V57.1772ZM131.517 75.8067C131.503 78.7496 134.751 80.4432 140.123 80.4432C145.482 80.4432 148.716 78.7496 148.73 75.8067C148.716 72.9054 145.482 71.2118 140.123 71.2257C134.751 71.2118 131.503 72.9054 131.517 75.8067ZM134.598 75.8067C134.584 74.3491 136.542 73.5856 140.123 73.5856C143.649 73.5856 145.607 74.3491 145.62 75.8067C145.607 77.292 143.649 78.0555 140.123 78.0555C136.542 78.0555 134.584 77.292 134.598 75.8067ZM140.318 70.0874H143.233V64.2015H145.648V70.948H148.591V55.4004H145.648V61.7027H143.233V55.8724H140.318V70.0874ZM164.639 64.2292H161.585V66.0616H151.701V68.5048H174.578V66.0616H164.639V64.2292ZM152.228 62.4523L153.505 64.6457C155.976 64.0349 157.587 62.6745 158.406 60.9948C159.225 62.4107 160.766 63.6045 163.112 64.1182C165.444 63.6184 166.985 62.4385 167.831 61.0225C168.637 62.6883 170.261 64.0349 172.718 64.6457L174.05 62.4523C171.121 61.7721 169.608 60.0924 169.525 58.3711H172.995V55.9001H163.611V58.3711H166.388C166.291 59.6066 165.138 60.9115 163.125 61.6056C161.099 60.9115 159.905 59.6066 159.808 58.3711H162.612V55.9001H153.2V58.3711H156.754C156.643 60.0924 155.102 61.7721 152.228 62.4523ZM154.394 72.3084H168.692V74.002H154.422V80.2489H172.412V77.9445H157.448V76.1398H171.718V70.0874H154.394V72.3084ZM189.154 57.4826H177.354V69.5043H189.154V67.3387H194.207V73.6689H197.289V55.4004H194.207V59.4816H189.154V57.4826ZM180.436 67.0889V59.9258H186.1V67.0889H180.436ZM180.742 79.9712H197.844V77.4725H183.879V71.9753H180.742V79.9712ZM189.154 64.8678V62.0081H194.207V64.8678H189.154ZM209.088 70.3372C209.088 75.5707 210.643 79.9157 213.253 83.6638H216.584C214.669 80.8874 212.753 75.3069 212.753 70.3372C212.753 65.3675 214.669 59.8009 216.584 57.0384H213.253C210.643 60.7588 209.088 65.1177 209.088 70.3372ZM218.694 74.2519H228.439V78H231.882V74.2519H234.52V71.2812H231.882V57.8991H227.384L218.694 71.3645V74.2519ZM222.387 71.2812V71.1424L228.273 62.0081H228.495V71.2812H222.387ZM258.119 55.3726H255.148V65.0899H252.455V56.0389H249.568V79.3049H252.455V67.5886H255.148V80.471H258.119V55.3726ZM236.38 73.0858L238.157 75.2236C245.292 71.1563 247.43 65.3259 247.43 58.5377H237.546V61.0086H244.431C243.987 66.0339 241.724 70.0041 236.38 73.0858ZM282.051 55.3726H278.942V68.838H282.051V55.3726ZM261.589 62.3691C261.589 65.7979 264.477 68.2133 268.364 68.1994C272.237 68.2133 275.124 65.7979 275.11 62.3691C275.124 58.8847 272.237 56.4693 268.364 56.4832C264.477 56.4693 261.589 58.8847 261.589 62.3691ZM264.616 62.3691C264.602 60.3562 266.17 59.0513 268.364 59.0652C270.515 59.0513 272.084 60.3562 272.084 62.3691C272.084 64.3819 270.515 65.659 268.364 65.6729C266.17 65.659 264.602 64.3819 264.616 62.3691ZM265.448 80.1656H282.051V70.0041H278.969V72.5861H268.502V70.0041H265.448V80.1656ZM268.502 77.6668V75.0015H278.969V77.6668H268.502ZM293.184 70.3372C293.184 65.1177 291.63 60.7588 289.02 57.0384H285.688C287.604 59.8009 289.52 65.3675 289.52 70.3372C289.52 75.3069 287.604 80.8874 285.688 83.6638H289.02C291.63 79.9157 293.184 75.5707 293.184 70.3372Z" fill="#333333"/>
<path d="M8.84375 104.969H3.01562V103.547H8.4375V102.625H3.01562V101.25H8.73438V100.234H1.79688V105.953H8.84375V104.969ZM0.5 107.375L0.65625 108.422C1.85938 108.422 3.20312 108.414 4.60938 108.367V112.812H5.82812V108.312C7.17188 108.234 8.53906 108.109 9.875 107.906L9.8125 106.984C6.71875 107.367 3.22656 107.383 0.5 107.375ZM10.8125 113.281H12.0156V99.3906H10.8125V113.281ZM25.875 99.375H24.6406V113.266H25.875V99.375ZM14.5625 109.656L15.2344 110.656C19.8906 108.422 21.75 104.883 21.7656 100.891H15.2031V101.891H20.5156C20.2422 105.211 18.3203 107.875 14.5625 109.656ZM33.1875 103.641V101.828H36.5V100.812H28.6719V101.828H31.9531V103.641C31.9453 106.047 30.2109 108.672 28.2188 109.625L28.9531 110.594C30.5391 109.797 31.9453 108.031 32.5938 105.992C33.2422 107.914 34.6406 109.516 36.2656 110.25L36.9531 109.281C34.9062 108.398 33.1953 106 33.1875 103.641ZM38.4375 113.266H39.6719V99.375H38.4375V113.266ZM49.9375 100.172C47.8672 100.18 46.3203 101.5 46.3281 103.375C46.3203 105.273 47.8672 106.586 49.9375 106.594C52.0156 106.586 53.5469 105.273 53.5469 103.375C53.5469 101.5 52.0156 100.18 49.9375 100.172ZM47.5312 103.375C47.5234 102.125 48.5703 101.203 49.9375 101.203C51.3125 101.203 52.3516 102.125 52.3438 103.375C52.3516 104.648 51.3125 105.578 49.9375 105.578C48.5703 105.578 47.5234 104.648 47.5312 103.375ZM47.5469 112.891H48.2031C49.1094 112.898 50.4297 112.836 51.7812 112.391L51.5938 111.406C50.6094 111.734 49.5391 111.852 48.7344 111.883V107.828H47.5469V112.891ZM51.2969 108.844H58.3125V107.891H55.4219V106.656H54.2188V107.891H51.2969V108.844ZM52.2188 111.281C52.2109 112.484 53.2656 113.234 54.7969 113.234C56.3203 113.234 57.3906 112.484 57.4062 111.281C57.3906 110.078 56.3203 109.312 54.7969 109.312C53.2656 109.312 52.2109 110.078 52.2188 111.281ZM53.3125 111.281C53.3125 110.641 53.9297 110.211 54.7969 110.203C55.6641 110.211 56.2812 110.641 56.2812 111.281C56.2812 111.938 55.6641 112.352 54.7969 112.359C53.9297 112.352 53.3125 111.938 53.3125 111.281ZM55.7031 106.328H56.9219V103.531H59.0156V102.516H56.9219V99.375H55.7031V106.328ZM63.6094 100.453C61.5469 100.461 60.1016 102.344 60.1094 105.297C60.1016 108.258 61.5469 110.133 63.6094 110.125C65.6562 110.133 67.1094 108.258 67.125 105.297C67.1094 102.344 65.6562 100.461 63.6094 100.453ZM61.2656 105.297C61.2734 103.039 62.2344 101.555 63.6094 101.547C65 101.555 65.9375 103.039 65.9375 105.297C65.9375 107.555 65 109.039 63.6094 109.031C62.2344 109.039 61.2734 107.555 61.2656 105.297ZM69.4219 113.266H70.6406V105.984H72.9688V104.922H70.6406V99.375H69.4219V113.266ZM90.4375 107.625H77.7188V108.625H83.4375V113.266H84.6406V108.625H90.4375V107.625ZM79.3438 105.938H88.7969V99.9531H87.5625V101.875H80.5625V99.9531H79.3438V105.938ZM80.5625 104.938V102.875H87.5625V104.938H80.5625ZM102.422 99.375H101.203V107.266H102.422V103.812H104.516V102.781H102.422V99.375ZM92.2188 106.438H93.2969C96.2188 106.445 97.875 106.367 99.8281 105.969L99.6719 104.969C97.8125 105.328 96.2266 105.438 93.4375 105.422V101.328H98.375V100.328H92.2188V106.438ZM93.6562 113.078H102.422V107.984H93.6562V113.078ZM94.8594 112.078V108.984H101.203V112.078H94.8594ZM112.172 107.531H111.016V113.078H115.844V107.531H114.703V109.266H112.172V107.531ZM109.625 103.188C109.617 105.094 111.117 106.391 113.234 106.391C115.117 106.391 116.547 105.312 116.789 103.672H119.688V106.734H120.922V99.375H119.688V102.656H116.781C116.516 101.055 115.102 100 113.234 100C111.117 100 109.617 101.289 109.625 103.188ZM110.797 103.188C110.797 101.922 111.805 101.031 113.234 101.031C114.633 101.031 115.641 101.922 115.641 103.188C115.641 104.461 114.633 105.367 113.234 105.375C111.805 105.367 110.797 104.461 110.797 103.188ZM112.172 112.109V110.203H114.703V112.109H112.172ZM116.031 112.25L116.672 113.188C117.898 112.664 118.75 111.68 119.188 110.547C119.617 111.695 120.453 112.68 121.734 113.188L122.375 112.25C120.68 111.625 119.797 110.086 119.812 108.625V107.438H118.594V108.625C118.586 110.031 117.703 111.555 116.031 112.25ZM134.469 103.594H126.172V99.8906H124.953V104.578H134.469V103.594ZM123.219 107.469H135.938V106.469H123.219V107.469ZM124.875 112.922H134.547V111.906H126.094V108.891H124.875V112.922ZM152.984 99.375H151.797V104.891H149.859V99.6719H148.688V112.562H149.859V105.906H151.797V113.266H152.984V99.375ZM141.594 109.531H146.906V101H141.594V109.531ZM142.75 108.547V101.984H145.75V108.547H142.75ZM166 99.875H156.422V100.859H164.781V100.922C164.781 101.336 164.773 101.773 164.758 102.242L156.078 102.516L156.25 103.547L164.703 103.148C164.656 103.75 164.57 104.414 164.422 105.172L165.641 105.234C165.992 103.422 165.992 102.055 166 100.922V99.875ZM154.922 107.109H167.562V106.094H161.312V104.203H160.078V106.094H154.922V107.109ZM156.469 113.078H165.953V108.516H156.469V113.078ZM157.688 112.078V109.5H164.734V112.078H157.688ZM179.594 99.375H178.375V107.75H179.594V104.125H181.688V103.078H179.594V99.375ZM168.766 101.875H177.047V100.859H173.516V99.2656H172.297V100.859H168.766V101.875ZM169.562 105.031C169.555 106.539 170.891 107.516 172.906 107.516C174.898 107.516 176.234 106.539 176.25 105.031C176.234 103.547 174.898 102.562 172.906 102.562C170.891 102.562 169.555 103.547 169.562 105.031ZM170.734 105.031C170.727 104.125 171.594 103.516 172.906 103.516C174.203 103.516 175.078 104.125 175.094 105.031C175.078 105.977 174.203 106.562 172.906 106.578C171.594 106.562 170.727 105.977 170.734 105.031ZM170.828 113.078H179.594V108.547H170.828V113.078ZM172.031 112.078V109.531H178.375V112.078H172.031Z" fill="#898989"/>
<path d="M1.30489 163.252H11.0499V167H14.4926V163.252H17.1302V160.281H14.4926V146.899H9.99492L1.30489 160.364V163.252ZM4.99746 160.281V160.142L10.8834 151.008H11.1055V160.281H4.99746ZM23.4881 165.029H19.9621L18.5184 172.803H21.1559L23.4881 165.029ZM34.1216 146.621C29.6655 146.594 26.7087 149.578 26.7087 153.507C26.7225 157.31 29.4989 160.045 33.0943 160.031C35.3015 160.045 37.245 159.004 38.2583 157.255H38.4804C38.4527 161.572 36.8146 164.14 33.8994 164.14C32.0809 164.14 30.8454 163.127 30.4845 161.531H26.903C27.3472 164.862 30.0264 167.278 33.8994 167.278C38.8414 167.278 41.9787 163.266 41.9787 156.339C41.9648 148.995 38.0501 146.649 34.1216 146.621ZM30.2346 153.424C30.2069 151.272 31.8866 149.551 34.1493 149.537C36.3982 149.551 38.0362 151.355 38.0362 153.396C38.0501 155.478 36.3288 157.283 34.0938 157.283C31.8449 157.283 30.2346 155.589 30.2346 153.424ZM52.279 167.278C56.7212 167.278 59.9001 164.89 59.914 161.614C59.9001 159.06 57.9844 156.977 55.5829 156.589V156.478C57.6651 156.033 59.1366 154.215 59.1366 152.008C59.1366 148.898 56.2214 146.621 52.279 146.621C48.3088 146.621 45.4075 148.898 45.3936 152.008C45.4075 154.201 46.8373 156.033 48.9474 156.478V156.589C46.5319 156.977 44.6301 159.06 44.644 161.614C44.6301 164.89 47.7952 167.278 52.279 167.278ZM48.3643 161.281C48.3504 159.379 50.0163 157.991 52.279 158.005C54.5417 157.991 56.1798 159.393 56.1937 161.281C56.1798 163.141 54.6389 164.418 52.279 164.418C49.8913 164.418 48.3504 163.141 48.3643 161.281ZM48.9196 152.341C48.9335 150.633 50.2661 149.453 52.279 149.453C54.2502 149.453 55.6106 150.633 55.6106 152.341C55.6106 154.104 54.2086 155.311 52.279 155.311C50.3217 155.311 48.9335 154.104 48.9196 152.341ZM70.3254 167.278C75.1563 167.278 78.0437 163.543 78.0437 156.95C78.0437 150.397 75.1424 146.621 70.3254 146.621C65.5084 146.621 62.5932 150.397 62.6071 156.95C62.5932 163.53 65.4806 167.278 70.3254 167.278ZM66.2441 156.95C66.258 152.16 67.8128 149.634 70.3254 149.62C72.838 149.634 74.3928 152.16 74.4066 156.95C74.4066 161.78 72.838 164.238 70.3254 164.251C67.7989 164.238 66.2441 161.78 66.2441 156.95Z" fill="#333333"/>
<path d="M96.4688 149.734H94.4688V157.984H91.75V159.344H94.4688V160.469H96.4688V149.734ZM84.375 156.031L84.6094 157.609C85.6875 157.609 86.8984 157.602 88.1719 157.555V159.438H86.1875V163.688H96.7812V162.094H88.1719V160.141H90.1719V157.438C91.3203 157.352 92.4844 157.219 93.6094 157.031L93.5 155.609C90.4922 155.977 86.9766 156.016 84.375 156.031ZM85.4219 152.766C85.4219 154.289 86.8828 155.273 89 155.266C91.0625 155.273 92.5391 154.289 92.5469 152.766C92.5391 151.25 91.0625 150.211 89 150.219C86.8828 150.211 85.4219 151.25 85.4219 152.766ZM87.3125 152.766C87.3047 152.062 87.9844 151.672 89 151.672C89.9531 151.672 90.6406 152.062 90.6562 152.766C90.6406 153.453 89.9531 153.836 89 153.828C87.9844 153.836 87.3047 153.453 87.3125 152.766Z" fill="#333333"/>
</svg>
