<svg width="77" height="15" viewBox="0 0 77 15" fill="none" xmlns="http://www.w3.org/2000/svg">
<path d="M13.3438 7.92188H7.75V6.42188H6.03125V7.92188H0.46875V9.32812H13.3438V7.92188ZM1.07812 5.78125L1.60938 7.10938C4.125 6.91406 6 6.125 6.89062 4.90625C7.76562 6.125 9.64844 6.91406 12.1719 7.10938L12.7031 5.78125C9.77344 5.58594 8.10156 4.61719 7.88281 3.45312H12.0781V2.07812H7.75V0.796875H6.03125V2.07812H1.73438V3.45312H5.89062C5.66406 4.61719 4 5.58594 1.07812 5.78125ZM1.96875 12.5C1.96875 14.0391 3.79688 14.875 6.89062 14.875C9.96875 14.875 11.7734 14.0391 11.7812 12.5C11.7734 10.9531 9.96875 10.1172 6.89062 10.1094C3.79688 10.1172 1.96875 10.9531 1.96875 12.5ZM3.73438 12.5C3.72656 11.7734 4.8125 11.4062 6.89062 11.4062C8.92969 11.4062 10.0312 11.7734 10.0469 12.5C10.0312 13.2188 8.92969 13.5781 6.89062 13.5781C4.8125 13.5781 3.72656 13.2188 3.73438 12.5ZM23.0938 3.01562V1.51562H21.3594V2.85938C21.3516 4.875 20.2109 6.75781 17.9375 7.54688L18.875 8.90625C20.5 8.33594 21.6406 7.15625 22.25 5.65625C22.8672 6.96875 23.9609 8 25.4844 8.51562L26.4219 7.15625C24.2422 6.46875 23.0938 4.78906 23.0938 3.01562ZM19.8594 12.1875C19.8594 13.8984 21.6953 14.875 24.6406 14.875C27.5625 14.875 29.3672 13.8984 29.375 12.1875C29.3672 10.5156 27.5625 9.52344 24.6406 9.53125C21.6953 9.52344 19.8594 10.5156 19.8594 12.1875ZM21.5938 12.1875C21.5938 11.3594 22.7031 10.8906 24.6406 10.8906C26.5703 10.8906 27.6562 11.3594 27.6562 12.1875C27.6562 13.0625 26.5703 13.5 24.6406 13.5C22.7031 13.5 21.5938 13.0625 21.5938 12.1875ZM27.5 9.21875H29.2344V5.64062H31.2031V4.20312H29.2344V0.765625H27.5V9.21875ZM44.7969 7.45312H31.9219V8.84375H37.4844V10.2031H33.4375V14.7188H43.2344V10.2031H39.2031V8.84375H44.7969V7.45312ZM33.0781 2.57812H35.0156V5H33.1562V6.40625H43.5312V5H41.6719V2.57812H43.6094V1.1875H33.0781V2.57812ZM35.1562 13.3125V11.5469H41.5469V13.3125H35.1562ZM36.75 5V2.57812H39.9219V5H36.75ZM57.0781 1.45312H47.3438V2.84375H55.3438C55.3438 3.875 55.3125 5.03125 54.9766 6.5625H45.75V7.96875H58.6562V6.5625H56.7344C57.0859 4.89844 57.0859 3.64844 57.0781 2.54688V1.45312ZM47.2969 14.7188H57.0625V9.60938H47.2969V14.7188ZM49 13.3125V10.9688H55.3438V13.3125H49ZM62.9062 1.64062C61.0234 1.63281 59.6641 3.03906 59.6719 5.04688C59.6641 7.0625 61.0234 8.42969 62.9062 8.4375C64.7734 8.42969 66.1562 7.0625 66.1562 5.04688C66.1562 3.03906 64.7734 1.63281 62.9062 1.64062ZM61.2344 5.04688C61.2188 3.86719 61.9219 3.11719 62.9062 3.125C63.875 3.11719 64.5781 3.86719 64.5781 5.04688C64.5781 6.21875 63.875 6.98438 62.9062 6.96875C61.9219 6.98438 61.2188 6.21875 61.2344 5.04688ZM61.9844 11.2656H69.9219V14.8906H71.6562V9.875H61.9844V11.2656ZM67 9.10938H68.6094V5.67188H70V9.20312H71.6562V0.78125H70V4.28125H68.6094V1.04688H67V9.10938ZM75.125 13.625C75.7734 13.625 76.3281 13.0781 76.3281 12.4062C76.3281 11.75 75.7734 11.2109 75.125 11.2031C74.4531 11.2109 73.8984 11.75 73.9062 12.4062C73.8984 13.0781 74.4531 13.625 75.125 13.625ZM73.9062 6.34375C73.8984 7.01562 74.4531 7.5625 75.125 7.5625C75.7734 7.5625 76.3281 7.01562 76.3281 6.34375C76.3281 5.6875 75.7734 5.14844 75.125 5.14062C74.4531 5.14844 73.8984 5.6875 73.9062 6.34375Z" fill="black"/>
</svg>
