<svg width="13" height="15" viewBox="0 0 13 15" fill="none" xmlns="http://www.w3.org/2000/svg">
<path d="M12.4688 0.734375H10.4688V8.98438H7.75V10.3438H10.4688V11.4688H12.4688V0.734375ZM0.375 7.03125L0.609375 8.60938C1.6875 8.60938 2.89844 8.60156 4.17188 8.55469V10.4375H2.1875V14.6875H12.7812V13.0938H4.17188V11.1406H6.17188V8.4375C7.32031 8.35156 8.48438 8.21875 9.60938 8.03125L9.5 6.60938C6.49219 6.97656 2.97656 7.01562 0.375 7.03125ZM1.42188 3.76562C1.42188 5.28906 2.88281 6.27344 5 6.26562C7.0625 6.27344 8.53906 5.28906 8.54688 3.76562C8.53906 2.25 7.0625 1.21094 5 1.21875C2.88281 1.21094 1.42188 2.25 1.42188 3.76562ZM3.3125 3.76562C3.30469 3.0625 3.98438 2.67188 5 2.67188C5.95312 2.67188 6.64062 3.0625 6.65625 3.76562C6.64062 4.45312 5.95312 4.83594 5 4.82812C3.98438 4.83594 3.30469 4.45312 3.3125 3.76562Z" fill="#333333"/>
</svg>
