<svg width="28" height="24" viewBox="0 0 28 24" fill="none" xmlns="http://www.w3.org/2000/svg">
<path fill-rule="evenodd" clip-rule="evenodd" d="M24.9269 2.89301C24.3269 2.29267 23.6146 1.81642 22.8305 1.4915C22.0465 1.16657 21.2061 0.999329 20.3574 0.999329C19.5086 0.999329 18.6682 1.16657 17.8842 1.4915C17.1001 1.81642 16.3878 2.29267 15.7879 2.89301L13.9589 4.72101L12.1319 2.89301C10.9201 1.68097 9.27646 0.999948 7.56257 0.999761C5.84867 0.999573 4.2049 1.68024 2.99286 2.89201C1.78082 4.10378 1.0998 5.74741 1.09961 7.4613C1.09942 9.1752 1.78008 10.819 2.99186 12.031L4.81986 13.86L13.2519 22.294C13.4394 22.4815 13.6937 22.5868 13.9589 22.5868C14.224 22.5868 14.4783 22.4815 14.6659 22.294L23.0989 13.86L24.9269 12.032C25.5271 11.4321 26.0032 10.7198 26.328 9.93586C26.6528 9.15189 26.82 8.31161 26.82 7.46301C26.82 6.61441 26.6528 5.77413 26.328 4.99016C26.0032 4.2062 25.5271 3.49392 24.9269 2.89401V2.89301Z" stroke="#5F0080" stroke-width="1.7" stroke-linecap="round"/>
</svg>
